<?xml version="1.0" encoding="utf-8"?>
<!-- Generator: Adobe Illustrator 27.0.0, SVG Export Plug-In . SVG Version: 6.00 Build 0)  -->
<svg version="1.1" id="Layer_1" xmlns="http://www.w3.org/2000/svg" xmlns:xlink="http://www.w3.org/1999/xlink" x="0px" y="0px"
	 width="59.85px" height="66px" viewBox="0 0 59.85 66" enable-background="new 0 0 59.85 66" xml:space="preserve">
<g>
	<path fill="#B9DC78" d="M55.85,65.06H13.99c-2.21,0-4-1.79-4-4V19.2c0-2.21,1.79-4,4-4h41.86c2.21,0,4,1.79,4,4v41.86
		C59.85,63.27,58.06,65.06,55.85,65.06z"/>
	<path d="M0.04,11.68C10.14,11.38,19.39,9.57,25.27,0c5.78,9.47,15.01,11.4,25.27,11.67c0,0.62,0,1.25,0,1.88
		c0,8.35-0.09,16.7,0.03,25.04c0.06,4.38-1.28,8.22-3.7,11.72c-5.19,7.5-12.62,12.06-20.82,15.55c-0.45,0.19-1.12,0.18-1.57-0.01
		c-8.13-3.49-15.52-8.01-20.7-15.45C1.27,46.81-0.07,42.86,0,38.37c0.14-8.29,0.04-16.59,0.04-24.88
		C0.04,12.9,0.04,12.31,0.04,11.68z M47.73,14.37c-8.72-0.54-16.56-2.67-22.54-9.36c-2.82,3.28-6.16,5.7-10.16,6.92
		c-3.9,1.19-7.94,1.94-12.2,2.94c0,0.18,0,0.76,0,1.35c0,7.25,0.15,14.5-0.05,21.74c-0.13,4.8,1.54,8.78,4.42,12.41
		c3.19,4.02,7.15,7.16,11.63,9.56c7.84,4.2,5.1,4.18,12.81,0.05c5.12-2.74,9.62-6.36,12.92-11.25c2.1-3.11,3.33-6.46,3.21-10.33
		c-0.16-5.16-0.04-10.32-0.04-15.48C47.73,20.13,47.73,17.34,47.73,14.37z"/>
	<path fill="#FFFFFF" d="M16.51,31.81c5.96,0,11.66,0,17.62,0c0,1.45,0,2.85,0,4.26c0,2.47-0.06,4.94,0.02,7.41
		c0.05,1.37-0.51,2.29-1.58,3.03c-3.75,2.63-10.88,2.65-14.53-0.06c-0.65-0.49-1.44-1.33-1.47-2.03
		C16.44,40.27,16.51,36.11,16.51,31.81z M23.94,43.11c1,0,1.78,0,2.62,0c-0.13-1.7-0.8-3.29,0.39-4.81c0.22-0.29-0.36-1.6-0.9-1.95
		c-0.44-0.29-1.65-0.09-1.98,0.32c-0.4,0.5-0.58,1.82-0.24,2.14c0.89,0.86,0.53,1.69,0.4,2.57C24.17,41.92,24.06,42.45,23.94,43.11z
		"/>
	<path fill="#FFFFFF" d="M31.18,29.61c-0.81,0-1.45,0-2.38,0c0-1.04-0.01-2.03,0-3.03c0.03-1.99-1.34-3.43-3.32-3.48
		c-2.05-0.05-3.53,1.41-3.5,3.47c0.01,0.97,0,1.94,0,3c-0.9,0-1.69,0-2.83,0c0.27-1.88,0.34-3.73,0.84-5.5
		c0.56-1.96,3.17-3.28,5.6-3.14c2.86,0.16,5.26,1.78,5.56,3.99C31.35,26.42,31.18,27.96,31.18,29.61z"/>
</g>
</svg>
