<?xml version="1.0" encoding="utf-8"?>
<!-- Generator: Adobe Illustrator 27.0.0, SVG Export Plug-In . SVG Version: 6.00 Build 0)  -->
<svg version="1.1" id="Layer_1" xmlns="http://www.w3.org/2000/svg" xmlns:xlink="http://www.w3.org/1999/xlink" x="0px" y="0px"
	 width="66.29px" height="66px" viewBox="0 0 66.29 66" enable-background="new 0 0 66.29 66" xml:space="preserve">
<g>
	<path fill="#B9DC78" d="M62.29,66H17.95c-2.21,0-4-1.79-4-4V17.66c0-2.21,1.79-4,4-4h44.34c2.21,0,4,1.79,4,4V62
		C66.29,64.21,64.49,66,62.29,66z"/>
	<path fill="#FFFFFF" d="M57.47,51.45c-0.26-0.46-0.59-0.85-1-1.17c-0.41-0.31-0.86-0.57-1.34-0.76c-0.48-0.19-0.95-0.34-1.41-0.46
		l-0.51-0.13l0.01-4.52c0.55,0.07,1.02,0.24,1.42,0.51c0.54,0.37,0.85,0.89,0.93,1.55h2.1c-0.02-0.77-0.24-1.46-0.68-2.06
		s-1.02-1.07-1.77-1.41c-0.59-0.27-1.26-0.43-1.99-0.49l0.01-1.63H51.9l-0.01,1.64c-0.68,0.07-1.3,0.23-1.87,0.48
		c-0.77,0.34-1.38,0.83-1.83,1.45c-0.45,0.62-0.68,1.34-0.68,2.17c0,1,0.34,1.81,1.01,2.42c0.67,0.61,1.59,1.07,2.74,1.39l0.6,0.16
		l-0.02,4.79c-0.31-0.04-0.61-0.11-0.89-0.21c-0.47-0.17-0.85-0.42-1.15-0.77c-0.3-0.34-0.47-0.78-0.51-1.3h-2.18
		c0.05,0.87,0.29,1.62,0.74,2.25c0.45,0.63,1.06,1.12,1.85,1.46c0.62,0.27,1.33,0.43,2.13,0.49l0,1.59h1.32l0-1.59
		c0.85-0.06,1.59-0.23,2.23-0.53c0.8-0.37,1.4-0.87,1.82-1.5c0.42-0.63,0.63-1.36,0.63-2.18C57.86,52.47,57.73,51.92,57.47,51.45z
		 M51.42,48.43c-0.31-0.11-0.59-0.25-0.86-0.42c-0.27-0.17-0.48-0.37-0.64-0.62c-0.16-0.25-0.24-0.54-0.24-0.89
		c0-0.41,0.12-0.77,0.36-1.09c0.24-0.32,0.57-0.57,1-0.76c0.25-0.11,0.54-0.18,0.85-0.23l-0.01,4.16
		C51.73,48.54,51.58,48.49,51.42,48.43z M55.29,54.33c-0.28,0.35-0.66,0.62-1.14,0.82c-0.3,0.12-0.62,0.2-0.97,0.24l0.01-4.42
		c0.43,0.12,0.82,0.26,1.17,0.41c0.41,0.18,0.74,0.4,0.98,0.68c0.24,0.27,0.36,0.62,0.36,1.05C55.7,53.57,55.56,53.98,55.29,54.33z"
		/>
	<path d="M5.46,21.64c0.56,0.04,1.08-0.08,1.34,0.13c0.33,0.26,0.75,0.95,0.62,1.17c-0.86,1.54-1.83,3.02-2.8,4.49
		c-0.5,0.75-1.13,0.73-1.63,0C2.04,26,1.11,24.56,0.23,23.09c-0.47-0.78-0.22-1.29,0.73-1.37c0.41-0.04,0.82-0.06,1.11-0.08
		c0.61-2.29,0.96-4.58,1.81-6.67C7.46,6.16,14.08,1,23.52,0.12c9.31-0.86,16.66,2.96,21.9,10.74c0.17,0.26,0.48,0.56,0.45,0.8
		c-0.1,0.69-0.16,1.59-0.61,1.95c-0.32,0.26-1.29-0.08-1.86-0.36c-0.36-0.18-0.53-0.74-0.79-1.13C37.93,5.06,29.25,1.57,21.14,3.49
		C12.75,5.47,6.51,12.37,5.46,20.86C5.43,21.06,5.46,21.27,5.46,21.64z"/>
	<path d="M45.79,25.26c-0.48-0.03-0.84-0.04-1.19-0.07c-0.85-0.07-1.14-0.56-0.72-1.27c0.9-1.52,1.84-3.01,2.84-4.46
		c0.59-0.85,1.23-0.57,1.72,0.19c0.82,1.27,1.64,2.52,2.43,3.81c0.8,1.31,0.6,1.65-1,1.74c-0.25,0.01-0.5,0.04-0.67,0.05
		c-0.59,2.19-0.94,4.36-1.75,6.35C43.86,40.5,37.2,45.68,27.7,46.54c-9.24,0.84-16.55-2.98-21.77-10.68
		c-0.23-0.34-0.59-0.74-0.56-1.08c0.05-0.6,0.19-1.44,0.59-1.7c0.41-0.26,1.24-0.07,1.79,0.16c0.36,0.15,0.56,0.72,0.81,1.11
		c4.58,7.09,13.23,10.68,21.37,8.87c8.44-1.87,14.8-8.81,15.89-17.34C45.85,25.72,45.82,25.57,45.79,25.26z"/>
</g>
</svg>
