<?xml version="1.0" encoding="utf-8"?>
<!-- Generator: Adobe Illustrator 27.0.0, SVG Export Plug-In . SVG Version: 6.00 Build 0)  -->
<svg version="1.1" id="Layer_1" xmlns="http://www.w3.org/2000/svg" xmlns:xlink="http://www.w3.org/1999/xlink" x="0px" y="0px"
	 width="160.93px" height="45px" viewBox="0 0 160.93 45" enable-background="new 0 0 160.93 45" xml:space="preserve">
<g>
	<g>
		<polygon fill="#B43CC8" points="35.67,18.28 38.89,23.68 42.31,18.28 		"/>
		<polygon fill="#5A82F0" points="24.73,0 15.21,16.02 34.31,16.02 		"/>
		<polygon fill="#FF8C3C" points="40.04,25.6 31.3,41.62 49.63,41.62 		"/>
		<polygon fill="#FA64A5" points="15.09,16.22 0,41.62 18.76,41.62 24.38,32.21 		"/>
	</g>
	<g>
		<g>
			<path d="M58.59,30.77c-0.06-0.33-0.1-0.61-0.11-0.86c-0.02-0.25-0.05-0.51-0.09-0.78c-0.65,0.65-1.36,1.17-2.11,1.54
				c-0.76,0.37-1.56,0.56-2.4,0.56c-1.46,0-2.54-0.33-3.25-0.99c-0.71-0.66-1.06-1.47-1.06-2.43c0-0.88,0.27-1.64,0.82-2.29
				c0.55-0.64,1.26-1.17,2.13-1.58c0.87-0.41,1.82-0.72,2.85-0.92c1.03-0.2,2.02-0.29,2.98-0.27v-1.78c0-0.67-0.06-1.3-0.17-1.9
				c-0.12-0.59-0.36-1.08-0.75-1.47c-0.38-0.38-1-0.58-1.84-0.6c-0.56-0.02-1.13,0.09-1.71,0.32c-0.59,0.23-1.01,0.62-1.28,1.18
				c0.15,0.15,0.25,0.33,0.3,0.53c0.05,0.2,0.07,0.39,0.07,0.56c0,0.23-0.1,0.49-0.29,0.79c-0.19,0.3-0.53,0.44-1.01,0.42
				c-0.4,0-0.71-0.14-0.92-0.42c-0.21-0.28-0.32-0.61-0.32-0.99c0-0.65,0.24-1.24,0.73-1.76c0.49-0.52,1.17-0.93,2.03-1.24
				c0.86-0.31,1.84-0.46,2.93-0.46c1.61,0,2.8,0.43,3.57,1.28c0.77,0.85,1.14,2.2,1.12,4.04c0,0.71,0,1.42,0,2.14s0,1.44-0.01,2.16
				c-0.01,0.72-0.01,1.44-0.01,2.17c0,0.31-0.01,0.61-0.03,0.92c-0.02,0.31-0.05,0.65-0.09,1.04c0.35-0.02,0.69-0.04,1.02-0.06
				c0.34-0.02,0.68-0.04,1.02-0.06v1.21H58.59z M58.33,23.72c-0.65,0.02-1.34,0.1-2.06,0.24c-0.72,0.14-1.38,0.36-1.99,0.65
				c-0.6,0.29-1.09,0.67-1.47,1.14c-0.37,0.47-0.55,1.04-0.53,1.71c0.04,0.71,0.27,1.24,0.7,1.6c0.43,0.36,0.94,0.53,1.54,0.53
				c0.79,0,1.47-0.15,2.06-0.45c0.58-0.3,1.17-0.71,1.74-1.25c-0.02-0.21-0.03-0.44-0.03-0.69c0-0.25,0-0.51,0-0.78
				c0-0.1,0-0.4,0.01-0.92C58.32,24.99,58.33,24.39,58.33,23.72z"/>
			<path d="M65.61,12.79c0-0.31,0-0.6,0.01-0.88c0.01-0.28,0.03-0.61,0.07-0.99c-0.35,0.02-0.69,0.04-1.02,0.06
				c-0.34,0.02-0.68,0.04-1.02,0.06V9.82c0.84,0,1.5-0.04,1.97-0.12c0.47-0.08,0.82-0.17,1.06-0.29c0.24-0.12,0.43-0.24,0.56-0.37
				h0.83v8.57c0.54-0.54,1.17-0.95,1.91-1.25c0.74-0.3,1.55-0.45,2.43-0.45c1.23,0,2.34,0.3,3.32,0.89
				c0.99,0.59,1.77,1.44,2.35,2.53c0.58,1.09,0.86,2.39,0.86,3.88c0,1.63-0.36,3.05-1.06,4.24c-0.71,1.2-1.63,2.12-2.76,2.78
				c-1.13,0.65-2.35,0.98-3.65,0.98c-0.65,0-1.37-0.12-2.14-0.36s-1.47-0.71-2.09-1.4l-0.69,1.29h-1.01L65.61,12.79z M68.08,26.25
				c0,1.02,0.16,1.8,0.49,2.35c0.33,0.55,0.75,0.93,1.27,1.14c0.52,0.21,1.06,0.32,1.64,0.32c0.92,0,1.72-0.26,2.39-0.78
				c0.67-0.52,1.19-1.23,1.57-2.14c0.37-0.91,0.56-1.97,0.56-3.18c0-1.3-0.16-2.45-0.49-3.44c-0.33-0.99-0.82-1.76-1.47-2.33
				c-0.65-0.57-1.48-0.85-2.47-0.85c-0.63,0-1.26,0.15-1.88,0.45c-0.62,0.3-1.16,0.7-1.6,1.19V26.25z"/>
			<path d="M87.33,31.23c-0.96,0-1.81-0.13-2.56-0.39c-0.75-0.26-1.36-0.55-1.84-0.88l0.11,1.01h-1.21l-0.17-4.95h0.89
				c0.04,0.79,0.26,1.49,0.66,2.11c0.4,0.62,0.92,1.11,1.55,1.45c0.63,0.35,1.31,0.52,2.04,0.52c0.5,0,0.99-0.08,1.47-0.24
				c0.48-0.16,0.88-0.41,1.21-0.75c0.33-0.34,0.49-0.76,0.49-1.28c0-0.54-0.16-0.98-0.47-1.34c-0.32-0.35-0.73-0.67-1.25-0.94
				c-0.52-0.27-1.07-0.52-1.67-0.75c-0.58-0.23-1.15-0.47-1.73-0.72c-0.58-0.25-1.11-0.55-1.6-0.89c-0.49-0.35-0.88-0.77-1.17-1.27
				c-0.29-0.5-0.43-1.11-0.43-1.84c0-0.4,0.08-0.84,0.23-1.32c0.15-0.48,0.41-0.94,0.78-1.37c0.36-0.43,0.86-0.79,1.5-1.06
				c0.63-0.28,1.44-0.42,2.42-0.42c0.52,0,1.09,0.09,1.73,0.26c0.63,0.17,1.25,0.5,1.84,0.98l-0.06-1.09h1.21v5.04h-0.92
				c-0.04-0.67-0.19-1.32-0.46-1.94c-0.27-0.62-0.66-1.14-1.18-1.55c-0.52-0.41-1.19-0.62-2.01-0.62c-0.88,0-1.57,0.22-2.07,0.66
				c-0.5,0.44-0.75,0.95-0.75,1.52c0,0.59,0.19,1.09,0.56,1.48c0.37,0.39,0.86,0.73,1.45,1.02c0.59,0.29,1.23,0.57,1.9,0.83
				c0.73,0.31,1.44,0.64,2.13,1.01c0.69,0.36,1.26,0.82,1.7,1.37c0.44,0.55,0.66,1.25,0.66,2.11c0,0.96-0.24,1.76-0.73,2.39
				c-0.49,0.63-1.11,1.1-1.87,1.4C88.95,31.08,88.16,31.23,87.33,31.23z"/>
			<path d="M101.89,31.23c-1.34,0-2.56-0.31-3.65-0.94c-1.09-0.62-1.96-1.49-2.6-2.59c-0.64-1.1-0.96-2.36-0.96-3.78
				c0-1.52,0.32-2.88,0.95-4.09c0.63-1.21,1.5-2.16,2.59-2.86c1.09-0.7,2.32-1.05,3.68-1.05c1.34,0,2.56,0.32,3.65,0.96
				c1.09,0.64,1.97,1.51,2.62,2.6c0.65,1.09,0.98,2.34,0.98,3.74c0,1.48-0.32,2.82-0.96,4.04c-0.64,1.22-1.51,2.18-2.6,2.89
				C104.48,30.87,103.25,31.23,101.89,31.23z M102.12,30.08c1.02,0,1.82-0.29,2.42-0.86c0.59-0.58,1.02-1.32,1.28-2.24
				c0.26-0.92,0.39-1.89,0.39-2.91c0-0.86-0.08-1.71-0.24-2.55c-0.16-0.83-0.42-1.59-0.76-2.27c-0.35-0.68-0.79-1.22-1.34-1.63
				c-0.55-0.4-1.2-0.6-1.97-0.6c-1,0-1.81,0.29-2.45,0.86c-0.63,0.58-1.1,1.32-1.4,2.24c-0.3,0.92-0.45,1.91-0.45,2.96
				c0,1.19,0.16,2.32,0.49,3.38c0.33,1.06,0.82,1.93,1.5,2.6C100.26,29.74,101.1,30.08,102.12,30.08z"/>
			<path d="M111.3,29.91c0.59,0,1.01-0.15,1.24-0.45c0.23-0.3,0.36-0.71,0.4-1.24c0.04-0.53,0.06-1.14,0.06-1.83V12.79
				c0-0.31,0-0.6,0.01-0.88c0.01-0.28,0.03-0.61,0.07-0.99c-0.35,0.02-0.69,0.04-1.02,0.06c-0.34,0.02-0.68,0.04-1.02,0.06V9.82
				c0.84,0,1.5-0.04,1.97-0.12c0.47-0.08,0.82-0.17,1.06-0.29c0.24-0.12,0.43-0.24,0.56-0.37h0.83l0.03,18.67
				c0,0.38-0.01,0.72-0.03,1.02c-0.02,0.3-0.06,0.61-0.11,0.94c0.31-0.02,0.61-0.03,0.91-0.04c0.3-0.01,0.6-0.02,0.91-0.04v1.18
				h-5.87V29.91z"/>
			<path d="M125.48,31.23c-1.04,0-1.9-0.19-2.6-0.58c-0.7-0.38-1.23-1.04-1.58-1.96c-0.36-0.92-0.53-2.17-0.53-3.74v-5.12
				c0-0.31,0-0.61,0.01-0.92c0.01-0.31,0.04-0.62,0.1-0.95c-0.33,0.02-0.66,0.03-0.99,0.04c-0.34,0.01-0.67,0.02-0.99,0.04v-1.18
				h0.89c0.82,0,1.42-0.08,1.8-0.24c0.37-0.16,0.67-0.34,0.88-0.53h0.83v8.78c0,1.65,0.23,2.88,0.71,3.7
				c0.47,0.82,1.27,1.21,2.4,1.19c0.73-0.02,1.42-0.24,2.09-0.68c0.66-0.43,1.19-0.94,1.6-1.54v-7.39c0-0.46,0.01-0.86,0.03-1.19
				c0.02-0.34,0.06-0.67,0.12-0.99c-0.35,0.02-0.69,0.03-1.04,0.04c-0.35,0.01-0.69,0.02-1.04,0.04v-1.18h0.89
				c0.82,0,1.42-0.08,1.8-0.24c0.37-0.16,0.67-0.34,0.88-0.53h0.83l-0.03,10.88c0,0.31-0.01,0.74-0.03,1.29
				c-0.02,0.56-0.05,1.03-0.09,1.41c0.35-0.02,0.69-0.04,1.04-0.06c0.35-0.02,0.69-0.04,1.04-0.06v1.21h-4.11
				c-0.06-0.33-0.1-0.63-0.13-0.92c-0.03-0.29-0.05-0.56-0.07-0.81c-0.59,0.59-1.31,1.11-2.16,1.54
				C127.17,31.01,126.33,31.23,125.48,31.23z"/>
			<path d="M142,31.23c-0.44,0-0.89-0.06-1.35-0.19c-0.46-0.12-0.89-0.37-1.28-0.73c-0.39-0.36-0.7-0.9-0.94-1.6
				c-0.23-0.7-0.35-1.63-0.35-2.78l0.06-8.34l-2.22,0.03v-1.24c0.5-0.02,1.01-0.21,1.52-0.56c0.52-0.35,0.98-0.84,1.4-1.45
				c0.41-0.61,0.7-1.28,0.85-2.01h0.98v4.03h4.83v1.12l-4.83,0.06l-0.06,8c0,0.86,0.07,1.6,0.22,2.2c0.14,0.6,0.38,1.06,0.7,1.37
				c0.33,0.31,0.75,0.46,1.27,0.46c0.54,0,1.04-0.15,1.51-0.46c0.47-0.31,0.89-0.73,1.25-1.27l0.78,0.63
				c-0.42,0.63-0.84,1.13-1.25,1.5c-0.41,0.36-0.81,0.64-1.19,0.82c-0.38,0.18-0.74,0.3-1.06,0.35
				C142.51,31.21,142.23,31.23,142,31.23z"/>
			<path d="M154.69,31.23c-1.32,0-2.52-0.31-3.58-0.94c-1.06-0.62-1.9-1.51-2.52-2.65c-0.61-1.14-0.92-2.49-0.92-4.04
				c0-1.34,0.3-2.6,0.91-3.77c0.6-1.17,1.45-2.11,2.55-2.83c1.09-0.72,2.36-1.08,3.8-1.08c0.81,0,1.56,0.13,2.26,0.39
				c0.7,0.26,1.32,0.65,1.86,1.18c0.54,0.53,0.96,1.19,1.27,1.99c0.31,0.8,0.46,1.73,0.46,2.81l-10.13,0.17
				c0,1.46,0.16,2.74,0.47,3.84c0.32,1.1,0.83,1.96,1.54,2.56c0.71,0.6,1.62,0.91,2.73,0.91c0.59,0,1.2-0.11,1.83-0.32
				c0.62-0.21,1.2-0.5,1.74-0.86c0.54-0.36,0.97-0.77,1.29-1.21l0.69,0.58c-0.52,0.81-1.14,1.45-1.87,1.93
				c-0.73,0.48-1.48,0.83-2.24,1.04C156.05,31.12,155.34,31.23,154.69,31.23z M150.72,21.25h7.34c0-0.69-0.1-1.36-0.3-2
				c-0.2-0.64-0.53-1.17-0.99-1.58c-0.46-0.41-1.06-0.62-1.81-0.62c-1.11,0-2.04,0.33-2.78,0.99
				C151.43,18.7,150.95,19.77,150.72,21.25z"/>
		</g>
		<g>
			<path d="M83.65,44.79v-0.85c0.24,0,0.42-0.05,0.53-0.14c0.11-0.1,0.18-0.23,0.21-0.41c0.03-0.18,0.05-0.38,0.05-0.61v-5.51
				c0-0.16,0-0.33,0.01-0.53c0.01-0.2,0.02-0.39,0.04-0.58c-0.14,0.01-0.3,0.02-0.49,0.02c-0.19,0-0.33,0.01-0.43,0.02v-0.99
				c0.41,0,0.75-0.02,1.02-0.07c0.27-0.04,0.49-0.1,0.65-0.16c0.16-0.06,0.27-0.12,0.33-0.17h0.64c0.02,0.09,0.03,0.19,0.04,0.32
				c0.01,0.13,0.02,0.23,0.03,0.31c0.3-0.26,0.61-0.44,0.9-0.55c0.3-0.1,0.58-0.16,0.85-0.16c0.52,0,0.98,0.13,1.37,0.4
				c0.39,0.27,0.7,0.65,0.92,1.15c0.22,0.49,0.33,1.08,0.33,1.74c0,0.69-0.13,1.32-0.4,1.87c-0.27,0.55-0.64,0.98-1.13,1.29
				c-0.48,0.31-1.05,0.47-1.7,0.47c-0.23,0-0.44-0.02-0.63-0.07c-0.19-0.05-0.36-0.1-0.53-0.16v1.25c0,0.12,0,0.29-0.01,0.51
				c0,0.22-0.02,0.43-0.03,0.63c0.14-0.02,0.29-0.03,0.46-0.03c0.16,0,0.29-0.01,0.38-0.01v0.99H83.65z M87.21,40.7
				c0.4-0.01,0.71-0.13,0.93-0.36c0.22-0.23,0.38-0.53,0.46-0.9c0.09-0.37,0.13-0.77,0.13-1.2c0-0.4-0.05-0.78-0.14-1.13
				c-0.1-0.36-0.25-0.64-0.46-0.87c-0.21-0.22-0.48-0.33-0.82-0.32c-0.22,0.01-0.42,0.06-0.6,0.16c-0.18,0.1-0.33,0.24-0.46,0.41
				c0,0.27,0,0.54,0,0.8c0,0.26,0,0.53,0,0.79c0,0.26,0,0.52,0,0.79c0,0.26,0,0.53,0,0.79c0,0.26,0,0.53,0,0.8
				c0.1,0.06,0.23,0.12,0.4,0.17C86.84,40.69,87.02,40.71,87.21,40.7z"/>
			<path d="M91.6,40.63c0.24,0,0.42-0.05,0.53-0.14c0.11-0.1,0.18-0.23,0.2-0.41c0.03-0.18,0.04-0.38,0.04-0.61v-5.35
				c0-0.16,0-0.34,0.01-0.54c0.01-0.2,0.02-0.4,0.04-0.59c-0.14,0.01-0.3,0.02-0.49,0.02c-0.19,0-0.33,0.01-0.42,0.02v-0.99
				c0.41,0,0.75-0.02,1.02-0.07c0.27-0.04,0.49-0.1,0.65-0.16c0.16-0.06,0.27-0.12,0.33-0.17h0.7v7.73c0,0.12,0,0.29-0.01,0.51
				s-0.02,0.43-0.04,0.63c0.15-0.02,0.3-0.03,0.47-0.03c0.16,0,0.29-0.01,0.38-0.01v0.99H91.6V40.63z"/>
			<path d="M98.82,41.68c-0.52,0-0.94-0.1-1.26-0.3c-0.32-0.2-0.55-0.51-0.69-0.94c-0.14-0.42-0.21-0.97-0.21-1.64v-1.5
				c0-0.16,0-0.34,0.01-0.54c0.01-0.2,0.02-0.4,0.03-0.59c-0.14,0.01-0.3,0.02-0.49,0.02c-0.19,0-0.33,0.01-0.42,0.02v-0.99h0.13
				c0.54,0,0.96-0.04,1.28-0.13c0.31-0.09,0.51-0.17,0.6-0.26h0.72v3.98c0,0.56,0.07,0.98,0.22,1.26c0.15,0.27,0.38,0.41,0.7,0.41
				c0.23,0,0.45-0.06,0.68-0.19c0.23-0.13,0.42-0.27,0.57-0.44v-2.55c0-0.16,0-0.34,0.01-0.54c0.01-0.2,0.02-0.4,0.04-0.59
				c-0.14,0.01-0.3,0.02-0.49,0.02c-0.19,0-0.33,0.01-0.42,0.02v-0.99h0.31c0.41,0,0.77-0.05,1.08-0.14s0.51-0.18,0.6-0.25h0.72
				v4.54c0,0.12,0,0.29-0.01,0.51c-0.01,0.22-0.02,0.43-0.04,0.63c0.14-0.02,0.29-0.03,0.46-0.03c0.17,0,0.3-0.01,0.38-0.01v0.99
				h-2.47c-0.01-0.11-0.02-0.23-0.03-0.34c-0.01-0.11-0.03-0.23-0.05-0.34c-0.27,0.23-0.56,0.43-0.87,0.61
				C99.6,41.59,99.24,41.68,98.82,41.68z"/>
			<path d="M107.23,45c-0.75,0-1.34-0.08-1.77-0.24c-0.43-0.16-0.74-0.37-0.92-0.63c-0.18-0.26-0.27-0.54-0.27-0.83
				c0-0.18,0.04-0.36,0.12-0.55c0.08-0.18,0.21-0.36,0.38-0.53c0.18-0.17,0.42-0.31,0.74-0.42c-0.36-0.1-0.61-0.25-0.75-0.46
				c-0.14-0.21-0.21-0.44-0.21-0.68c0-0.23,0.09-0.48,0.27-0.76c0.18-0.28,0.51-0.5,0.99-0.64c-0.36-0.15-0.66-0.38-0.9-0.69
				c-0.23-0.31-0.36-0.69-0.38-1.13c-0.02-0.52,0.11-0.98,0.39-1.39c0.28-0.4,0.64-0.72,1.09-0.94c0.45-0.23,0.92-0.34,1.42-0.34
				c0.23,0,0.49,0.03,0.78,0.09c0.3,0.06,0.55,0.17,0.77,0.31c0.1-0.27,0.22-0.52,0.37-0.76c0.15-0.24,0.34-0.43,0.55-0.59
				c0.22-0.15,0.46-0.23,0.73-0.23c0.29,0,0.52,0.08,0.67,0.23c0.15,0.15,0.23,0.35,0.23,0.61c0,0.1-0.02,0.22-0.07,0.34
				c-0.05,0.13-0.13,0.23-0.25,0.32c-0.12,0.09-0.28,0.13-0.49,0.13c-0.13,0-0.26-0.05-0.39-0.15c-0.13-0.1-0.21-0.22-0.23-0.36
				c-0.11,0.03-0.23,0.15-0.34,0.34c-0.11,0.19-0.18,0.36-0.2,0.51c0.25,0.22,0.44,0.47,0.57,0.75c0.13,0.29,0.2,0.59,0.2,0.92
				c0,0.5-0.14,0.95-0.42,1.33c-0.28,0.39-0.65,0.69-1.09,0.91c-0.45,0.22-0.93,0.33-1.44,0.33c-0.11,0-0.24-0.01-0.38-0.02
				c-0.14-0.01-0.27-0.02-0.4-0.02c-0.19,0-0.35,0.03-0.48,0.1c-0.13,0.07-0.2,0.16-0.2,0.29c0,0.17,0.13,0.28,0.38,0.34
				c0.25,0.06,0.68,0.11,1.29,0.14c0.67,0.03,1.25,0.12,1.75,0.25c0.5,0.13,0.89,0.34,1.17,0.63c0.28,0.29,0.42,0.68,0.42,1.18
				c0,0.37-0.11,0.7-0.33,0.98c-0.22,0.28-0.51,0.52-0.87,0.72c-0.36,0.2-0.76,0.34-1.19,0.44C108.1,44.95,107.66,45,107.23,45z
				 M107.61,44.1c0.62,0,1.08-0.11,1.4-0.34c0.32-0.23,0.48-0.46,0.48-0.7c0-0.18-0.07-0.33-0.21-0.45
				c-0.14-0.12-0.34-0.21-0.62-0.28c-0.27-0.07-0.62-0.11-1.05-0.13c-0.19-0.02-0.41-0.03-0.66-0.04c-0.25-0.01-0.47-0.03-0.66-0.07
				c-0.13,0.1-0.23,0.23-0.3,0.39c-0.07,0.16-0.11,0.31-0.12,0.46c-0.02,0.35,0.13,0.63,0.45,0.84
				C106.63,44,107.06,44.1,107.61,44.1z M107.43,38.93c0.23,0,0.43-0.07,0.59-0.22c0.16-0.15,0.28-0.33,0.36-0.56
				c0.08-0.23,0.12-0.46,0.12-0.69c0-0.3-0.04-0.6-0.12-0.88c-0.08-0.28-0.2-0.51-0.36-0.69c-0.16-0.18-0.37-0.27-0.62-0.27
				c-0.35,0-0.62,0.16-0.81,0.47c-0.19,0.31-0.29,0.67-0.29,1.07c0,0.3,0.04,0.59,0.13,0.87c0.09,0.27,0.21,0.49,0.38,0.66
				C106.99,38.85,107.19,38.93,107.43,38.93z"/>
			<path d="M112.19,40.63c0.24,0,0.42-0.05,0.52-0.14c0.1-0.1,0.17-0.23,0.2-0.41c0.03-0.18,0.05-0.38,0.05-0.61v-2.16
				c0-0.16,0-0.34,0.01-0.54c0.01-0.2,0.02-0.4,0.04-0.59c-0.14,0.01-0.3,0.02-0.49,0.02c-0.19,0-0.33,0.01-0.42,0.02v-0.99
				c0.4,0,0.74-0.02,1.02-0.07c0.28-0.04,0.5-0.1,0.66-0.16c0.16-0.06,0.27-0.12,0.33-0.17h0.7v4.54c0,0.12,0,0.29-0.01,0.51
				c-0.01,0.22-0.02,0.43-0.04,0.63c0.14-0.02,0.29-0.03,0.46-0.03c0.17,0,0.3-0.01,0.38-0.01v0.99h-3.41V40.63z M113.82,33.81
				c-0.3,0-0.54-0.1-0.73-0.31c-0.19-0.21-0.29-0.46-0.29-0.75c0-0.29,0.1-0.55,0.3-0.75c0.2-0.21,0.43-0.31,0.7-0.31
				c0.28,0,0.51,0.1,0.7,0.31c0.19,0.21,0.28,0.46,0.28,0.75c0,0.3-0.09,0.55-0.26,0.75S114.11,33.81,113.82,33.81z"/>
			<path d="M116.71,41.47v-0.85c0.24,0,0.42-0.05,0.52-0.14c0.1-0.1,0.17-0.23,0.2-0.41c0.03-0.18,0.05-0.38,0.05-0.61v-2.19
				c0-0.16,0-0.33,0.01-0.53c0.01-0.2,0.02-0.39,0.04-0.58c-0.14,0.01-0.3,0.02-0.49,0.02c-0.19,0-0.33,0.01-0.42,0.02v-0.99
				c0.4,0,0.74-0.02,1.02-0.07c0.28-0.04,0.5-0.1,0.66-0.16c0.16-0.06,0.27-0.12,0.33-0.17h0.64c0.02,0.11,0.03,0.2,0.03,0.25
				c0,0.05,0,0.1,0.01,0.15c0,0.05,0.02,0.13,0.05,0.25c0.17-0.14,0.37-0.26,0.6-0.37c0.23-0.11,0.45-0.2,0.68-0.26
				c0.23-0.07,0.42-0.1,0.6-0.1c0.8,0,1.36,0.23,1.7,0.68c0.33,0.46,0.5,1.19,0.5,2.19v1.74c0,0.12,0,0.29-0.01,0.51
				s-0.02,0.43-0.04,0.63c0.15-0.02,0.3-0.03,0.47-0.03c0.16,0,0.29-0.01,0.38-0.01v0.99h-3.41v-0.85c0.24,0,0.42-0.05,0.53-0.14
				c0.11-0.1,0.18-0.23,0.21-0.41c0.03-0.18,0.05-0.38,0.05-0.61l-0.01-1.85c0-0.56-0.08-0.98-0.24-1.26
				c-0.16-0.27-0.43-0.41-0.81-0.41c-0.22,0-0.43,0.05-0.64,0.14c-0.21,0.1-0.39,0.21-0.54,0.34c0,0.12,0,0.25,0,0.37
				c0,0.13,0,0.25,0,0.37v2.2c0,0.12,0,0.29-0.01,0.51c-0.01,0.22-0.02,0.43-0.04,0.63c0.14-0.02,0.29-0.03,0.46-0.03
				c0.17,0,0.3-0.01,0.38-0.01v0.99H116.71z"/>
			<path d="M128.24,41.68c-0.37,0-0.74-0.05-1.09-0.14c-0.36-0.1-0.63-0.22-0.83-0.36l0.03,0.39h-0.99l-0.05-2.24h0.85
				c0.03,0.26,0.13,0.5,0.31,0.72c0.18,0.22,0.42,0.39,0.72,0.51c0.29,0.13,0.62,0.19,0.99,0.19c0.15,0,0.29-0.02,0.42-0.07
				c0.13-0.04,0.25-0.11,0.34-0.21c0.09-0.1,0.14-0.22,0.14-0.37c0-0.16-0.06-0.3-0.18-0.4c-0.12-0.1-0.29-0.2-0.51-0.3
				c-0.22-0.1-0.5-0.2-0.83-0.33c-0.27-0.1-0.54-0.21-0.81-0.33c-0.27-0.11-0.53-0.25-0.76-0.41c-0.23-0.16-0.41-0.36-0.55-0.6
				c-0.14-0.24-0.21-0.53-0.21-0.88c0-0.25,0.05-0.5,0.14-0.75c0.1-0.25,0.24-0.47,0.44-0.68c0.2-0.2,0.45-0.37,0.76-0.49
				c0.31-0.12,0.67-0.18,1.1-0.18c0.23,0,0.5,0.04,0.8,0.11c0.3,0.07,0.55,0.18,0.76,0.33v-0.38h0.99v2.3h-0.85
				c-0.05-0.3-0.16-0.56-0.32-0.78c-0.16-0.22-0.37-0.38-0.62-0.5c-0.25-0.12-0.53-0.18-0.85-0.18c-0.22,0-0.41,0.05-0.59,0.16
				c-0.18,0.1-0.27,0.28-0.27,0.53c0,0.2,0.07,0.36,0.21,0.48c0.14,0.12,0.33,0.21,0.57,0.29c0.24,0.08,0.51,0.17,0.81,0.27
				c0.44,0.15,0.84,0.32,1.18,0.52c0.34,0.2,0.61,0.44,0.81,0.72c0.2,0.28,0.3,0.63,0.3,1.03c0,0.45-0.11,0.82-0.34,1.12
				c-0.23,0.3-0.52,0.52-0.88,0.66C129.03,41.61,128.65,41.68,128.24,41.68z"/>
			<path d="M132.81,41.68c-0.28,0-0.51-0.1-0.68-0.3c-0.18-0.2-0.27-0.44-0.27-0.72c0-0.28,0.1-0.52,0.29-0.72
				c0.19-0.2,0.41-0.3,0.66-0.3c0.27,0,0.49,0.1,0.67,0.3c0.18,0.2,0.27,0.44,0.27,0.72c0,0.28-0.08,0.52-0.25,0.72
				C133.32,41.58,133.09,41.68,132.81,41.68z"/>
			<path d="M138.18,41.68c-0.58,0-1.11-0.13-1.6-0.39c-0.49-0.26-0.87-0.64-1.16-1.13c-0.29-0.49-0.44-1.09-0.44-1.8
				c0-0.49,0.08-0.96,0.25-1.39c0.16-0.43,0.4-0.82,0.7-1.15s0.66-0.59,1.07-0.78c0.41-0.19,0.87-0.29,1.37-0.29
				c0.56,0,1.02,0.08,1.39,0.25c0.37,0.17,0.65,0.39,0.83,0.66c0.19,0.27,0.28,0.56,0.28,0.87c0,0.25-0.08,0.48-0.23,0.67
				c-0.15,0.2-0.37,0.3-0.64,0.31c-0.33,0.01-0.56-0.08-0.69-0.28c-0.13-0.2-0.2-0.38-0.2-0.57c0-0.08,0.01-0.17,0.04-0.28
				c0.03-0.11,0.07-0.21,0.12-0.29c-0.06-0.13-0.15-0.23-0.27-0.29c-0.12-0.06-0.25-0.1-0.37-0.12c-0.13-0.02-0.23-0.03-0.31-0.02
				c-0.42,0.03-0.76,0.23-1.03,0.62c-0.27,0.39-0.4,0.95-0.4,1.69c0,0.43,0.05,0.84,0.16,1.22c0.11,0.38,0.29,0.69,0.54,0.93
				c0.25,0.24,0.59,0.37,1.02,0.39c0.36,0.01,0.72-0.08,1.07-0.26c0.35-0.18,0.64-0.43,0.89-0.74l0.6,0.59
				c-0.31,0.43-0.64,0.76-0.98,0.99c-0.34,0.23-0.67,0.38-1.01,0.46C138.83,41.64,138.5,41.68,138.18,41.68z"/>
			<path d="M145.3,41.68c-0.62,0-1.19-0.13-1.69-0.4c-0.5-0.27-0.9-0.65-1.19-1.15c-0.29-0.5-0.44-1.09-0.44-1.76
				c0-0.72,0.15-1.35,0.45-1.89c0.3-0.54,0.7-0.96,1.2-1.26c0.5-0.3,1.04-0.45,1.63-0.45c0.62,0,1.18,0.13,1.68,0.4
				c0.49,0.27,0.88,0.65,1.17,1.15c0.29,0.5,0.43,1.1,0.43,1.79c0,0.73-0.14,1.36-0.42,1.9c-0.28,0.54-0.66,0.95-1.15,1.24
				C146.49,41.54,145.93,41.68,145.3,41.68z M145.35,40.76c0.35-0.01,0.61-0.13,0.79-0.36c0.18-0.23,0.3-0.53,0.37-0.89
				c0.07-0.36,0.1-0.72,0.1-1.08c0-0.32-0.02-0.65-0.07-0.98c-0.05-0.33-0.12-0.63-0.23-0.9c-0.1-0.27-0.25-0.49-0.42-0.65
				c-0.18-0.16-0.4-0.24-0.66-0.23c-0.34,0.01-0.61,0.13-0.8,0.36c-0.2,0.23-0.33,0.53-0.42,0.88c-0.08,0.35-0.12,0.72-0.12,1.1
				c0,0.44,0.05,0.88,0.14,1.3c0.1,0.43,0.25,0.77,0.46,1.05C144.71,40.63,145,40.77,145.35,40.76z"/>
			<path d="M149.74,41.47v-0.85c0.24,0,0.42-0.05,0.52-0.14c0.1-0.1,0.17-0.23,0.2-0.41c0.03-0.18,0.05-0.38,0.05-0.61v-2.19
				c0-0.16,0-0.33,0.01-0.53c0.01-0.2,0.02-0.39,0.04-0.58c-0.14,0.01-0.3,0.02-0.49,0.02c-0.19,0-0.33,0.01-0.42,0.02v-0.99
				c0.4,0,0.74-0.02,1.02-0.07c0.28-0.04,0.5-0.1,0.66-0.16c0.16-0.06,0.27-0.12,0.33-0.17h0.64c0.02,0.09,0.03,0.2,0.03,0.33
				c0,0.13,0.01,0.24,0.02,0.33c0.29-0.23,0.61-0.4,0.96-0.53c0.34-0.13,0.67-0.2,0.97-0.2c0.4,0,0.73,0.07,0.99,0.21
				c0.26,0.14,0.47,0.36,0.62,0.64c0.31-0.26,0.66-0.47,1.03-0.62s0.74-0.23,1.09-0.23c0.7,0,1.23,0.2,1.59,0.61
				c0.36,0.4,0.54,1.1,0.54,2.1v1.91c0,0.12,0,0.29-0.01,0.51s-0.02,0.43-0.04,0.63c0.14-0.02,0.29-0.03,0.46-0.03
				c0.17,0,0.3-0.01,0.38-0.01v0.99h-3.29v-0.85c0.2,0,0.34-0.05,0.44-0.14c0.09-0.1,0.15-0.23,0.18-0.41
				c0.03-0.18,0.04-0.38,0.04-0.61v-1.99c-0.01-0.56-0.1-0.95-0.28-1.17c-0.18-0.22-0.41-0.33-0.71-0.34
				c-0.23-0.01-0.44,0.03-0.63,0.12c-0.2,0.09-0.37,0.19-0.53,0.31c0.04,0.17,0.07,0.36,0.09,0.57c0.02,0.21,0.03,0.43,0.03,0.66
				c0,0.3,0,0.59,0,0.87c0,0.29,0,0.58,0,0.87c0,0.12,0,0.29-0.01,0.51c-0.01,0.22-0.02,0.43-0.04,0.63
				c0.14-0.02,0.29-0.03,0.46-0.03c0.16,0,0.29-0.01,0.39-0.01v0.99h-3.36v-0.85c0.23,0,0.39-0.05,0.49-0.14
				c0.1-0.1,0.16-0.23,0.19-0.41c0.03-0.18,0.04-0.38,0.04-0.61l-0.01-2.03c0-0.56-0.08-0.95-0.25-1.16
				c-0.16-0.21-0.4-0.32-0.69-0.33c-0.22,0-0.42,0.05-0.61,0.14c-0.19,0.1-0.35,0.21-0.5,0.34c0,0.11,0,0.22,0,0.33
				c0,0.1,0,0.21,0,0.33v2.29c0,0.12,0,0.29-0.01,0.51c-0.01,0.22-0.02,0.43-0.04,0.63c0.14-0.02,0.28-0.03,0.43-0.03
				c0.15,0,0.26-0.01,0.35-0.01v0.99H149.74z"/>
		</g>
	</g>
</g>
</svg>
