<?xml version="1.0" encoding="utf-8"?>
<!-- Generator: Adobe Illustrator 27.0.0, SVG Export Plug-In . SVG Version: 6.00 Build 0)  -->
<svg version="1.1" id="Layer_1" xmlns="http://www.w3.org/2000/svg" xmlns:xlink="http://www.w3.org/1999/xlink" x="0px" y="0px"
	 width="116.21px" height="179.26px" viewBox="0 0 116.21 179.26" enable-background="new 0 0 116.21 179.26" xml:space="preserve">
<g>
	
		<radialGradient id="SVGID_1_" cx="259.325" cy="-7981.5308" r="84.5389" fx="259.7816" fy="-8039.0122" gradientTransform="matrix(0.5914 0 0 0.0329 -95.2736 439.2803)" gradientUnits="userSpaceOnUse">
		<stop  offset="0.1225" style="stop-color:#00293B"/>
		<stop  offset="0.2635" style="stop-color:#062D3F;stop-opacity:0.8393"/>
		<stop  offset="0.4467" style="stop-color:#163949;stop-opacity:0.6305"/>
		<stop  offset="0.6532" style="stop-color:#314D5A;stop-opacity:0.3952"/>
		<stop  offset="0.8752" style="stop-color:#566972;stop-opacity:0.1422"/>
		<stop  offset="1" style="stop-color:#6E7B81;stop-opacity:0"/>
	</radialGradient>
	<ellipse opacity="0.2" fill="url(#SVGID_1_)" cx="58.1" cy="176.47" rx="50" ry="2.78"/>
	<g>
		<g>
			<g>
				<path d="M23,47.61v-7.4h2.5c0.58,0,1.05,0.1,1.42,0.3s0.65,0.47,0.82,0.81c0.18,0.34,0.27,0.73,0.27,1.17s-0.09,0.82-0.27,1.16
					c-0.18,0.34-0.45,0.6-0.82,0.79s-0.84,0.29-1.41,0.29h-2.02v-0.81h2c0.4,0,0.71-0.06,0.96-0.17c0.24-0.12,0.42-0.28,0.53-0.49
					c0.11-0.21,0.16-0.47,0.16-0.76s-0.06-0.56-0.17-0.78c-0.11-0.22-0.29-0.39-0.53-0.52C26.19,41.06,25.87,41,25.47,41h-1.58v6.61
					H23z M26.48,44.28l1.82,3.33h-1.04l-1.79-3.33H26.48z"/>
				<path d="M29.81,47.61h-0.94l2.72-7.4h0.93l2.72,7.4h-0.94l-2.21-6.23h-0.06L29.81,47.61z M30.15,44.72h3.79v0.8h-3.79V44.72z"/>
				<path d="M35.11,41v-0.8h5.55V41h-2.33v6.61h-0.9V41H35.11z"/>
				<path d="M42.05,47.61v-7.4h4.47V41h-3.57v2.5h3.34v0.8h-3.34v2.52h3.63v0.79H42.05z"/>
				<path d="M50.42,47.61h-2.28v-7.4h2.39c0.72,0,1.33,0.15,1.84,0.44s0.9,0.72,1.17,1.27s0.41,1.21,0.41,1.98
					c0,0.77-0.14,1.43-0.41,1.99s-0.68,0.98-1.2,1.28C51.81,47.46,51.18,47.61,50.42,47.61z M49.04,46.81h1.33
					c0.61,0,1.12-0.12,1.52-0.36c0.4-0.24,0.7-0.57,0.9-1.01c0.2-0.44,0.3-0.96,0.3-1.56c0-0.6-0.1-1.11-0.29-1.55
					s-0.49-0.77-0.87-1C51.53,41.12,51.05,41,50.47,41h-1.43V46.81z"/>
				<path d="M58.62,47.61h-0.94l2.72-7.4h0.93l2.72,7.4H63.1l-2.21-6.23h-0.06L58.62,47.61z M58.97,44.72h3.79v0.8h-3.79V44.72z"/>
				<path d="M69.25,42.06c-0.04-0.37-0.22-0.65-0.53-0.85c-0.31-0.2-0.69-0.3-1.13-0.3c-0.33,0-0.61,0.05-0.86,0.16
					s-0.44,0.25-0.57,0.44s-0.2,0.4-0.2,0.63c0,0.2,0.05,0.37,0.14,0.51c0.09,0.14,0.22,0.26,0.37,0.35
					c0.15,0.09,0.31,0.17,0.47,0.23c0.16,0.06,0.31,0.11,0.45,0.14l0.75,0.2c0.19,0.05,0.41,0.12,0.65,0.21s0.47,0.21,0.68,0.36
					c0.22,0.15,0.4,0.35,0.54,0.59s0.21,0.53,0.21,0.88c0,0.4-0.1,0.76-0.31,1.08c-0.21,0.32-0.51,0.58-0.91,0.77
					c-0.4,0.19-0.88,0.29-1.45,0.29c-0.53,0-0.99-0.09-1.38-0.26c-0.39-0.17-0.69-0.41-0.91-0.72c-0.22-0.31-0.35-0.66-0.37-1.07
					h0.93c0.02,0.28,0.12,0.51,0.28,0.69c0.16,0.18,0.37,0.32,0.63,0.4c0.25,0.09,0.53,0.13,0.82,0.13c0.34,0,0.65-0.06,0.92-0.17
					c0.27-0.11,0.49-0.27,0.65-0.47c0.16-0.2,0.24-0.44,0.24-0.71c0-0.25-0.07-0.45-0.21-0.6c-0.14-0.15-0.32-0.28-0.54-0.38
					s-0.47-0.18-0.73-0.25l-0.91-0.26c-0.58-0.17-1.04-0.4-1.37-0.71c-0.34-0.31-0.51-0.71-0.51-1.21c0-0.41,0.11-0.78,0.34-1.09
					c0.23-0.31,0.53-0.55,0.91-0.72c0.38-0.17,0.81-0.26,1.28-0.26c0.48,0,0.9,0.08,1.27,0.25c0.37,0.17,0.67,0.4,0.88,0.7
					c0.22,0.29,0.33,0.63,0.34,1H69.25z"/>
				<path d="M74.15,41v-0.8h5.55V41h-2.33v6.61h-0.9V41H74.15z"/>
				<path d="M87.03,43.91c0,0.78-0.14,1.46-0.42,2.02s-0.67,1.01-1.16,1.32c-0.49,0.31-1.05,0.46-1.68,0.46
					c-0.63,0-1.19-0.15-1.68-0.46s-0.88-0.75-1.16-1.32s-0.42-1.24-0.42-2.02c0-0.78,0.14-1.46,0.42-2.03
					c0.28-0.57,0.67-1.01,1.16-1.31c0.49-0.31,1.05-0.46,1.68-0.46c0.63,0,1.19,0.15,1.68,0.46c0.49,0.31,0.88,0.75,1.16,1.31
					C86.89,42.45,87.03,43.13,87.03,43.91z M86.17,43.91c0-0.64-0.11-1.18-0.32-1.62c-0.21-0.44-0.5-0.78-0.86-1
					c-0.36-0.23-0.77-0.34-1.22-0.34c-0.45,0-0.85,0.11-1.22,0.34c-0.36,0.23-0.65,0.56-0.86,1c-0.21,0.44-0.32,0.98-0.32,1.62
					s0.11,1.18,0.32,1.62c0.21,0.44,0.5,0.78,0.86,1c0.36,0.23,0.77,0.34,1.22,0.34c0.45,0,0.85-0.11,1.22-0.34
					c0.36-0.23,0.65-0.56,0.86-1C86.06,45.09,86.17,44.55,86.17,43.91z"/>
				<path d="M88.54,47.61v-7.4h2.5c0.58,0,1.06,0.1,1.43,0.31c0.37,0.21,0.64,0.49,0.82,0.84s0.27,0.75,0.27,1.19
					c0,0.44-0.09,0.83-0.27,1.19c-0.18,0.36-0.45,0.64-0.82,0.85s-0.84,0.32-1.42,0.32h-1.79v-0.79h1.76c0.4,0,0.72-0.07,0.96-0.21
					c0.24-0.14,0.42-0.32,0.53-0.56c0.11-0.23,0.16-0.5,0.16-0.8c0-0.3-0.05-0.56-0.16-0.79c-0.11-0.23-0.29-0.42-0.53-0.55
					c-0.24-0.13-0.57-0.2-0.97-0.2h-1.58v6.61H88.54z"/>
			</g>
			<g>
				<path d="M9.56,61.78L7.05,52.9h1.73l1.6,6.53h0.08l1.71-6.53h1.57l1.71,6.53h0.08l1.6-6.53h1.73l-2.51,8.88h-1.59L13,55.55
					h-0.07l-1.78,6.23H9.56z"/>
				<path d="M19.99,61.78V52.9h5.78v1.35H21.6v2.41h3.87v1.35H21.6v2.42h4.2v1.35H19.99z"/>
				<path d="M27.41,61.78V52.9h3.4c0.64,0,1.18,0.1,1.6,0.3c0.43,0.2,0.75,0.47,0.96,0.82s0.32,0.74,0.32,1.18
					c0,0.36-0.07,0.67-0.21,0.93c-0.14,0.26-0.33,0.46-0.56,0.62c-0.23,0.16-0.5,0.27-0.78,0.34v0.09c0.31,0.02,0.62,0.11,0.91,0.29
					s0.53,0.42,0.71,0.74s0.28,0.7,0.28,1.15c0,0.46-0.11,0.87-0.33,1.24c-0.22,0.36-0.56,0.65-1.01,0.87
					c-0.45,0.21-1.01,0.32-1.69,0.32H27.41z M29.02,56.67h1.59c0.28,0,0.53-0.05,0.75-0.16c0.22-0.1,0.4-0.25,0.53-0.44
					c0.13-0.19,0.19-0.42,0.19-0.68c0-0.34-0.12-0.63-0.36-0.85c-0.24-0.22-0.6-0.33-1.07-0.33h-1.63V56.67z M29.02,60.43h1.73
					c0.58,0,1.01-0.11,1.26-0.34c0.26-0.22,0.39-0.51,0.39-0.87c0-0.26-0.07-0.5-0.2-0.71c-0.13-0.21-0.32-0.38-0.56-0.5
					c-0.24-0.12-0.53-0.18-0.86-0.18h-1.77V60.43z"/>
				<path d="M41.48,61.78h-3.01V52.9h3.07c0.88,0,1.64,0.18,2.28,0.53s1.12,0.86,1.46,1.52c0.34,0.66,0.51,1.46,0.51,2.38
					c0,0.93-0.17,1.72-0.51,2.39c-0.34,0.66-0.84,1.18-1.48,1.53C43.16,61.6,42.38,61.78,41.48,61.78z M40.08,60.39h1.32
					c0.62,0,1.13-0.11,1.55-0.34c0.41-0.23,0.72-0.57,0.93-1.02c0.21-0.45,0.31-1.02,0.31-1.7c0-0.68-0.1-1.24-0.31-1.69
					c-0.21-0.45-0.52-0.79-0.92-1.01c-0.41-0.22-0.91-0.34-1.51-0.34h-1.37V60.39z"/>
				<path d="M47.32,61.78V52.9h5.78v1.35h-4.17v2.41h3.87v1.35h-3.87v2.42h4.2v1.35H47.32z"/>
				<path d="M55.93,52.9l2.31,6.99h0.09l2.31-6.99h1.77l-3.13,8.88h-1.99l-3.13-8.88H55.93z"/>
				<path d="M63.58,61.78V52.9h5.78v1.35h-4.17v2.41h3.87v1.35h-3.87v2.42h4.2v1.35H63.58z"/>
				<path d="M71,61.78V52.9h1.61v7.53h3.91v1.35H71z"/>
				<path d="M85.51,57.34c0,0.96-0.18,1.78-0.54,2.46c-0.36,0.68-0.84,1.2-1.46,1.56c-0.61,0.36-1.31,0.54-2.09,0.54
					c-0.78,0-1.47-0.18-2.09-0.54c-0.61-0.36-1.1-0.89-1.46-1.57s-0.54-1.5-0.54-2.45c0-0.96,0.18-1.78,0.54-2.46
					s0.84-1.2,1.46-1.56c0.61-0.36,1.31-0.54,2.09-0.54c0.78,0,1.47,0.18,2.09,0.54c0.61,0.36,1.1,0.88,1.46,1.56
					C85.33,55.56,85.51,56.38,85.51,57.34z M83.89,57.34c0-0.67-0.1-1.24-0.31-1.71s-0.5-0.82-0.87-1.05
					c-0.37-0.24-0.8-0.36-1.28-0.36c-0.48,0-0.91,0.12-1.28,0.36c-0.37,0.24-0.66,0.59-0.87,1.05c-0.21,0.46-0.31,1.03-0.31,1.71
					s0.1,1.24,0.31,1.71c0.21,0.46,0.5,0.82,0.87,1.05s0.8,0.36,1.28,0.36c0.48,0,0.91-0.12,1.28-0.36
					c0.37-0.24,0.66-0.59,0.87-1.05C83.79,58.58,83.89,58.01,83.89,57.34z"/>
				<path d="M87.04,61.78V52.9h3.33c0.68,0,1.26,0.13,1.72,0.38c0.46,0.26,0.82,0.6,1.05,1.05c0.24,0.44,0.36,0.95,0.36,1.51
					c0,0.57-0.12,1.08-0.36,1.52c-0.24,0.44-0.59,0.79-1.06,1.04c-0.47,0.25-1.05,0.38-1.73,0.38h-2.21v-1.32h1.99
					c0.4,0,0.73-0.07,0.98-0.21c0.25-0.14,0.44-0.33,0.57-0.57c0.12-0.24,0.18-0.52,0.18-0.84S91.8,55.24,91.67,55
					c-0.12-0.24-0.31-0.43-0.57-0.56c-0.26-0.13-0.58-0.2-0.99-0.2h-1.48v7.54H87.04z"/>
				<path d="M94.9,61.78V52.9h5.78v1.35H96.5v2.41h3.87v1.35H96.5v2.42h4.2v1.35H94.9z"/>
				<path d="M102.32,61.78V52.9h3.33c0.68,0,1.26,0.12,1.72,0.36c0.46,0.24,0.82,0.57,1.05,0.99c0.24,0.43,0.36,0.92,0.36,1.49
					c0,0.57-0.12,1.06-0.36,1.48c-0.24,0.42-0.6,0.74-1.06,0.97c-0.47,0.23-1.04,0.34-1.73,0.34h-2.37v-1.34h2.16
					c0.4,0,0.73-0.05,0.98-0.17c0.25-0.11,0.44-0.27,0.57-0.49c0.12-0.21,0.18-0.48,0.18-0.8s-0.06-0.58-0.19-0.81
					c-0.12-0.22-0.31-0.39-0.57-0.51s-0.58-0.18-0.98-0.18h-1.48v7.54H102.32z M106.91,57.75l2.2,4.03h-1.8l-2.16-4.03H106.91z"/>
			</g>
		</g>
		<g>
			<g>
				<g>
					<path d="M43.31,160.97c-0.04-0.14-0.1-0.26-0.18-0.37s-0.16-0.2-0.26-0.28c-0.1-0.08-0.21-0.14-0.34-0.18
						c-0.13-0.04-0.26-0.06-0.41-0.06c-0.25,0-0.47,0.06-0.67,0.19c-0.2,0.13-0.36,0.31-0.48,0.56c-0.12,0.25-0.18,0.55-0.18,0.91
						c0,0.36,0.06,0.66,0.18,0.91c0.12,0.25,0.28,0.43,0.49,0.56s0.44,0.19,0.69,0.19c0.24,0,0.45-0.05,0.63-0.15
						c0.18-0.1,0.32-0.25,0.42-0.43c0.1-0.19,0.15-0.41,0.15-0.66l0.15,0.03h-1.25v-0.44h1.58v0.44c0,0.34-0.07,0.64-0.22,0.89
						c-0.14,0.25-0.34,0.45-0.6,0.59c-0.25,0.14-0.55,0.21-0.88,0.21c-0.37,0-0.69-0.09-0.97-0.26c-0.28-0.17-0.49-0.42-0.65-0.74
						s-0.23-0.7-0.23-1.13c0-0.33,0.04-0.62,0.13-0.89c0.09-0.26,0.21-0.49,0.38-0.67c0.16-0.18,0.35-0.33,0.57-0.42
						c0.22-0.1,0.47-0.15,0.73-0.15c0.22,0,0.42,0.03,0.61,0.1s0.36,0.16,0.51,0.28c0.15,0.12,0.27,0.26,0.37,0.43
						c0.1,0.17,0.17,0.35,0.21,0.55H43.31z"/>
					<path d="M45.91,163.88c-0.28,0-0.53-0.07-0.74-0.2c-0.21-0.13-0.38-0.32-0.49-0.56c-0.12-0.24-0.18-0.52-0.18-0.84
						c0-0.32,0.06-0.61,0.18-0.85c0.12-0.24,0.28-0.43,0.49-0.56c0.21-0.13,0.46-0.2,0.74-0.2s0.53,0.07,0.74,0.2
						c0.21,0.13,0.38,0.32,0.49,0.56c0.12,0.24,0.18,0.52,0.18,0.85c0,0.32-0.06,0.6-0.18,0.84c-0.12,0.24-0.28,0.43-0.49,0.56
						C46.44,163.81,46.19,163.88,45.91,163.88z M45.91,163.45c0.21,0,0.39-0.05,0.53-0.16c0.14-0.11,0.24-0.25,0.31-0.43
						s0.1-0.37,0.1-0.58c0-0.21-0.03-0.4-0.1-0.58s-0.17-0.32-0.31-0.43c-0.14-0.11-0.31-0.17-0.53-0.17
						c-0.21,0-0.39,0.05-0.53,0.17c-0.14,0.11-0.24,0.26-0.31,0.43s-0.1,0.37-0.1,0.58c0,0.21,0.03,0.4,0.1,0.58
						s0.17,0.32,0.31,0.43C45.52,163.4,45.7,163.45,45.91,163.45z"/>
					<path d="M49.31,163.88c-0.28,0-0.53-0.07-0.74-0.2c-0.21-0.13-0.38-0.32-0.49-0.56c-0.12-0.24-0.18-0.52-0.18-0.84
						c0-0.32,0.06-0.61,0.18-0.85c0.12-0.24,0.28-0.43,0.49-0.56c0.21-0.13,0.46-0.2,0.74-0.2s0.53,0.07,0.74,0.2
						c0.21,0.13,0.38,0.32,0.49,0.56c0.12,0.24,0.18,0.52,0.18,0.85c0,0.32-0.06,0.6-0.18,0.84c-0.12,0.24-0.28,0.43-0.49,0.56
						C49.84,163.81,49.59,163.88,49.31,163.88z M49.31,163.45c0.21,0,0.39-0.05,0.53-0.16c0.14-0.11,0.24-0.25,0.31-0.43
						s0.1-0.37,0.1-0.58c0-0.21-0.03-0.4-0.1-0.58s-0.17-0.32-0.31-0.43c-0.14-0.11-0.31-0.17-0.53-0.17
						c-0.21,0-0.39,0.05-0.53,0.17c-0.14,0.11-0.24,0.26-0.31,0.43s-0.1,0.37-0.1,0.58c0,0.21,0.03,0.4,0.1,0.58
						s0.17,0.32,0.31,0.43C48.92,163.4,49.1,163.45,49.31,163.45z"/>
					<path d="M52.62,163.88c-0.26,0-0.49-0.07-0.69-0.2c-0.2-0.13-0.35-0.32-0.47-0.56c-0.11-0.24-0.17-0.53-0.17-0.86
						c0-0.33,0.06-0.61,0.17-0.85s0.27-0.43,0.47-0.56c0.2-0.13,0.43-0.2,0.69-0.2c0.2,0,0.36,0.03,0.48,0.1
						c0.12,0.07,0.21,0.14,0.27,0.23s0.11,0.15,0.15,0.21h0.04v-1.53h0.48v4.15h-0.46v-0.48h-0.06c-0.04,0.06-0.09,0.13-0.15,0.21
						c-0.06,0.09-0.16,0.16-0.28,0.23S52.82,163.88,52.62,163.88z M52.69,163.45c0.19,0,0.35-0.05,0.49-0.15s0.23-0.24,0.3-0.42
						c0.07-0.18,0.1-0.39,0.1-0.62c0-0.23-0.03-0.44-0.1-0.61c-0.07-0.17-0.17-0.31-0.3-0.41c-0.13-0.1-0.3-0.15-0.49-0.15
						c-0.2,0-0.37,0.05-0.51,0.16c-0.13,0.1-0.23,0.24-0.3,0.42c-0.07,0.18-0.1,0.37-0.1,0.59c0,0.22,0.03,0.42,0.1,0.6
						c0.07,0.18,0.17,0.32,0.3,0.43S52.49,163.45,52.69,163.45z"/>
					<path d="M56.37,160.71v0.41H54.7v-0.41H56.37z M55.2,163.82v-3.54c0-0.18,0.04-0.33,0.13-0.45c0.08-0.12,0.19-0.21,0.33-0.27
						c0.13-0.06,0.27-0.09,0.42-0.09c0.12,0,0.21,0.01,0.29,0.03c0.07,0.02,0.13,0.04,0.17,0.05l-0.14,0.41
						c-0.02-0.01-0.06-0.02-0.1-0.03s-0.1-0.02-0.17-0.02c-0.16,0-0.27,0.04-0.34,0.12c-0.07,0.08-0.1,0.2-0.1,0.35v3.43H55.2z"/>
					<path d="M57.29,160.19c-0.09,0-0.17-0.03-0.24-0.1c-0.07-0.06-0.1-0.14-0.1-0.23s0.03-0.16,0.1-0.23
						c0.07-0.06,0.15-0.1,0.24-0.1c0.09,0,0.17,0.03,0.24,0.1c0.07,0.06,0.1,0.14,0.1,0.23s-0.03,0.17-0.1,0.23
						C57.46,160.16,57.38,160.19,57.29,160.19z M57.04,163.82v-3.11h0.48v3.11H57.04z"/>
					<path d="M58.4,163.82v-3.11h0.46v0.47h0.03c0.06-0.15,0.16-0.28,0.31-0.37c0.15-0.1,0.32-0.14,0.5-0.14c0.03,0,0.08,0,0.13,0
						c0.05,0,0.09,0,0.12,0.01v0.49c-0.02,0-0.05-0.01-0.11-0.02c-0.06-0.01-0.12-0.01-0.18-0.01c-0.15,0-0.29,0.03-0.4,0.09
						c-0.12,0.06-0.21,0.15-0.28,0.26s-0.1,0.24-0.1,0.38v1.97H58.4z"/>
					<path d="M60.52,163.82v-3.11h0.46v0.49h0.04c0.06-0.17,0.17-0.3,0.31-0.39c0.14-0.09,0.32-0.14,0.52-0.14
						c0.21,0,0.38,0.05,0.51,0.14c0.14,0.09,0.24,0.22,0.32,0.39h0.03c0.08-0.16,0.2-0.29,0.36-0.38s0.35-0.14,0.57-0.14
						c0.28,0,0.51,0.09,0.68,0.26c0.18,0.17,0.26,0.44,0.26,0.81v2.08h-0.48v-2.08c0-0.23-0.06-0.39-0.19-0.49s-0.27-0.15-0.44-0.15
						c-0.22,0-0.39,0.07-0.51,0.2c-0.12,0.13-0.18,0.3-0.18,0.5v2.03h-0.49v-2.13c0-0.18-0.06-0.32-0.17-0.43s-0.26-0.16-0.44-0.16
						c-0.12,0-0.24,0.03-0.35,0.1s-0.19,0.16-0.26,0.27c-0.07,0.12-0.1,0.25-0.1,0.4v1.94H60.52z"/>
					<path d="M67.68,161.4l-0.43,0.12c-0.03-0.07-0.07-0.14-0.12-0.21c-0.05-0.07-0.12-0.12-0.21-0.17
						c-0.09-0.04-0.2-0.07-0.34-0.07c-0.19,0-0.35,0.04-0.47,0.13c-0.13,0.09-0.19,0.2-0.19,0.33c0,0.12,0.04,0.21,0.13,0.28
						c0.09,0.07,0.22,0.13,0.41,0.17l0.46,0.11c0.28,0.07,0.49,0.17,0.62,0.31c0.14,0.14,0.2,0.32,0.2,0.53
						c0,0.18-0.05,0.34-0.15,0.48s-0.24,0.25-0.43,0.33c-0.18,0.08-0.39,0.12-0.64,0.12c-0.32,0-0.58-0.07-0.79-0.21
						c-0.21-0.14-0.34-0.34-0.39-0.6l0.45-0.11c0.04,0.17,0.13,0.29,0.25,0.38c0.12,0.08,0.28,0.13,0.47,0.13
						c0.22,0,0.4-0.05,0.53-0.14c0.13-0.1,0.2-0.21,0.2-0.34c0-0.11-0.04-0.2-0.11-0.27c-0.08-0.07-0.19-0.13-0.35-0.16l-0.52-0.12
						c-0.29-0.07-0.49-0.17-0.63-0.31c-0.13-0.14-0.2-0.32-0.2-0.53c0-0.18,0.05-0.33,0.15-0.47c0.1-0.13,0.23-0.24,0.41-0.32
						s0.37-0.12,0.59-0.12c0.31,0,0.55,0.07,0.73,0.2C67.48,161,67.6,161.18,67.68,161.4z"/>
					<path d="M68.8,163.85c-0.1,0-0.19-0.04-0.26-0.11c-0.07-0.07-0.11-0.16-0.11-0.26s0.04-0.19,0.11-0.26
						c0.07-0.07,0.16-0.11,0.26-0.11s0.19,0.04,0.26,0.11c0.07,0.07,0.11,0.16,0.11,0.26c0,0.07-0.02,0.13-0.05,0.18
						c-0.03,0.06-0.08,0.1-0.13,0.13C68.93,163.83,68.87,163.85,68.8,163.85z"/>
					<path d="M71.29,163.88c-0.29,0-0.54-0.07-0.75-0.21s-0.37-0.33-0.49-0.57c-0.11-0.24-0.17-0.52-0.17-0.83
						c0-0.31,0.06-0.59,0.18-0.84c0.12-0.24,0.28-0.43,0.49-0.57c0.21-0.14,0.46-0.21,0.74-0.21c0.22,0,0.42,0.04,0.59,0.12
						c0.18,0.08,0.32,0.19,0.43,0.34c0.11,0.15,0.18,0.32,0.21,0.51h-0.48c-0.04-0.14-0.12-0.27-0.24-0.38
						c-0.13-0.11-0.29-0.16-0.5-0.16c-0.19,0-0.35,0.05-0.49,0.14c-0.14,0.1-0.25,0.23-0.33,0.41s-0.12,0.38-0.12,0.61
						c0,0.24,0.04,0.45,0.11,0.63s0.18,0.32,0.32,0.42c0.14,0.1,0.3,0.15,0.49,0.15c0.12,0,0.24-0.02,0.34-0.06
						c0.1-0.04,0.19-0.1,0.26-0.19c0.07-0.08,0.12-0.18,0.15-0.29h0.48c-0.03,0.18-0.09,0.35-0.2,0.49
						c-0.11,0.15-0.25,0.26-0.42,0.35S71.52,163.88,71.29,163.88z"/>
					<path d="M74.47,163.88c-0.28,0-0.53-0.07-0.74-0.2c-0.21-0.13-0.38-0.32-0.49-0.56c-0.12-0.24-0.18-0.52-0.18-0.84
						c0-0.32,0.06-0.61,0.18-0.85c0.12-0.24,0.28-0.43,0.49-0.56c0.21-0.13,0.46-0.2,0.74-0.2s0.53,0.07,0.74,0.2
						c0.21,0.13,0.38,0.32,0.49,0.56c0.12,0.24,0.18,0.52,0.18,0.85c0,0.32-0.06,0.6-0.18,0.84c-0.12,0.24-0.28,0.43-0.49,0.56
						C75,163.81,74.75,163.88,74.47,163.88z M74.47,163.45c0.21,0,0.39-0.05,0.53-0.16c0.14-0.11,0.24-0.25,0.31-0.43
						s0.1-0.37,0.1-0.58c0-0.21-0.03-0.4-0.1-0.58s-0.17-0.32-0.31-0.43c-0.14-0.11-0.31-0.17-0.53-0.17
						c-0.21,0-0.39,0.05-0.53,0.17c-0.14,0.11-0.24,0.26-0.31,0.43s-0.1,0.37-0.1,0.58c0,0.21,0.03,0.4,0.1,0.58
						s0.17,0.32,0.31,0.43C74.08,163.4,74.26,163.45,74.47,163.45z"/>
				</g>
			</g>
			<path fill="#59A0F8" d="M32.61,123.09l-0.54,0.35c-0.45,0.28-0.87,0.49-1.27,0.66c-0.57,0.23-1.08,0.35-1.54,0.35
				c-1.57,0-2.87-0.48-3.92-1.45c-1.05-0.97-1.57-2.18-1.57-3.65c0-1.42,0.47-2.64,1.41-3.69c0.95-1.04,2.09-1.55,3.44-1.55
				c0.56,0,1.16,0.1,1.79,0.3c0.81,0.26,1.47,0.64,1.99,1.14l-0.9,1c-0.38-0.37-0.88-0.65-1.47-0.82c-0.44-0.13-0.91-0.19-1.44-0.19
				c-0.95,0-1.75,0.38-2.38,1.14c-0.63,0.77-0.96,1.67-0.96,2.74c0,1.05,0.36,1.92,1.09,2.61c0.73,0.69,1.65,1.04,2.78,1.04
				c0.47,0,0.95-0.15,1.43-0.44l0.62-0.47v-2.18h-3.04l0.44-1.36h4.03L32.61,123.09z M41.78,120.42c0,1.05-0.37,1.97-1.12,2.74
				s-1.67,1.16-2.78,1.16c-1.02,0-1.91-0.38-2.68-1.14s-1.14-1.67-1.14-2.75c0-1.06,0.36-1.98,1.09-2.77
				c0.68-0.76,1.65-1.19,2.67-1.17c1.16,0,2.11,0.37,2.85,1.13C41.41,118.36,41.78,119.3,41.78,120.42L41.78,120.42z M40.36,120.45
				c0-0.71-0.24-1.32-0.72-1.81c-0.48-0.5-1.07-0.75-1.78-0.75c-0.67,0-1.23,0.26-1.69,0.77s-0.7,1.1-0.7,1.76
				c0,0.69,0.24,1.28,0.71,1.77c0.45,0.49,1.09,0.76,1.76,0.75c0.66,0,1.22-0.25,1.7-0.74C40.11,121.73,40.37,121.1,40.36,120.45
				L40.36,120.45z M50.83,120.42c0,1.05-0.37,1.97-1.12,2.74c-0.75,0.77-1.67,1.16-2.78,1.16c-1.02,0-1.91-0.38-2.68-1.14
				c-0.75-0.72-1.16-1.71-1.14-2.75c0-1.06,0.36-1.98,1.09-2.77c0.68-0.76,1.65-1.19,2.67-1.17c1.16,0,2.11,0.37,2.85,1.13
				C50.46,118.36,50.83,119.3,50.83,120.42L50.83,120.42z M49.4,120.45c0-0.71-0.24-1.32-0.72-1.81c-0.48-0.5-1.07-0.75-1.78-0.75
				c-0.67,0-1.23,0.26-1.69,0.77s-0.7,1.1-0.7,1.76c0,0.69,0.24,1.28,0.71,1.77c0.47,0.49,1.05,0.75,1.76,0.75
				c0.65,0,1.22-0.25,1.69-0.74C49.15,121.73,49.41,121.1,49.4,120.45L49.4,120.45z M59.2,124.11l-1.31,0.2v-1.27l-0.28,0.32
				c-0.25,0.23-0.53,0.43-0.83,0.58c-0.45,0.21-0.93,0.31-1.42,0.31c-0.99,0.02-1.94-0.4-2.6-1.13c-0.71-0.76-1.06-1.65-1.06-2.69
				c0-1.08,0.35-2,1.05-2.77c0.7-0.77,1.55-1.15,2.57-1.15c0.58,0,1.09,0.1,1.52,0.29c0.29,0.13,0.56,0.32,0.78,0.54l0.22,0.3v-3.32
				l1.39-0.2L59.2,124.11z M57.97,120.52c0-0.75-0.25-1.37-0.76-1.88c-0.51-0.52-1.08-0.78-1.74-0.78c-0.73,0-1.31,0.25-1.76,0.74
				c-0.42,0.47-0.63,1.04-0.63,1.71c0,0.76,0.22,1.38,0.65,1.87c0.44,0.49,0.99,0.74,1.66,0.74c0.67,0,1.25-0.22,1.77-0.68
				C57.7,121.77,57.97,121.19,57.97,120.52L57.97,120.52z M66.55,115.7h-3.9v2.65h3.02v1.36h-3.02v4.39l-1.52,0.22v-10h5.11
				L66.55,115.7z M69.68,114.92l-0.94,1.18l-0.89-1.18l0.95-1.17L69.68,114.92z M69.4,124.11l-1.39,0.19v-7.4l1.39-0.21V124.11
				L69.4,124.11z M75.69,116.61l-0.65,1.51c-0.09-0.01-0.17-0.02-0.26-0.02c-0.14,0-0.27,0.01-0.41,0.03
				c-0.14,0.02-0.28,0.07-0.44,0.15c-0.29,0.13-0.54,0.4-0.76,0.82c-0.24,0.47-0.37,0.99-0.36,1.52v3.47l-1.39,0.22v-7.42l1.29-0.23
				v1.54l0.51-0.81c0.24-0.28,0.52-0.48,0.83-0.6c0.17-0.06,0.47-0.12,0.93-0.16L75.69,116.61z M86.06,124.11l-1.39,0.2v-5.08
				c0-0.47-0.1-0.81-0.31-1.02s-0.52-0.32-0.93-0.32c-0.49,0-0.86,0.2-1.11,0.61c-0.17,0.28-0.26,0.57-0.26,0.87v4.73l-1.39,0.26
				v-5.09c0-0.45-0.1-0.79-0.3-1.02c-0.21-0.23-0.48-0.35-0.83-0.35H79.4c-0.49,0-0.84,0.2-1.06,0.62c-0.17,0.31-0.25,0.7-0.25,1.18
				v4.41l-1.44,0.26v-7.45l1.3-0.22v0.95c0.15-0.22,0.29-0.41,0.43-0.53c0.35-0.34,0.81-0.53,1.3-0.52c0.55,0,0.96,0.09,1.24,0.27
				c0.24,0.15,0.47,0.45,0.7,0.87c0.48-0.76,1.15-1.14,2.05-1.14c0.85,0,1.49,0.27,1.9,0.81c0.34,0.45,0.51,1.11,0.51,1.97V124.11z
				 M92.43,121.86c0,0.68-0.24,1.25-0.72,1.68c-0.48,0.45-1.08,0.66-1.81,0.66c-0.52,0.01-1.03-0.13-1.49-0.38
				c-0.45-0.26-0.78-0.54-1-0.88l0.98-0.87c0.07,0.11,0.14,0.19,0.2,0.26c0.36,0.37,0.8,0.56,1.31,0.56c0.35,0,0.63-0.1,0.83-0.28
				c0.21-0.18,0.3-0.44,0.3-0.77c0-0.37-0.24-0.63-0.72-0.77l-1.53-0.48c-0.44-0.22-0.75-0.46-0.95-0.72
				c-0.22-0.31-0.33-0.71-0.33-1.24c-0.01-0.61,0.25-1.19,0.71-1.6c0.47-0.43,1.03-0.63,1.67-0.63c0.49,0,0.95,0.11,1.36,0.33
				s0.72,0.46,0.89,0.74l-0.83,0.9c-0.12-0.13-0.26-0.24-0.41-0.34c-0.33-0.23-0.65-0.35-0.96-0.35c-0.29,0-0.53,0.06-0.72,0.19
				c-0.22,0.16-0.33,0.39-0.33,0.7c0,0.3,0.1,0.52,0.32,0.66c0.19,0.12,0.58,0.25,1.21,0.38c0.62,0.15,1.1,0.41,1.44,0.77
				C92.26,120.78,92.43,121.25,92.43,121.86z"/>
			<path fill="#59A0F8" d="M56.11,93.97c0,0-1.24-0.12-1.24,0.98v4.92h8.21v1.48c0,0,0.02,0.74-0.75,0.74h-7.46v6.39h8.95
				c0,0,5.42-0.84,5.47-6.39v-8.11H56.11z M69.04,86.1L69.04,86.1H52.88c-5.84,1.38-5.97,6.17-5.97,6.17v16.21h6.22V93.72
				c0-1.25,1.24-1.48,1.24-1.48h14.67V86.1z"/>
			<path fill="#59A0F8" d="M58.1,175c-28.59,0-51.86-23.26-51.86-51.86c0-28.59,23.26-51.86,51.86-51.86
				c28.59,0,51.86,23.26,51.86,51.86C109.96,151.74,86.7,175,58.1,175z M58.1,72.91c-27.7,0-50.23,22.53-50.23,50.23
				s22.53,50.23,50.23,50.23c27.7,0,50.23-22.53,50.23-50.23S85.8,72.91,58.1,72.91z"/>
			<polygon fill="#59A0F8" points="8.28,141.6 0,155.72 116.21,155.72 107.93,141.6 116.21,130.74 0,130.74 			"/>
			<g>
				<path fill="#FFFFFF" d="M13.31,136.42v-0.55h3.83v0.55h-1.61v4.56h-0.62v-4.56H13.31z"/>
				<path fill="#FFFFFF" d="M19.01,141.05c-0.35,0-0.65-0.08-0.91-0.25s-0.46-0.39-0.61-0.69c-0.15-0.3-0.22-0.64-0.22-1.04
					c0-0.4,0.07-0.75,0.22-1.04c0.15-0.3,0.35-0.53,0.61-0.69s0.56-0.25,0.91-0.25c0.35,0,0.65,0.08,0.91,0.25s0.46,0.4,0.61,0.69
					c0.15,0.3,0.22,0.64,0.22,1.04c0,0.4-0.07,0.74-0.22,1.04c-0.15,0.3-0.35,0.52-0.61,0.69S19.36,141.05,19.01,141.05z
					 M19.01,140.53c0.26,0,0.48-0.07,0.65-0.2s0.29-0.31,0.38-0.53c0.08-0.22,0.12-0.46,0.12-0.71c0-0.26-0.04-0.49-0.12-0.72
					c-0.08-0.22-0.21-0.4-0.38-0.54c-0.17-0.14-0.39-0.2-0.65-0.2s-0.48,0.07-0.65,0.2c-0.17,0.14-0.3,0.31-0.38,0.54
					s-0.12,0.46-0.12,0.72c0,0.26,0.04,0.49,0.12,0.71s0.21,0.4,0.38,0.53C18.54,140.46,18.75,140.53,19.01,140.53z"/>
				<path fill="#FFFFFF" d="M21.65,142.41v-5.26h0.57v0.61h0.07c0.04-0.07,0.1-0.15,0.18-0.26c0.08-0.1,0.19-0.2,0.33-0.28
					s0.34-0.12,0.59-0.12c0.32,0,0.61,0.08,0.85,0.24s0.44,0.39,0.58,0.68c0.14,0.3,0.21,0.65,0.21,1.05c0,0.41-0.07,0.76-0.21,1.05
					s-0.33,0.53-0.57,0.69c-0.24,0.16-0.53,0.24-0.84,0.24c-0.25,0-0.44-0.04-0.59-0.12c-0.15-0.08-0.26-0.18-0.34-0.28
					c-0.08-0.11-0.14-0.19-0.18-0.26h-0.05v2.02H21.65z M22.23,139.06c0,0.29,0.04,0.54,0.13,0.76c0.08,0.22,0.21,0.39,0.37,0.52
					c0.16,0.12,0.36,0.19,0.6,0.19c0.25,0,0.45-0.06,0.62-0.2s0.29-0.31,0.37-0.53c0.08-0.22,0.13-0.47,0.13-0.74
					c0-0.27-0.04-0.51-0.12-0.73c-0.08-0.22-0.21-0.39-0.37-0.52s-0.37-0.19-0.62-0.19c-0.24,0-0.44,0.06-0.6,0.18
					c-0.16,0.12-0.29,0.29-0.37,0.5C22.27,138.53,22.23,138.78,22.23,139.06z"/>
				<path fill="#FFFFFF" d="M30.77,137.15c-0.03-0.25-0.15-0.45-0.36-0.59c-0.21-0.14-0.47-0.21-0.78-0.21
					c-0.23,0-0.42,0.04-0.59,0.11s-0.3,0.17-0.39,0.3s-0.14,0.27-0.14,0.44c0,0.14,0.03,0.25,0.1,0.35c0.07,0.1,0.15,0.18,0.25,0.24
					c0.1,0.06,0.21,0.12,0.32,0.16s0.22,0.07,0.31,0.1l0.52,0.14c0.13,0.04,0.28,0.08,0.44,0.15c0.16,0.06,0.32,0.14,0.47,0.25
					c0.15,0.1,0.27,0.24,0.37,0.41c0.1,0.16,0.15,0.37,0.15,0.61c0,0.28-0.07,0.52-0.22,0.75c-0.14,0.22-0.35,0.4-0.63,0.53
					c-0.28,0.13-0.61,0.2-1,0.2c-0.37,0-0.68-0.06-0.95-0.18c-0.27-0.12-0.48-0.28-0.63-0.49s-0.24-0.46-0.26-0.73h0.64
					c0.02,0.19,0.08,0.35,0.2,0.48c0.11,0.13,0.26,0.22,0.43,0.28c0.18,0.06,0.36,0.09,0.57,0.09c0.24,0,0.45-0.04,0.64-0.12
					c0.19-0.08,0.34-0.19,0.45-0.32c0.11-0.14,0.16-0.3,0.16-0.49c0-0.17-0.05-0.31-0.14-0.41c-0.09-0.11-0.22-0.19-0.37-0.26
					c-0.16-0.07-0.32-0.12-0.5-0.17l-0.63-0.18c-0.4-0.11-0.71-0.28-0.95-0.49s-0.35-0.49-0.35-0.83c0-0.29,0.08-0.54,0.23-0.75
					c0.16-0.21,0.36-0.38,0.63-0.5s0.56-0.18,0.88-0.18c0.33,0,0.62,0.06,0.88,0.18s0.46,0.28,0.61,0.48
					c0.15,0.2,0.23,0.43,0.24,0.69H30.77z"/>
				<path fill="#FFFFFF" d="M33.93,141.05c-0.35,0-0.65-0.08-0.91-0.25s-0.46-0.39-0.61-0.69c-0.15-0.3-0.22-0.64-0.22-1.04
					c0-0.4,0.07-0.75,0.22-1.04c0.15-0.3,0.35-0.53,0.61-0.69s0.56-0.25,0.91-0.25c0.35,0,0.65,0.08,0.91,0.25s0.46,0.4,0.61,0.69
					c0.15,0.3,0.22,0.64,0.22,1.04c0,0.4-0.07,0.74-0.22,1.04c-0.15,0.3-0.35,0.52-0.61,0.69S34.28,141.05,33.93,141.05z
					 M33.93,140.53c0.26,0,0.48-0.07,0.65-0.2s0.29-0.31,0.38-0.53c0.08-0.22,0.12-0.46,0.12-0.71c0-0.26-0.04-0.49-0.12-0.72
					c-0.08-0.22-0.21-0.4-0.38-0.54c-0.17-0.14-0.39-0.2-0.65-0.2s-0.48,0.07-0.65,0.2c-0.17,0.14-0.3,0.31-0.38,0.54
					s-0.12,0.46-0.12,0.72c0,0.26,0.04,0.49,0.12,0.71s0.21,0.4,0.38,0.53C33.45,140.46,33.67,140.53,33.93,140.53z"/>
				<path fill="#FFFFFF" d="M38.27,137.15v0.5H36.2v-0.5H38.27z M36.82,140.98v-4.36c0-0.22,0.05-0.4,0.15-0.55
					c0.1-0.15,0.24-0.26,0.4-0.33c0.16-0.07,0.34-0.11,0.52-0.11c0.14,0,0.26,0.01,0.35,0.04s0.16,0.05,0.2,0.06l-0.17,0.51
					c-0.03-0.01-0.07-0.02-0.12-0.04s-0.12-0.02-0.21-0.02c-0.19,0-0.33,0.05-0.42,0.15s-0.13,0.24-0.13,0.43v4.22H36.82z"/>
				<path fill="#FFFFFF" d="M40.76,137.15v0.5h-1.98v-0.5H40.76z M39.35,136.23h0.59v3.65c0,0.17,0.02,0.29,0.07,0.37
					c0.05,0.08,0.11,0.14,0.19,0.16c0.08,0.03,0.16,0.04,0.25,0.04c0.06,0,0.12,0,0.16-0.01s0.08-0.01,0.1-0.02l0.12,0.53
					c-0.04,0.01-0.1,0.03-0.17,0.05s-0.16,0.02-0.27,0.02c-0.17,0-0.33-0.04-0.49-0.11c-0.16-0.07-0.29-0.18-0.39-0.33
					c-0.1-0.15-0.16-0.33-0.16-0.55V136.23z"/>
				<path fill="#FFFFFF" d="M42.51,140.98l-1.17-3.83h0.62l0.83,2.93h0.04l0.82-2.93h0.63l0.81,2.92h0.04l0.83-2.92h0.62l-1.17,3.83
					h-0.58l-0.84-2.94h-0.06l-0.84,2.94H42.51z"/>
				<path fill="#FFFFFF" d="M48.48,141.07c-0.24,0-0.46-0.05-0.66-0.14c-0.2-0.09-0.36-0.23-0.47-0.4
					c-0.12-0.17-0.17-0.39-0.17-0.64c0-0.22,0.04-0.4,0.13-0.53c0.09-0.14,0.2-0.25,0.35-0.32s0.3-0.14,0.48-0.18
					s0.35-0.07,0.53-0.09c0.23-0.03,0.42-0.05,0.57-0.07s0.25-0.04,0.32-0.08c0.07-0.04,0.1-0.1,0.1-0.2v-0.02
					c0-0.25-0.07-0.44-0.2-0.57c-0.13-0.14-0.34-0.2-0.61-0.2c-0.28,0-0.5,0.06-0.66,0.18c-0.16,0.12-0.27,0.25-0.34,0.39l-0.56-0.2
					c0.1-0.23,0.23-0.41,0.4-0.54c0.17-0.13,0.35-0.22,0.55-0.27c0.2-0.05,0.39-0.08,0.59-0.08c0.12,0,0.26,0.01,0.43,0.04
					c0.16,0.03,0.32,0.09,0.47,0.18c0.15,0.09,0.28,0.22,0.38,0.41c0.1,0.18,0.15,0.42,0.15,0.73v2.52h-0.59v-0.52h-0.03
					c-0.04,0.08-0.11,0.17-0.2,0.27c-0.09,0.09-0.22,0.17-0.37,0.24C48.89,141.03,48.7,141.07,48.48,141.07z M48.57,140.54
					c0.23,0,0.43-0.05,0.59-0.14c0.16-0.09,0.28-0.21,0.36-0.35c0.08-0.14,0.12-0.3,0.12-0.46v-0.54c-0.03,0.03-0.08,0.06-0.16,0.08
					c-0.08,0.02-0.18,0.05-0.29,0.06s-0.21,0.03-0.32,0.05c-0.1,0.01-0.18,0.02-0.25,0.03c-0.15,0.02-0.3,0.05-0.43,0.1
					c-0.13,0.04-0.24,0.11-0.32,0.2c-0.08,0.09-0.12,0.21-0.12,0.36c0,0.21,0.08,0.36,0.23,0.46
					C48.14,140.48,48.33,140.54,48.57,140.54z"/>
				<path fill="#FFFFFF" d="M51.31,140.98v-3.83h0.57v0.58h0.04c0.07-0.19,0.2-0.34,0.38-0.46c0.18-0.12,0.39-0.18,0.62-0.18
					c0.04,0,0.1,0,0.16,0c0.07,0,0.11,0,0.15,0.01v0.6c-0.02,0-0.06-0.01-0.14-0.02c-0.07-0.01-0.15-0.02-0.22-0.02
					c-0.19,0-0.35,0.04-0.5,0.12c-0.15,0.08-0.26,0.18-0.34,0.32c-0.08,0.13-0.13,0.29-0.13,0.46v2.42H51.31z"/>
				<path fill="#FFFFFF" d="M55.41,141.05c-0.37,0-0.69-0.08-0.95-0.25s-0.47-0.39-0.62-0.69c-0.14-0.3-0.22-0.64-0.22-1.03
					c0-0.39,0.07-0.74,0.22-1.04c0.14-0.3,0.34-0.53,0.6-0.7c0.26-0.17,0.56-0.25,0.91-0.25c0.2,0,0.4,0.03,0.59,0.1
					c0.19,0.07,0.37,0.17,0.53,0.32c0.16,0.15,0.29,0.35,0.38,0.59c0.09,0.24,0.14,0.54,0.14,0.9v0.25h-2.95v-0.51h2.35
					c0-0.22-0.04-0.41-0.13-0.58s-0.21-0.3-0.36-0.4c-0.16-0.1-0.34-0.15-0.55-0.15c-0.23,0-0.44,0.06-0.61,0.17
					c-0.17,0.11-0.3,0.26-0.39,0.45c-0.09,0.18-0.14,0.38-0.14,0.59v0.34c0,0.29,0.05,0.53,0.15,0.73s0.24,0.35,0.42,0.46
					s0.39,0.16,0.63,0.16c0.15,0,0.29-0.02,0.42-0.07c0.13-0.04,0.23-0.11,0.33-0.2s0.16-0.2,0.21-0.33l0.57,0.16
					c-0.06,0.19-0.16,0.36-0.3,0.51c-0.14,0.15-0.32,0.26-0.52,0.34C55.9,141.01,55.66,141.05,55.41,141.05z"/>
				<path fill="#FFFFFF" d="M61.52,140.98h-1.58v-5.1h1.64c0.49,0,0.92,0.1,1.27,0.31c0.35,0.2,0.62,0.5,0.81,0.88
					s0.28,0.83,0.28,1.36c0,0.53-0.09,0.99-0.28,1.37s-0.47,0.68-0.83,0.88C62.48,140.87,62.04,140.98,61.52,140.98z M60.56,140.43
					h0.92c0.42,0,0.77-0.08,1.05-0.24c0.28-0.16,0.48-0.4,0.62-0.7c0.14-0.3,0.2-0.66,0.2-1.07c0-0.41-0.07-0.77-0.2-1.07
					c-0.13-0.3-0.34-0.53-0.6-0.69c-0.27-0.16-0.6-0.24-1-0.24h-0.99V140.43z"/>
				<path fill="#FFFFFF" d="M66.51,141.05c-0.37,0-0.69-0.08-0.95-0.25s-0.47-0.39-0.62-0.69c-0.14-0.3-0.22-0.64-0.22-1.03
					c0-0.39,0.07-0.74,0.22-1.04c0.14-0.3,0.34-0.53,0.6-0.7c0.26-0.17,0.56-0.25,0.91-0.25c0.2,0,0.4,0.03,0.59,0.1
					c0.19,0.07,0.37,0.17,0.53,0.32c0.16,0.15,0.29,0.35,0.38,0.59c0.09,0.24,0.14,0.54,0.14,0.9v0.25h-2.95v-0.51h2.35
					c0-0.22-0.04-0.41-0.13-0.58s-0.21-0.3-0.36-0.4c-0.16-0.1-0.34-0.15-0.55-0.15c-0.23,0-0.44,0.06-0.61,0.17
					c-0.17,0.11-0.3,0.26-0.39,0.45c-0.09,0.18-0.14,0.38-0.14,0.59v0.34c0,0.29,0.05,0.53,0.15,0.73s0.24,0.35,0.42,0.46
					s0.39,0.16,0.63,0.16c0.15,0,0.29-0.02,0.42-0.07c0.13-0.04,0.23-0.11,0.33-0.2s0.16-0.2,0.21-0.33l0.57,0.16
					c-0.06,0.19-0.16,0.36-0.3,0.51c-0.14,0.15-0.32,0.26-0.52,0.34C67,141.01,66.77,141.05,66.51,141.05z"/>
				<path fill="#FFFFFF" d="M72.01,137.15l-1.42,3.83h-0.6l-1.42-3.83h0.64l1.06,3.05h0.04l1.06-3.05H72.01z"/>
				<path fill="#FFFFFF" d="M74.25,141.05c-0.37,0-0.69-0.08-0.95-0.25s-0.47-0.39-0.62-0.69c-0.14-0.3-0.22-0.64-0.22-1.03
					c0-0.39,0.07-0.74,0.22-1.04c0.14-0.3,0.34-0.53,0.6-0.7c0.26-0.17,0.56-0.25,0.91-0.25c0.2,0,0.4,0.03,0.59,0.1
					c0.19,0.07,0.37,0.17,0.53,0.32c0.16,0.15,0.29,0.35,0.38,0.59c0.09,0.24,0.14,0.54,0.14,0.9v0.25h-2.95v-0.51h2.35
					c0-0.22-0.04-0.41-0.13-0.58s-0.21-0.3-0.36-0.4c-0.16-0.1-0.34-0.15-0.55-0.15c-0.23,0-0.44,0.06-0.61,0.17
					c-0.17,0.11-0.3,0.26-0.39,0.45c-0.09,0.18-0.14,0.38-0.14,0.59v0.34c0,0.29,0.05,0.53,0.15,0.73s0.24,0.35,0.42,0.46
					s0.39,0.16,0.63,0.16c0.15,0,0.29-0.02,0.42-0.07c0.13-0.04,0.23-0.11,0.33-0.2s0.16-0.2,0.21-0.33l0.57,0.16
					c-0.06,0.19-0.16,0.36-0.3,0.51c-0.14,0.15-0.32,0.26-0.52,0.34C74.74,141.01,74.51,141.05,74.25,141.05z"/>
				<path fill="#FFFFFF" d="M77.32,135.87v5.1h-0.59v-5.1H77.32z"/>
				<path fill="#FFFFFF" d="M79.95,141.05c-0.35,0-0.65-0.08-0.91-0.25s-0.46-0.39-0.61-0.69c-0.15-0.3-0.22-0.64-0.22-1.04
					c0-0.4,0.07-0.75,0.22-1.04c0.15-0.3,0.35-0.53,0.61-0.69s0.56-0.25,0.91-0.25c0.35,0,0.65,0.08,0.91,0.25s0.46,0.4,0.61,0.69
					c0.15,0.3,0.22,0.64,0.22,1.04c0,0.4-0.07,0.74-0.22,1.04c-0.15,0.3-0.35,0.52-0.61,0.69S80.3,141.05,79.95,141.05z
					 M79.95,140.53c0.26,0,0.48-0.07,0.65-0.2s0.29-0.31,0.38-0.53c0.08-0.22,0.12-0.46,0.12-0.71c0-0.26-0.04-0.49-0.12-0.72
					c-0.08-0.22-0.21-0.4-0.38-0.54c-0.17-0.14-0.39-0.2-0.65-0.2s-0.48,0.07-0.65,0.2c-0.17,0.14-0.3,0.31-0.38,0.54
					s-0.12,0.46-0.12,0.72c0,0.26,0.04,0.49,0.12,0.71s0.21,0.4,0.38,0.53C79.47,140.46,79.69,140.53,79.95,140.53z"/>
				<path fill="#FFFFFF" d="M82.58,142.41v-5.26h0.57v0.61h0.07c0.04-0.07,0.1-0.15,0.18-0.26c0.08-0.1,0.19-0.2,0.33-0.28
					s0.34-0.12,0.59-0.12c0.32,0,0.61,0.08,0.85,0.24s0.44,0.39,0.58,0.68c0.14,0.3,0.21,0.65,0.21,1.05c0,0.41-0.07,0.76-0.21,1.05
					s-0.33,0.53-0.57,0.69c-0.24,0.16-0.53,0.24-0.84,0.24c-0.25,0-0.44-0.04-0.59-0.12c-0.15-0.08-0.26-0.18-0.34-0.28
					c-0.08-0.11-0.14-0.19-0.18-0.26h-0.05v2.02H82.58z M83.16,139.06c0,0.29,0.04,0.54,0.13,0.76c0.08,0.22,0.21,0.39,0.37,0.52
					c0.16,0.12,0.36,0.19,0.6,0.19c0.25,0,0.45-0.06,0.62-0.2s0.29-0.31,0.37-0.53c0.08-0.22,0.13-0.47,0.13-0.74
					c0-0.27-0.04-0.51-0.12-0.73c-0.08-0.22-0.21-0.39-0.37-0.52s-0.37-0.19-0.62-0.19c-0.24,0-0.44,0.06-0.6,0.18
					c-0.16,0.12-0.29,0.29-0.37,0.5C83.2,138.53,83.16,138.78,83.16,139.06z"/>
				<path fill="#FFFFFF" d="M86.86,140.98v-3.83h0.57v0.6h0.05c0.08-0.21,0.21-0.36,0.39-0.48c0.18-0.11,0.39-0.17,0.64-0.17
					c0.25,0,0.46,0.06,0.63,0.17c0.17,0.11,0.3,0.27,0.39,0.48h0.04c0.1-0.2,0.25-0.36,0.44-0.47s0.43-0.18,0.71-0.18
					c0.34,0,0.62,0.11,0.84,0.32s0.33,0.55,0.33,1v2.56H91.3v-2.56c0-0.28-0.08-0.48-0.23-0.61c-0.15-0.12-0.34-0.18-0.55-0.18
					c-0.27,0-0.48,0.08-0.63,0.24s-0.22,0.37-0.22,0.61v2.49h-0.6v-2.62c0-0.22-0.07-0.39-0.21-0.53c-0.14-0.13-0.32-0.2-0.55-0.2
					c-0.15,0-0.3,0.04-0.43,0.12c-0.13,0.08-0.24,0.19-0.32,0.34c-0.08,0.14-0.12,0.31-0.12,0.5v2.39H86.86z"/>
				<path fill="#FFFFFF" d="M94.57,141.05c-0.37,0-0.69-0.08-0.95-0.25s-0.47-0.39-0.62-0.69c-0.14-0.3-0.22-0.64-0.22-1.03
					c0-0.39,0.07-0.74,0.22-1.04c0.14-0.3,0.34-0.53,0.6-0.7c0.26-0.17,0.56-0.25,0.91-0.25c0.2,0,0.4,0.03,0.59,0.1
					c0.19,0.07,0.37,0.17,0.53,0.32c0.16,0.15,0.29,0.35,0.38,0.59c0.09,0.24,0.14,0.54,0.14,0.9v0.25H93.2v-0.51h2.35
					c0-0.22-0.04-0.41-0.13-0.58s-0.21-0.3-0.36-0.4c-0.16-0.1-0.34-0.15-0.55-0.15c-0.23,0-0.44,0.06-0.61,0.17
					c-0.17,0.11-0.3,0.26-0.39,0.45c-0.09,0.18-0.14,0.38-0.14,0.59v0.34c0,0.29,0.05,0.53,0.15,0.73s0.24,0.35,0.42,0.46
					s0.39,0.16,0.63,0.16c0.15,0,0.29-0.02,0.42-0.07c0.13-0.04,0.23-0.11,0.33-0.2s0.16-0.2,0.21-0.33l0.57,0.16
					c-0.06,0.19-0.16,0.36-0.3,0.51c-0.14,0.15-0.32,0.26-0.52,0.34C95.06,141.01,94.83,141.05,94.57,141.05z"/>
				<path fill="#FFFFFF" d="M97.64,138.67v2.3h-0.59v-3.83h0.57v0.6h0.05c0.09-0.2,0.23-0.35,0.41-0.47
					c0.18-0.12,0.42-0.18,0.71-0.18c0.26,0,0.49,0.05,0.68,0.16c0.19,0.11,0.35,0.27,0.45,0.48c0.11,0.21,0.16,0.48,0.16,0.81v2.43
					h-0.59v-2.39c0-0.3-0.08-0.54-0.23-0.7s-0.37-0.25-0.64-0.25c-0.19,0-0.36,0.04-0.5,0.12c-0.15,0.08-0.26,0.2-0.35,0.36
					S97.64,138.45,97.64,138.67z"/>
				<path fill="#FFFFFF" d="M102.82,137.15v0.5h-1.98v-0.5H102.82z M101.42,136.23h0.59v3.65c0,0.17,0.02,0.29,0.07,0.37
					c0.05,0.08,0.11,0.14,0.19,0.16c0.08,0.03,0.16,0.04,0.25,0.04c0.06,0,0.12,0,0.16-0.01s0.08-0.01,0.1-0.02l0.12,0.53
					c-0.04,0.01-0.1,0.03-0.17,0.05s-0.16,0.02-0.27,0.02c-0.17,0-0.33-0.04-0.49-0.11c-0.16-0.07-0.29-0.18-0.39-0.33
					c-0.1-0.15-0.16-0.33-0.16-0.55V136.23z"/>
				<path fill="#FFFFFF" d="M44.22,145.89H43.6c-0.04-0.18-0.1-0.33-0.19-0.47c-0.09-0.13-0.2-0.25-0.33-0.34
					c-0.13-0.09-0.27-0.16-0.43-0.21s-0.32-0.07-0.49-0.07c-0.31,0-0.59,0.08-0.84,0.23c-0.25,0.16-0.45,0.39-0.6,0.69
					s-0.22,0.68-0.22,1.12s0.07,0.82,0.22,1.12s0.35,0.53,0.6,0.69c0.25,0.16,0.53,0.23,0.84,0.23c0.17,0,0.33-0.02,0.49-0.07
					s0.3-0.12,0.43-0.21c0.13-0.09,0.24-0.21,0.33-0.34c0.09-0.14,0.15-0.29,0.19-0.47h0.62c-0.05,0.26-0.13,0.49-0.25,0.7
					c-0.12,0.21-0.28,0.38-0.46,0.52c-0.18,0.14-0.39,0.25-0.61,0.33c-0.23,0.08-0.47,0.11-0.73,0.11c-0.44,0-0.82-0.11-1.16-0.32
					c-0.34-0.21-0.61-0.52-0.8-0.91c-0.19-0.39-0.29-0.86-0.29-1.4s0.1-1,0.29-1.4c0.19-0.39,0.46-0.69,0.8-0.91
					c0.34-0.21,0.73-0.32,1.16-0.32c0.26,0,0.5,0.04,0.73,0.11c0.23,0.07,0.43,0.18,0.61,0.33c0.18,0.14,0.34,0.32,0.46,0.52
					C44.09,145.39,44.17,145.63,44.22,145.89z"/>
				<path fill="#FFFFFF" d="M46.69,149.48c-0.35,0-0.65-0.08-0.91-0.25s-0.46-0.39-0.61-0.69c-0.15-0.3-0.22-0.64-0.22-1.04
					c0-0.4,0.07-0.75,0.22-1.04c0.15-0.3,0.35-0.53,0.61-0.69s0.56-0.25,0.91-0.25c0.35,0,0.65,0.08,0.91,0.25s0.46,0.4,0.61,0.69
					c0.15,0.3,0.22,0.64,0.22,1.04c0,0.4-0.07,0.74-0.22,1.04c-0.15,0.3-0.35,0.52-0.61,0.69S47.04,149.48,46.69,149.48z
					 M46.69,148.95c0.26,0,0.48-0.07,0.65-0.2s0.29-0.31,0.38-0.53c0.08-0.22,0.12-0.46,0.12-0.71c0-0.26-0.04-0.49-0.12-0.72
					c-0.08-0.22-0.21-0.4-0.38-0.54c-0.17-0.14-0.39-0.2-0.65-0.2s-0.48,0.07-0.65,0.2c-0.17,0.14-0.3,0.31-0.38,0.54
					s-0.12,0.46-0.12,0.72c0,0.26,0.04,0.49,0.12,0.71s0.21,0.4,0.38,0.53C46.21,148.88,46.43,148.95,46.69,148.95z"/>
				<path fill="#FFFFFF" d="M49.32,149.4v-3.83h0.57v0.6h0.05c0.08-0.21,0.21-0.36,0.39-0.48c0.18-0.11,0.39-0.17,0.64-0.17
					c0.25,0,0.46,0.06,0.63,0.17c0.17,0.11,0.3,0.27,0.39,0.48h0.04c0.1-0.2,0.25-0.36,0.44-0.47s0.43-0.18,0.71-0.18
					c0.34,0,0.62,0.11,0.84,0.32s0.33,0.55,0.33,1v2.56h-0.59v-2.56c0-0.28-0.08-0.48-0.23-0.61c-0.15-0.12-0.34-0.18-0.55-0.18
					c-0.27,0-0.48,0.08-0.63,0.24s-0.22,0.37-0.22,0.61v2.49h-0.6v-2.62c0-0.22-0.07-0.39-0.21-0.53c-0.14-0.13-0.32-0.2-0.55-0.2
					c-0.15,0-0.3,0.04-0.43,0.12c-0.13,0.08-0.24,0.19-0.32,0.34c-0.08,0.14-0.12,0.31-0.12,0.5v2.39H49.32z"/>
				<path fill="#FFFFFF" d="M55.43,150.83v-5.26h0.57v0.61h0.07c0.04-0.07,0.1-0.15,0.18-0.26c0.08-0.1,0.19-0.2,0.33-0.28
					s0.34-0.12,0.59-0.12c0.32,0,0.61,0.08,0.85,0.24s0.44,0.39,0.58,0.68c0.14,0.3,0.21,0.65,0.21,1.05c0,0.41-0.07,0.76-0.21,1.05
					s-0.33,0.53-0.57,0.69c-0.24,0.16-0.53,0.24-0.84,0.24c-0.25,0-0.44-0.04-0.59-0.12c-0.15-0.08-0.26-0.18-0.34-0.28
					c-0.08-0.11-0.14-0.19-0.18-0.26h-0.05v2.02H55.43z M56,147.48c0,0.29,0.04,0.54,0.13,0.76c0.08,0.22,0.21,0.39,0.37,0.52
					c0.16,0.12,0.36,0.19,0.6,0.19c0.25,0,0.45-0.06,0.62-0.2s0.29-0.31,0.37-0.53c0.08-0.22,0.13-0.47,0.13-0.74
					c0-0.27-0.04-0.51-0.12-0.73c-0.08-0.22-0.21-0.39-0.37-0.52s-0.37-0.19-0.62-0.19c-0.24,0-0.44,0.06-0.6,0.18
					c-0.16,0.12-0.29,0.29-0.37,0.5C56.05,146.95,56,147.2,56,147.48z"/>
				<path fill="#FFFFFF" d="M60.83,149.49c-0.24,0-0.46-0.05-0.66-0.14c-0.2-0.09-0.36-0.23-0.47-0.4
					c-0.12-0.17-0.17-0.39-0.17-0.64c0-0.22,0.04-0.4,0.13-0.53c0.09-0.14,0.2-0.25,0.35-0.32s0.3-0.14,0.48-0.18
					s0.35-0.07,0.53-0.09c0.23-0.03,0.42-0.05,0.57-0.07s0.25-0.04,0.32-0.08c0.07-0.04,0.1-0.1,0.1-0.2v-0.02
					c0-0.25-0.07-0.44-0.2-0.57c-0.13-0.14-0.34-0.2-0.61-0.2c-0.28,0-0.5,0.06-0.66,0.18c-0.16,0.12-0.27,0.25-0.34,0.39l-0.56-0.2
					c0.1-0.23,0.23-0.41,0.4-0.54c0.17-0.13,0.35-0.22,0.55-0.27c0.2-0.05,0.39-0.08,0.59-0.08c0.12,0,0.26,0.01,0.43,0.04
					c0.16,0.03,0.32,0.09,0.47,0.18c0.15,0.09,0.28,0.22,0.38,0.41c0.1,0.18,0.15,0.42,0.15,0.73v2.52H62v-0.52h-0.03
					c-0.04,0.08-0.11,0.17-0.2,0.27c-0.09,0.09-0.22,0.17-0.37,0.24C61.24,149.45,61.05,149.49,60.83,149.49z M60.92,148.96
					c0.23,0,0.43-0.05,0.59-0.14c0.16-0.09,0.28-0.21,0.36-0.35c0.08-0.14,0.12-0.3,0.12-0.46v-0.54c-0.03,0.03-0.08,0.06-0.16,0.08
					c-0.08,0.02-0.18,0.05-0.29,0.06s-0.21,0.03-0.32,0.05c-0.1,0.01-0.18,0.02-0.25,0.03c-0.15,0.02-0.3,0.05-0.43,0.1
					c-0.13,0.04-0.24,0.11-0.32,0.2c-0.08,0.09-0.12,0.21-0.12,0.36c0,0.21,0.08,0.36,0.23,0.46
					C60.49,148.91,60.68,148.96,60.92,148.96z"/>
				<path fill="#FFFFFF" d="M64.25,147.09v2.3h-0.59v-3.83h0.57v0.6h0.05c0.09-0.2,0.23-0.35,0.41-0.47
					c0.18-0.12,0.42-0.18,0.71-0.18c0.26,0,0.49,0.05,0.68,0.16c0.19,0.11,0.35,0.27,0.45,0.48c0.11,0.21,0.16,0.48,0.16,0.81v2.43
					H66.1v-2.39c0-0.3-0.08-0.54-0.23-0.7s-0.37-0.25-0.64-0.25c-0.19,0-0.36,0.04-0.5,0.12c-0.15,0.08-0.26,0.2-0.35,0.36
					S64.25,146.87,64.25,147.09z"/>
				<path fill="#FFFFFF" d="M68.07,144.93c-0.11,0-0.21-0.04-0.3-0.12s-0.12-0.17-0.12-0.28s0.04-0.2,0.12-0.28s0.18-0.12,0.3-0.12
					s0.21,0.04,0.3,0.12s0.12,0.17,0.12,0.28s-0.04,0.2-0.12,0.28S68.18,144.93,68.07,144.93z M67.77,149.4v-3.83h0.59v3.83H67.77z"
					/>
				<path fill="#FFFFFF" d="M71.04,149.48c-0.37,0-0.69-0.08-0.95-0.25s-0.47-0.39-0.62-0.69c-0.14-0.3-0.22-0.64-0.22-1.03
					c0-0.39,0.07-0.74,0.22-1.04c0.14-0.3,0.34-0.53,0.6-0.7c0.26-0.17,0.56-0.25,0.91-0.25c0.2,0,0.4,0.03,0.59,0.1
					c0.19,0.07,0.37,0.17,0.53,0.32c0.16,0.15,0.29,0.35,0.38,0.59c0.09,0.24,0.14,0.54,0.14,0.9v0.25h-2.95v-0.51h2.35
					c0-0.22-0.04-0.41-0.13-0.58s-0.21-0.3-0.36-0.4c-0.16-0.1-0.34-0.15-0.55-0.15c-0.23,0-0.44,0.06-0.61,0.17
					c-0.17,0.11-0.3,0.26-0.39,0.45c-0.09,0.18-0.14,0.38-0.14,0.59v0.34c0,0.29,0.05,0.53,0.15,0.73s0.24,0.35,0.42,0.46
					s0.39,0.16,0.63,0.16c0.15,0,0.29-0.02,0.42-0.07c0.13-0.04,0.23-0.11,0.33-0.2s0.16-0.2,0.21-0.33l0.57,0.16
					c-0.06,0.19-0.16,0.36-0.3,0.51c-0.14,0.15-0.32,0.26-0.52,0.34C71.53,149.44,71.3,149.48,71.04,149.48z"/>
				<path fill="#FFFFFF" d="M76.23,146.43l-0.53,0.15c-0.03-0.09-0.08-0.17-0.15-0.26c-0.06-0.08-0.15-0.15-0.26-0.21
					c-0.11-0.05-0.25-0.08-0.42-0.08c-0.23,0-0.43,0.05-0.58,0.16s-0.23,0.24-0.23,0.41c0,0.15,0.05,0.26,0.16,0.35
					c0.11,0.08,0.27,0.16,0.5,0.21l0.57,0.14c0.34,0.08,0.6,0.21,0.77,0.38c0.17,0.17,0.25,0.39,0.25,0.66
					c0,0.22-0.06,0.42-0.19,0.59c-0.13,0.17-0.3,0.31-0.52,0.41c-0.22,0.1-0.49,0.15-0.78,0.15c-0.39,0-0.71-0.08-0.97-0.25
					c-0.26-0.17-0.42-0.42-0.49-0.74l0.56-0.14c0.05,0.21,0.15,0.36,0.3,0.46c0.15,0.1,0.34,0.16,0.58,0.16
					c0.27,0,0.49-0.06,0.65-0.18s0.24-0.26,0.24-0.42c0-0.13-0.05-0.25-0.14-0.34c-0.09-0.09-0.24-0.16-0.43-0.2l-0.64-0.15
					c-0.35-0.08-0.61-0.21-0.77-0.39c-0.16-0.18-0.25-0.4-0.25-0.66c0-0.22,0.06-0.41,0.18-0.57c0.12-0.17,0.29-0.3,0.5-0.39
					c0.21-0.09,0.45-0.14,0.72-0.14c0.38,0,0.68,0.08,0.89,0.25C75.99,145.93,76.14,146.15,76.23,146.43z"/>
			</g>
			<path fill="#59A0F8" d="M11.33,123.14c0-25.79,20.98-46.78,46.78-46.78c25.79,0,46.78,20.98,46.78,46.78
				c0,1.28-0.07,2.55-0.17,3.8h0.41c0.1-1.26,0.17-2.52,0.17-3.8c0-26.02-21.17-47.18-47.18-47.18s-47.18,21.17-47.18,47.18
				c0,1.28,0.07,2.55,0.17,3.8h0.41C11.39,125.69,11.33,124.42,11.33,123.14z"/>
		</g>
		<g>
			<g>
				<path fill="#194646" d="M33.06,0h4.75v29.71h-4.75V0z M54.45,20.23c0,4.55-3.82,4.91-4.96,4.91c-2.84,0-3.36-2.66-3.36-4.26
					V9.51h-4.75v11.35c0,2.82,0.88,5.14,2.43,6.69c1.37,1.37,3.42,2.12,5.64,2.12c1.58,0,3.81-0.49,5-1.58v1.62h4.75V9.51h-4.75
					V20.23z M68.72,2.38h-4.75v7.13H60.4v4.75h3.57v15.45h4.75V14.26h3.57V9.51h-3.57V2.38z M87.25,23.67
					c-1.04,0.93-2.4,1.45-3.9,1.45c-3.31,0-5.73-2.43-5.73-5.76s2.35-5.66,5.73-5.66c1.47,0,2.87,0.49,3.93,1.42L88,15.74l3.21-3.2
					l-0.8-0.72c-1.89-1.7-4.39-2.66-7.05-2.66c-5.94,0-10.26,4.29-10.26,10.18c0,5.87,4.42,10.31,10.26,10.31
					c2.71,0,5.24-0.96,7.11-2.69l0.77-0.72l-3.26-3.2L87.25,23.67z M108.18,11.27c-1.37-1.37-2.97-2.12-5.2-2.12
					c-1.58,0-3.36,0.49-4.55,1.57V0h-4.75v29.71h4.75V18.58c0-4.55,3.23-4.91,4.37-4.91c2.84,0,2.76,2.66,2.76,4.26v11.78h4.75
					V17.96C110.31,15.15,109.73,12.82,108.18,11.27"/>
			</g>
			<path fill="#FF3D2E" d="M83.2,15.97c1.9,0,3.44,1.54,3.44,3.44s-1.54,3.44-3.44,3.44c-1.9,0-3.44-1.54-3.44-3.44
				S81.3,15.97,83.2,15.97"/>
			<path fill="#194646" d="M26.41,22.25c-1.81,1.86-4.26,2.87-6.85,2.87c-5.3,0-9.15-4.16-9.15-9.87c0-5.74,3.85-9.9,9.15-9.9
				c2.56,0,4.99,1.01,6.82,2.84l0.72,0.72l3.18-3.18l-0.7-0.72c-2.63-2.71-6.2-4.18-10.03-4.18c-7.8,0-13.67,6.2-13.67,14.44
				c0,8.22,5.89,14.39,13.67,14.39c3.85,0,7.42-1.5,10.05-4.21l0.7-0.72l-3.15-3.23L26.41,22.25z"/>
		</g>
	</g>
</g>
</svg>
