<?xml version="1.0" encoding="utf-8"?>
<!-- Generator: Adobe Illustrator 27.0.0, SVG Export Plug-In . SVG Version: 6.00 Build 0)  -->
<svg version="1.1" id="Layer_1" xmlns="http://www.w3.org/2000/svg" xmlns:xlink="http://www.w3.org/1999/xlink" x="0px" y="0px"
	 width="123.56px" height="179.26px" viewBox="0 0 123.56 179.26" enable-background="new 0 0 123.56 179.26" xml:space="preserve">
<g>
	
		<radialGradient id="SVGID_1_" cx="304.5916" cy="-7981.5308" r="84.5389" fx="305.0482" fy="-8039.0122" gradientTransform="matrix(0.5914 0 0 0.0329 -118.3693 439.2803)" gradientUnits="userSpaceOnUse">
		<stop  offset="0.1225" style="stop-color:#1B2900"/>
		<stop  offset="0.28" style="stop-color:#202E06;stop-opacity:0.8205"/>
		<stop  offset="0.4846" style="stop-color:#2F3D16;stop-opacity:0.5874"/>
		<stop  offset="0.7152" style="stop-color:#475431;stop-opacity:0.3246"/>
		<stop  offset="0.9631" style="stop-color:#687556;stop-opacity:0.042"/>
		<stop  offset="1" style="stop-color:#6E7B5C;stop-opacity:0"/>
	</radialGradient>
	<ellipse opacity="0.2" fill="url(#SVGID_1_)" cx="61.78" cy="176.47" rx="50" ry="2.78"/>
	<g>
		<g>
			<path fill="#3780FF" d="M24.25,0h0.89c3.07,0.07,6.1,1.3,8.27,3.49c-0.8,0.82-1.62,1.6-2.41,2.42c-1.22-1.1-2.69-1.95-4.29-2.26
				c-2.37-0.5-4.93-0.05-6.92,1.3c-2.17,1.42-3.64,3.83-3.96,6.4c-0.35,2.54,0.37,5.21,2.02,7.18c1.59,1.92,4.01,3.12,6.52,3.21
				c2.34,0.13,4.78-0.58,6.48-2.22c1.34-1.15,1.95-2.91,2.16-4.61c-2.77,0-5.55,0.02-8.32,0v-3.44h11.68
				c0.6,3.69-0.27,7.85-3.07,10.49c-1.87,1.87-4.46,2.97-7.1,3.19c-2.56,0.25-5.2-0.23-7.47-1.47c-2.72-1.45-4.9-3.91-5.97-6.8
				c-1-2.66-1.02-5.66-0.08-8.34c0.85-2.44,2.49-4.6,4.6-6.1C19.29,0.97,21.74,0.15,24.25,0z"/>
			<path fill="#38B137" d="M91.25,0.87h3.58v23.86c-1.19,0-2.39,0.02-3.58-0.02C91.27,16.78,91.25,8.82,91.25,0.87L91.25,0.87z"/>
			<path fill="#FA3913" d="M44.32,9.14c2.21-0.42,4.6,0.05,6.42,1.37c1.65,1.17,2.81,3.01,3.16,5.01c0.45,2.32-0.12,4.86-1.62,6.7
				c-1.62,2.06-4.28,3.16-6.87,2.99c-2.37-0.13-4.68-1.32-6.08-3.26c-1.59-2.14-1.97-5.08-1.1-7.59
				C39.09,11.68,41.54,9.62,44.32,9.14 M44.82,12.31c-0.9,0.23-1.74,0.75-2.34,1.49c-1.62,1.94-1.52,5.1,0.27,6.9
				c1.02,1.04,2.56,1.52,3.98,1.24c1.32-0.23,2.47-1.12,3.11-2.29c1.1-1.99,0.79-4.73-0.9-6.28C47.84,12.36,46.26,11.95,44.82,12.31
				L44.82,12.31z"/>
			<path fill="#FCBD06" d="M62.03,9.14c2.52-0.48,5.28,0.22,7.17,1.99c3.07,2.76,3.41,7.92,0.79,11.09
				c-1.59,2.01-4.16,3.11-6.7,2.99c-2.42-0.07-4.81-1.27-6.25-3.26c-1.62-2.19-1.97-5.2-1.05-7.75C56.9,11.6,59.31,9.61,62.03,9.14
				 M62.53,12.31c-0.9,0.23-1.74,0.75-2.34,1.47c-1.6,1.9-1.54,5.01,0.18,6.83c1.02,1.09,2.61,1.62,4.08,1.32
				c1.3-0.25,2.47-1.12,3.11-2.29c1.09-2.01,0.77-4.75-0.94-6.3C65.54,12.35,63.95,11.95,62.53,12.31L62.53,12.31z"/>
			<path fill="#3780FF" d="M77.05,10.11c1.92-1.2,4.48-1.54,6.55-0.5c0.65,0.28,1.19,0.77,1.7,1.25c0.02-0.45,0-0.92,0.02-1.39
				c1.12,0.02,2.24,0,3.38,0.02v14.74c-0.02,2.22-0.58,4.58-2.19,6.2c-1.75,1.79-4.44,2.34-6.87,1.97
				c-2.59-0.38-4.85-2.27-5.85-4.66c1-0.48,2.06-0.87,3.09-1.32c0.58,1.37,1.77,2.54,3.26,2.81c1.49,0.27,3.21-0.1,4.18-1.34
				c1.04-1.27,1.04-3.01,0.99-4.56c-0.77,0.75-1.65,1.42-2.72,1.67c-2.32,0.65-4.88-0.15-6.67-1.72c-1.8-1.57-2.87-3.99-2.77-6.4
				C73.19,14.15,74.73,11.53,77.05,10.11 M80.51,12.25c-1.02,0.17-1.97,0.74-2.62,1.52c-1.57,1.87-1.57,4.86,0.02,6.7
				c0.9,1.09,2.36,1.69,3.76,1.54c1.32-0.13,2.54-0.97,3.19-2.12c1.1-1.95,0.92-4.61-0.57-6.32C83.37,12.52,81.9,12,80.51,12.25
				L80.51,12.25z"/>
			<path fill="#FA3913" d="M99.12,10.96c2.01-1.87,5.1-2.51,7.67-1.52c2.44,0.92,3.99,3.24,4.78,5.63
				c-3.63,1.5-7.24,2.99-10.86,4.49c0.5,0.95,1.27,1.82,2.31,2.17c1.45,0.52,3.19,0.33,4.41-0.63c0.48-0.37,0.87-0.85,1.24-1.32
				c0.92,0.62,1.84,1.22,2.76,1.84c-1.3,1.95-3.49,3.33-5.85,3.54c-2.61,0.32-5.38-0.69-7.07-2.72C95.73,19.23,96,13.85,99.12,10.96
				 M100.91,14.05c-0.57,0.82-0.8,1.82-0.79,2.81c2.42-1,4.85-2.01,7.27-3.02c-0.4-0.94-1.37-1.5-2.36-1.65
				C103.45,11.9,101.8,12.75,100.91,14.05z"/>
		</g>
		<g>
			<path fill="#FFC726" d="M34.14,51.2l1.52,3.08c0.07,0.13,0.19,0.23,0.34,0.25l3.4,0.49c0.37,0.05,0.52,0.51,0.25,0.78l-2.46,2.4
				c-0.11,0.1-0.16,0.26-0.13,0.4l0.58,3.39c0.06,0.37-0.33,0.66-0.66,0.48l-3.04-1.6c-0.13-0.07-0.29-0.07-0.42,0l-3.04,1.6
				c-0.33,0.18-0.73-0.11-0.66-0.48l0.58-3.39c0.03-0.15-0.02-0.3-0.13-0.4l-2.46-2.4c-0.27-0.26-0.12-0.72,0.25-0.78l3.4-0.49
				c0.15-0.02,0.28-0.11,0.34-0.25l1.52-3.08C33.49,50.86,33.98,50.86,34.14,51.2z"/>
			<path fill="#FFC726" d="M48.17,51.2l1.52,3.08c0.07,0.13,0.19,0.23,0.34,0.25l3.4,0.49c0.37,0.05,0.52,0.51,0.25,0.78l-2.46,2.4
				c-0.11,0.1-0.16,0.26-0.13,0.4l0.58,3.39c0.06,0.37-0.33,0.66-0.66,0.48l-3.04-1.6c-0.13-0.07-0.29-0.07-0.42,0l-3.04,1.6
				c-0.33,0.18-0.73-0.11-0.66-0.48l0.58-3.39c0.03-0.15-0.02-0.3-0.13-0.4l-2.46-2.4c-0.27-0.26-0.12-0.72,0.25-0.78l3.4-0.49
				c0.15-0.02,0.28-0.11,0.34-0.25l1.52-3.08C47.52,50.86,48,50.86,48.17,51.2z"/>
			<path fill="#FFC726" d="M62.19,51.2l1.52,3.08c0.07,0.13,0.19,0.23,0.34,0.25l3.4,0.49c0.37,0.05,0.52,0.51,0.25,0.78l-2.46,2.4
				c-0.11,0.1-0.16,0.26-0.13,0.4l0.58,3.39c0.06,0.37-0.33,0.66-0.66,0.48l-3.04-1.6c-0.13-0.07-0.29-0.07-0.42,0l-3.04,1.6
				c-0.33,0.18-0.73-0.11-0.66-0.48l0.58-3.39c0.03-0.15-0.02-0.3-0.13-0.4l-2.46-2.4c-0.27-0.26-0.12-0.72,0.25-0.78l3.4-0.49
				c0.15-0.02,0.28-0.11,0.34-0.25l1.52-3.08C61.54,50.86,62.02,50.86,62.19,51.2z"/>
			<path fill="#FFC726" d="M76.21,51.2l1.52,3.08c0.07,0.13,0.19,0.23,0.34,0.25l3.4,0.49c0.37,0.05,0.52,0.51,0.25,0.78l-2.46,2.4
				c-0.11,0.1-0.16,0.26-0.13,0.4l0.58,3.39c0.06,0.37-0.33,0.66-0.66,0.48l-3.04-1.6c-0.13-0.07-0.29-0.07-0.42,0l-3.04,1.6
				c-0.33,0.18-0.73-0.11-0.66-0.48l0.58-3.39c0.03-0.15-0.02-0.3-0.13-0.4l-2.46-2.4c-0.27-0.26-0.12-0.72,0.25-0.78l3.4-0.49
				c0.15-0.02,0.28-0.11,0.34-0.25l1.52-3.08C75.56,50.86,76.04,50.86,76.21,51.2z"/>
			<path fill="#FFC726" d="M90.23,51.2l1.52,3.08c0.07,0.13,0.19,0.23,0.34,0.25l3.4,0.49c0.37,0.05,0.52,0.51,0.25,0.78l-2.46,2.4
				c-0.11,0.1-0.16,0.26-0.13,0.4l0.58,3.39c0.06,0.37-0.33,0.66-0.66,0.48l-3.04-1.6c-0.13-0.07-0.29-0.07-0.42,0l-3.04,1.6
				c-0.33,0.18-0.73-0.11-0.66-0.48l0.58-3.39c0.03-0.15-0.02-0.3-0.13-0.4l-2.46-2.4c-0.27-0.26-0.12-0.72,0.25-0.78l3.4-0.49
				c0.15-0.02,0.28-0.11,0.34-0.25l1.52-3.08C89.58,50.86,90.07,50.86,90.23,51.2z"/>
		</g>
		<g>
			<path fill="#194646" d="M71.43,133.85c-2.42,2.18-5.63,3.39-9.14,3.39c-7.74,0-13.43-5.69-13.43-13.49s5.51-13.26,13.43-13.26
				c3.45,0,6.71,1.15,9.2,3.33l1.69,1.45l7.51-7.5l-1.88-1.7c-4.42-3.99-10.28-6.23-16.52-6.23c-13.92,0-24.02,10.04-24.02,23.84
				c0,13.74,10.35,24.14,24.02,24.14c6.35,0,12.28-2.24,16.64-6.29l1.81-1.7l-7.62-7.5L71.43,133.85z"/>
			<path fill="#FF3D2E" d="M61.92,115.82c4.45,0,8.05,3.6,8.05,8.05c0,4.45-3.6,8.05-8.05,8.05s-8.05-3.6-8.05-8.05
				C53.87,119.42,57.47,115.82,61.92,115.82"/>
			<path fill="#B49600" d="M61.78,175c-28.21,0-51.16-22.95-51.16-51.16s22.95-51.16,51.16-51.16s51.16,22.95,51.16,51.16
				S89.99,175,61.78,175z M61.78,73.29c-27.87,0-50.54,22.67-50.54,50.54s22.67,50.54,50.54,50.54s50.54-22.67,50.54-50.54
				S89.65,73.29,61.78,73.29z"/>
			<path fill="#194646" d="M61.78,76.73c-26.02,0-47.11,21.09-47.11,47.11s21.09,47.11,47.11,47.11c26.02,0,47.11-21.09,47.11-47.11
				S87.8,76.73,61.78,76.73z M61.78,157.4c-18.54,0-33.56-15.03-33.56-33.56s15.03-33.56,33.56-33.56
				c18.54,0,33.56,15.03,33.56,33.56S80.32,157.4,61.78,157.4z"/>
			<g>
				<path fill="#FFFFFF" d="M26.03,127.96c0.04,0.33,0.03,0.63-0.04,0.9c-0.06,0.26-0.17,0.49-0.32,0.67
					c-0.15,0.18-0.34,0.34-0.58,0.47c-0.24,0.13-0.49,0.23-0.77,0.31c-0.28,0.07-0.6,0.13-0.95,0.17l-2.26,0.27
					c-0.36,0.04-0.68,0.06-0.97,0.05c-0.29-0.01-0.56-0.05-0.82-0.12s-0.48-0.18-0.67-0.32c-0.18-0.14-0.34-0.33-0.46-0.58
					c-0.12-0.24-0.21-0.53-0.25-0.86c-0.04-0.37-0.03-0.69,0.05-0.97c0.08-0.28,0.21-0.51,0.41-0.7c0.19-0.19,0.43-0.33,0.7-0.45
					c0.27-0.11,0.59-0.2,0.96-0.26c0.06-0.01,0.14-0.02,0.26-0.03l0.13,1.13l-0.25,0.03c-0.16,0.02-0.29,0.04-0.4,0.07
					c-0.11,0.02-0.22,0.05-0.34,0.09c-0.12,0.04-0.21,0.08-0.28,0.14c-0.07,0.05-0.14,0.12-0.2,0.2c-0.06,0.08-0.1,0.17-0.12,0.28
					c-0.02,0.11-0.02,0.23,0,0.38c0.02,0.18,0.07,0.34,0.14,0.46c0.07,0.12,0.16,0.22,0.26,0.28c0.1,0.06,0.23,0.1,0.39,0.13
					c0.16,0.02,0.32,0.03,0.47,0.02c0.15-0.01,0.33-0.02,0.55-0.05l2.83-0.33c0.19-0.02,0.36-0.05,0.51-0.08
					c0.15-0.03,0.3-0.08,0.45-0.15c0.15-0.06,0.27-0.14,0.36-0.23c0.09-0.09,0.17-0.2,0.21-0.33c0.05-0.13,0.06-0.28,0.04-0.45
					s-0.07-0.31-0.15-0.42c-0.08-0.11-0.17-0.2-0.28-0.26s-0.24-0.1-0.4-0.12s-0.32-0.03-0.46-0.02c-0.15,0.01-0.32,0.02-0.51,0.04
					l-0.28,0.03l-0.13-1.13l0.28-0.03c0.41-0.05,0.77-0.05,1.09-0.02c0.32,0.04,0.6,0.12,0.86,0.25c0.26,0.13,0.46,0.33,0.62,0.59
					C25.89,127.25,25.99,127.57,26.03,127.96z"/>
				<path fill="#FFFFFF" d="M25.71,123.06l-7.96-0.44l0.06-1.14l7.11,0.39l0.11-1.99l0.85,0.05L25.71,123.06z"/>
				<path fill="#FFFFFF" d="M26.9,114.36c0.03,0.28,0,0.59-0.08,0.92c-0.08,0.34-0.2,0.62-0.35,0.86c-0.15,0.23-0.33,0.42-0.53,0.54
					c-0.2,0.13-0.43,0.21-0.7,0.26c-0.27,0.05-0.55,0.06-0.84,0.03c-0.29-0.02-0.62-0.08-0.97-0.17l-4.98-1.21l0.27-1.11l4.98,1.21
					c0.24,0.06,0.44,0.1,0.61,0.13c0.16,0.03,0.34,0.04,0.54,0.05c0.19,0,0.35-0.02,0.48-0.07c0.13-0.05,0.25-0.14,0.35-0.26
					c0.11-0.12,0.18-0.28,0.23-0.48c0.05-0.2,0.05-0.38,0.02-0.54c-0.04-0.16-0.1-0.29-0.19-0.39c-0.09-0.1-0.22-0.2-0.4-0.29
					c-0.17-0.09-0.34-0.16-0.5-0.2c-0.16-0.05-0.36-0.1-0.6-0.16l-4.98-1.21l0.27-1.11l4.98,1.21c0.35,0.09,0.67,0.18,0.94,0.3
					c0.27,0.11,0.51,0.25,0.73,0.41c0.22,0.16,0.39,0.35,0.51,0.55C26.8,113.84,26.88,114.08,26.9,114.36z"/>
				<path fill="#FFFFFF" d="M28.71,109.38l-6.34-2.88l-0.59,1.3l-0.92-0.42l1.65-3.63l0.92,0.42l-0.59,1.3l6.34,2.88L28.71,109.38z"
					/>
				<path fill="#FFFFFF" d="M32.25,103.21c-0.19,0.28-0.4,0.49-0.62,0.65c-0.22,0.16-0.45,0.25-0.68,0.29
					c-0.23,0.04-0.48,0.03-0.74-0.03c-0.26-0.06-0.53-0.15-0.78-0.28c-0.26-0.13-0.54-0.29-0.83-0.5l-1.87-1.29
					c-0.3-0.2-0.55-0.4-0.76-0.6s-0.39-0.41-0.54-0.63c-0.15-0.23-0.24-0.45-0.29-0.68c-0.04-0.23-0.03-0.47,0.03-0.74
					c0.07-0.26,0.2-0.53,0.39-0.81c0.21-0.3,0.44-0.54,0.68-0.7c0.24-0.16,0.5-0.25,0.77-0.26c0.27-0.01,0.54,0.03,0.82,0.12
					c0.28,0.09,0.58,0.24,0.9,0.44c0.05,0.03,0.12,0.08,0.22,0.15l-0.65,0.94l-0.21-0.14c-0.13-0.09-0.24-0.16-0.34-0.21
					c-0.1-0.06-0.2-0.11-0.31-0.15c-0.11-0.05-0.21-0.08-0.3-0.08c-0.09-0.01-0.18,0-0.28,0.02c-0.09,0.02-0.18,0.06-0.27,0.13
					c-0.09,0.07-0.17,0.16-0.25,0.28c-0.1,0.15-0.17,0.3-0.2,0.44c-0.03,0.14-0.02,0.27,0.01,0.39c0.04,0.11,0.11,0.23,0.21,0.35
					c0.11,0.12,0.22,0.23,0.34,0.33c0.12,0.09,0.27,0.2,0.45,0.33l2.35,1.62c0.16,0.11,0.3,0.2,0.44,0.27
					c0.14,0.07,0.28,0.13,0.43,0.18c0.15,0.05,0.29,0.07,0.42,0.07c0.13,0,0.25-0.04,0.38-0.11c0.12-0.07,0.23-0.17,0.33-0.31
					c0.1-0.14,0.15-0.28,0.17-0.41c0.02-0.14,0-0.26-0.04-0.38c-0.04-0.11-0.12-0.23-0.23-0.35c-0.11-0.12-0.22-0.23-0.33-0.32
					c-0.12-0.09-0.25-0.2-0.42-0.31l-0.23-0.16l0.65-0.94l0.23,0.16c0.34,0.23,0.62,0.47,0.83,0.71c0.22,0.24,0.38,0.49,0.48,0.76
					c0.11,0.27,0.13,0.55,0.08,0.85C32.61,102.57,32.47,102.88,32.25,103.21z"/>
				<path fill="#FFFFFF" d="M35.18,99.32l-5.56-5.72l0.82-0.79l2.38,2.45l1.43-1.39l-2.38-2.45l0.82-0.79l5.56,5.72l-0.82,0.79
					l-2.58-2.66l-1.43,1.39L36,98.52L35.18,99.32z"/>
				<path fill="#FFFFFF" d="M44.82,91.87l-3.2-6.18l-1.26,0.66l-0.47-0.9l3.54-1.83l0.47,0.9l-1.26,0.66l3.2,6.18L44.82,91.87z"/>
				<path fill="#FFFFFF" d="M51.41,89.22c-0.38,0.12-0.73,0.16-1.04,0.13c-0.31-0.03-0.58-0.14-0.81-0.31
					c-0.23-0.17-0.43-0.4-0.59-0.68c-0.17-0.28-0.31-0.62-0.43-1.02l-0.84-2.77c-0.12-0.4-0.19-0.76-0.21-1.08
					c-0.02-0.32,0.02-0.62,0.12-0.88c0.09-0.27,0.26-0.5,0.5-0.7c0.24-0.19,0.55-0.35,0.93-0.47c0.74-0.23,1.34-0.18,1.8,0.15
					c0.46,0.32,0.81,0.89,1.06,1.7l0.84,2.77c0.12,0.4,0.19,0.75,0.21,1.08c0.02,0.32-0.02,0.63-0.11,0.9
					c-0.09,0.27-0.26,0.51-0.5,0.71C52.1,88.94,51.79,89.1,51.41,89.22z M50.24,88.22c0.22,0.18,0.52,0.22,0.9,0.1
					c0.38-0.12,0.61-0.31,0.69-0.59c0.08-0.27,0.05-0.64-0.09-1.08l-1.01-3.31c-0.14-0.44-0.31-0.75-0.52-0.93
					c-0.21-0.17-0.51-0.2-0.9-0.08c-0.39,0.12-0.62,0.31-0.7,0.57c-0.08,0.26-0.05,0.62,0.09,1.06l1.01,3.31
					C49.85,87.72,50.02,88.04,50.24,88.22z"/>
				<path fill="#FFFFFF" d="M56.46,87.95l-0.83-7.93l1.98-0.21c1.32-0.14,2.06,0.55,2.22,2.06c0.07,0.65-0.05,1.16-0.36,1.53
					c-0.31,0.37-0.78,0.59-1.42,0.66l-0.85,0.09l0.38,3.68L56.46,87.95z M57.12,83.29l0.28-0.03c0.26-0.03,0.47-0.06,0.63-0.11
					c0.16-0.05,0.3-0.12,0.42-0.21c0.12-0.09,0.19-0.22,0.23-0.38c0.04-0.16,0.05-0.35,0.02-0.58c-0.03-0.28-0.07-0.51-0.13-0.68
					s-0.15-0.31-0.27-0.41c-0.12-0.1-0.27-0.16-0.45-0.19c-0.18-0.02-0.41-0.02-0.7,0.01l-0.28,0.03L57.12,83.29z"/>
				<path fill="#FFFFFF" d="M69.04,88.34c-0.33-0.06-0.61-0.17-0.84-0.31s-0.41-0.31-0.54-0.51c-0.13-0.2-0.22-0.43-0.27-0.69
					c-0.05-0.27-0.07-0.54-0.06-0.83c0.01-0.29,0.05-0.61,0.12-0.96l0.43-2.23c0.07-0.35,0.15-0.67,0.24-0.94
					c0.09-0.27,0.22-0.52,0.36-0.75c0.15-0.23,0.32-0.41,0.51-0.54c0.19-0.13,0.42-0.22,0.69-0.27c0.27-0.04,0.57-0.04,0.9,0.03
					c0.36,0.07,0.67,0.18,0.91,0.34c0.24,0.16,0.43,0.36,0.54,0.6c0.12,0.24,0.19,0.51,0.22,0.8c0.03,0.29,0.01,0.63-0.05,1
					c-0.01,0.06-0.02,0.14-0.05,0.26l-1.12-0.22l0.05-0.25c0.03-0.15,0.05-0.29,0.06-0.4c0.01-0.11,0.02-0.23,0.02-0.35
					c0-0.12-0.02-0.22-0.05-0.31c-0.03-0.09-0.07-0.17-0.13-0.25c-0.06-0.08-0.13-0.14-0.23-0.19c-0.1-0.05-0.22-0.09-0.36-0.12
					c-0.18-0.03-0.34-0.04-0.48,0c-0.14,0.03-0.26,0.09-0.35,0.17c-0.09,0.08-0.17,0.19-0.24,0.34c-0.07,0.15-0.12,0.29-0.16,0.44
					c-0.04,0.14-0.08,0.32-0.12,0.54l-0.54,2.8c-0.04,0.19-0.06,0.36-0.07,0.51c-0.01,0.15-0.01,0.31,0.01,0.47
					c0.02,0.16,0.05,0.3,0.11,0.41c0.05,0.12,0.14,0.22,0.25,0.3c0.11,0.09,0.25,0.15,0.42,0.18c0.17,0.03,0.31,0.03,0.45-0.01
					c0.13-0.04,0.24-0.1,0.33-0.19c0.09-0.09,0.17-0.2,0.23-0.35c0.07-0.15,0.12-0.29,0.16-0.44c0.04-0.14,0.08-0.31,0.12-0.5
					l0.05-0.28l1.12,0.22l-0.05,0.28c-0.08,0.41-0.18,0.75-0.31,1.05c-0.13,0.29-0.3,0.54-0.5,0.74c-0.2,0.2-0.45,0.34-0.75,0.41
					C69.77,88.41,69.43,88.41,69.04,88.34z"/>
				<path fill="#FFFFFF" d="M75.64,90.31c-0.37-0.15-0.67-0.34-0.89-0.56c-0.22-0.22-0.36-0.47-0.43-0.75
					c-0.07-0.28-0.08-0.58-0.03-0.9c0.05-0.32,0.15-0.68,0.31-1.06l1.09-2.68c0.16-0.39,0.33-0.71,0.52-0.97
					c0.19-0.26,0.41-0.46,0.65-0.61c0.24-0.15,0.52-0.22,0.83-0.22s0.65,0.08,1.02,0.23c0.72,0.29,1.16,0.71,1.31,1.25
					c0.15,0.54,0.07,1.2-0.25,1.98l-1.09,2.68c-0.16,0.38-0.33,0.7-0.52,0.97c-0.19,0.26-0.41,0.47-0.66,0.63
					c-0.25,0.15-0.52,0.23-0.84,0.24C76.35,90.53,76.01,90.46,75.64,90.31z M75.36,88.8c0.05,0.28,0.26,0.5,0.63,0.65
					c0.37,0.15,0.67,0.14,0.9-0.02c0.23-0.17,0.44-0.47,0.61-0.9l1.31-3.21c0.17-0.43,0.24-0.78,0.18-1.05
					c-0.05-0.27-0.27-0.48-0.64-0.63c-0.37-0.15-0.67-0.15-0.9,0c-0.23,0.15-0.43,0.45-0.6,0.87l-1.31,3.21
					C75.37,88.16,75.31,88.52,75.36,88.8z"/>
				<path fill="#FFFFFF" d="M80.35,92.44l4.53-6.56l1.3,0.9l-2.54,5.67l4.4-4.38l1.3,0.9l-4.53,6.56l-0.94-0.65l3.58-5.18
					l-4.52,4.53l-0.7-0.49l2.64-5.83l-3.58,5.18L80.35,92.44z"/>
				<path fill="#FFFFFF" d="M87.11,97.62l5.79-5.49l1.37,1.45c0.91,0.96,0.82,1.97-0.28,3.02c-0.47,0.45-0.95,0.66-1.43,0.65
					c-0.48-0.01-0.94-0.26-1.39-0.72l-0.59-0.62l-2.69,2.55L87.11,97.62z M91.2,95.32l0.2,0.21c0.18,0.19,0.33,0.33,0.47,0.43
					c0.13,0.1,0.27,0.17,0.42,0.2c0.15,0.03,0.29,0.02,0.44-0.04c0.15-0.06,0.31-0.18,0.48-0.34c0.21-0.2,0.36-0.37,0.46-0.52
					c0.1-0.15,0.15-0.31,0.16-0.47c0.01-0.16-0.04-0.32-0.13-0.47c-0.09-0.16-0.24-0.34-0.44-0.55l-0.2-0.21L91.2,95.32z"/>
				<path fill="#FFFFFF" d="M91.03,102l7.6-2.96l0.63,0.95l-5.72,5.82l-0.63-0.95l1.43-1.45l-0.78-1.19l-1.9,0.74L91.03,102z
					 M94.35,101.85l0.63,0.95l2.54-2.36L94.35,101.85z"/>
				<path fill="#FFFFFF" d="M94.76,108.16l7.37-3.04l0.33,0.79l-3.8,3.73l4.56-1.88l0.44,1.05l-7.37,3.05l-0.31-0.75l4.13-3.91
					l-4.9,2.03L94.76,108.16z"/>
				<path fill="#FFFFFF" d="M97.16,114.94l7.76-1.82l0.26,1.11l-7.76,1.82L97.16,114.94z"/>
				<path fill="#FFFFFF" d="M98,119.3l7.95-0.69l0.27,3.12l-0.85,0.07l-0.17-1.99l-2.55,0.22l0.12,1.42l-0.85,0.07l-0.12-1.42
					l-2.84,0.25l0.17,1.99l-0.85,0.07L98,119.3z"/>
				<path fill="#FFFFFF" d="M98.02,127.21c0.06-0.72,0.32-1.24,0.77-1.58c0.45-0.34,1.04-0.5,1.78-0.48l0.19,1.16
					c-1.14-0.04-1.74,0.29-1.8,0.99c-0.05,0.57,0.21,0.88,0.78,0.92c0.17,0.01,0.33,0.01,0.47-0.03c0.15-0.03,0.28-0.09,0.41-0.18
					c0.13-0.08,0.23-0.16,0.31-0.23c0.08-0.07,0.18-0.17,0.3-0.29l1.26-1.32c0.23-0.24,0.5-0.43,0.83-0.56
					c0.33-0.13,0.69-0.17,1.1-0.14c0.59,0.05,1.03,0.27,1.35,0.67c0.31,0.39,0.45,0.89,0.39,1.49c-0.06,0.64-0.26,1.14-0.61,1.5
					c-0.35,0.35-0.81,0.55-1.4,0.59c-0.06,0-0.15,0.01-0.26,0.01l-0.19-1.16c0.05,0,0.13,0,0.23,0c0.36-0.02,0.66-0.11,0.9-0.26
					c0.23-0.16,0.36-0.41,0.39-0.75c0.02-0.27-0.03-0.49-0.17-0.65c-0.14-0.16-0.34-0.25-0.62-0.28c-0.45-0.04-0.84,0.12-1.17,0.47
					l-1.26,1.32c-0.68,0.7-1.44,1.02-2.29,0.94c-0.58-0.05-1.02-0.27-1.32-0.66C98.09,128.31,97.97,127.81,98.02,127.21z"/>
			</g>
			<g>
				<path fill="#FFFFFF" d="M29.87,154.89c-0.26-0.26-0.44-0.52-0.56-0.79c-0.11-0.26-0.17-0.52-0.16-0.76
					c0.01-0.24,0.08-0.5,0.2-0.77c0.13-0.27,0.28-0.52,0.47-0.76c0.19-0.24,0.43-0.5,0.71-0.78l1.44-1.42
					c1.39-1.37,2.63-1.5,3.72-0.4c0.26,0.26,0.45,0.53,0.56,0.8s0.15,0.54,0.12,0.81s-0.12,0.54-0.27,0.8
					c-0.14,0.26-0.34,0.53-0.6,0.81c-0.04,0.04-0.09,0.1-0.17,0.17l-0.8-0.81l0.17-0.17c0.13-0.13,0.24-0.25,0.32-0.36
					c0.08-0.11,0.16-0.22,0.22-0.34c0.06-0.12,0.1-0.24,0.1-0.35c0.01-0.11-0.02-0.23-0.07-0.35c-0.05-0.12-0.14-0.24-0.26-0.36
					c-0.16-0.16-0.33-0.27-0.5-0.33c-0.17-0.05-0.34-0.05-0.52,0c-0.17,0.05-0.34,0.14-0.51,0.25c-0.16,0.11-0.34,0.26-0.52,0.44
					l-1.83,1.8c-0.14,0.13-0.25,0.26-0.35,0.37c-0.1,0.12-0.2,0.24-0.29,0.37c-0.09,0.13-0.16,0.26-0.21,0.38
					c-0.04,0.12-0.07,0.24-0.08,0.37c-0.01,0.12,0.01,0.25,0.06,0.37c0.05,0.12,0.13,0.24,0.25,0.35c0.13,0.14,0.28,0.23,0.43,0.27
					c0.15,0.05,0.3,0.06,0.44,0.03c0.14-0.02,0.29-0.08,0.45-0.18c0.16-0.09,0.31-0.2,0.45-0.31c0.14-0.11,0.29-0.25,0.45-0.41
					l0.2-0.2l-0.8-0.81l0.6-0.59l1.6,1.62l-2.83,2.79l-0.6-0.61l0.41-0.8C30.74,155.33,30.25,155.28,29.87,154.89z"/>
				<path fill="#FFFFFF" d="M34.56,158.95l4.68-6.46l0.92,0.67l-4.18,5.77l1.61,1.17l-0.5,0.69L34.56,158.95z"/>
				<path fill="#FFFFFF" d="M41.93,163.63c-0.36-0.18-0.64-0.39-0.84-0.62c-0.2-0.24-0.33-0.5-0.37-0.78
					c-0.05-0.29-0.04-0.59,0.04-0.9c0.07-0.32,0.2-0.66,0.39-1.04l1.29-2.59c0.19-0.38,0.38-0.68,0.59-0.93
					c0.21-0.24,0.44-0.43,0.69-0.56c0.25-0.13,0.53-0.18,0.84-0.16c0.31,0.02,0.64,0.12,1,0.3c0.7,0.34,1.1,0.79,1.21,1.35
					c0.11,0.55-0.02,1.21-0.4,1.96l-1.29,2.59c-0.18,0.37-0.38,0.68-0.59,0.93c-0.21,0.25-0.45,0.44-0.7,0.58
					c-0.26,0.14-0.54,0.2-0.85,0.18C42.62,163.9,42.29,163.81,41.93,163.63z M41.76,162.1c0.03,0.28,0.22,0.51,0.58,0.69
					c0.36,0.18,0.66,0.19,0.9,0.05c0.24-0.15,0.47-0.43,0.68-0.85l1.54-3.1c0.21-0.42,0.29-0.76,0.26-1.03
					c-0.03-0.27-0.23-0.5-0.59-0.68c-0.36-0.18-0.66-0.2-0.9-0.06c-0.24,0.14-0.46,0.41-0.66,0.83l-1.54,3.1
					C41.82,161.47,41.73,161.82,41.76,162.1z"/>
				<path fill="#FFFFFF" d="M48.02,166.08l2.13-7.69l1.65,0.46c0.35,0.1,0.66,0.22,0.92,0.38c0.26,0.15,0.47,0.33,0.64,0.54
					c0.17,0.21,0.27,0.46,0.32,0.74c0.04,0.28,0.02,0.59-0.07,0.92c-0.13,0.48-0.34,0.82-0.61,1.01c-0.27,0.19-0.64,0.29-1.09,0.29
					c0.42,0.28,0.7,0.6,0.84,0.95c0.15,0.36,0.15,0.81-0.01,1.35c-0.19,0.68-0.53,1.16-1.04,1.44c-0.5,0.28-1.09,0.33-1.77,0.14
					L48.02,166.08z M49.35,165.56l0.55,0.15c0.48,0.13,0.85,0.12,1.13-0.04c0.28-0.16,0.49-0.48,0.62-0.95
					c0.13-0.48,0.12-0.86-0.04-1.14c-0.16-0.28-0.48-0.49-0.95-0.62l-0.55-0.15L49.35,165.56z M50.34,161.99l0.55,0.15
					c0.92,0.25,1.5-0.08,1.75-0.99c0.04-0.15,0.06-0.29,0.06-0.42c-0.01-0.13-0.02-0.23-0.05-0.33s-0.09-0.18-0.18-0.26
					c-0.09-0.08-0.17-0.15-0.25-0.2c-0.08-0.05-0.19-0.11-0.35-0.16c-0.16-0.06-0.28-0.1-0.39-0.13c-0.11-0.03-0.25-0.07-0.45-0.13
					L50.34,161.99z"/>
				<path fill="#FFFFFF" d="M55.62,167.85l2.42-7.79l1.14,0.1l0.98,8.1l-1.13-0.1l-0.25-2.02l-1.42-0.13l-0.61,1.95L55.62,167.85z
					 M57.58,165.17l1.14,0.1l-0.26-3.46L57.58,165.17z"/>
				<path fill="#FFFFFF" d="M63.68,168.23l-0.52-7.96l1.14-0.07l0.46,7.11l1.99-0.13l0.06,0.85L63.68,168.23z"/>
				<path fill="#FFFFFF" d="M73.58,166.78l-0.34-1.09l1.06-3.31c0.01-0.04,0.04-0.12,0.08-0.25c0.04-0.13,0.07-0.22,0.09-0.26
					c0.01-0.05,0.04-0.13,0.07-0.24c0.03-0.12,0.05-0.21,0.06-0.27c0.01-0.06,0.02-0.14,0.03-0.25c0.01-0.11,0.01-0.2,0.01-0.28
					c-0.01-0.08-0.02-0.17-0.04-0.28c-0.02-0.11-0.04-0.21-0.08-0.31c-0.09-0.3-0.25-0.54-0.45-0.71c-0.21-0.17-0.44-0.21-0.7-0.13
					c-0.16,0.05-0.28,0.13-0.36,0.24c-0.09,0.11-0.14,0.24-0.15,0.4c-0.02,0.15-0.01,0.31,0.01,0.47c0.02,0.16,0.06,0.33,0.12,0.51
					l0.09,0.27l-1.09,0.34l-0.09-0.27c-0.22-0.71-0.24-1.31-0.06-1.8c0.18-0.49,0.6-0.84,1.26-1.04c0.62-0.19,1.14-0.17,1.58,0.08
					c0.43,0.25,0.75,0.68,0.95,1.31c0.07,0.24,0.12,0.46,0.14,0.68c0.02,0.22,0.02,0.43-0.01,0.65c-0.03,0.21-0.06,0.4-0.1,0.54
					c-0.04,0.14-0.09,0.33-0.17,0.56l-1.14,3.04l2.72-0.85l0.34,1.09L73.58,166.78z"/>
				<path fill="#FFFFFF" d="M82.69,163.3c-0.39,0.2-0.76,0.28-1.12,0.23c-0.36-0.04-0.69-0.18-0.98-0.43
					c-0.29-0.24-0.54-0.57-0.75-0.99l-1.57-3.04c-0.34-0.65-0.45-1.24-0.35-1.77c0.1-0.53,0.45-0.94,1.04-1.25
					c0.59-0.3,1.13-0.34,1.62-0.12c0.49,0.22,0.9,0.66,1.24,1.3l1.57,3.04c0.33,0.64,0.44,1.22,0.33,1.76
					C83.6,162.59,83.26,163,82.69,163.3z M82.26,162.47c0.51-0.26,0.54-0.81,0.1-1.66l-1.57-3.04c-0.07-0.14-0.14-0.27-0.21-0.37
					c-0.07-0.11-0.15-0.21-0.24-0.31c-0.09-0.1-0.18-0.17-0.28-0.22c-0.09-0.05-0.2-0.07-0.32-0.07c-0.12,0-0.24,0.03-0.36,0.1
					c-0.13,0.06-0.22,0.14-0.29,0.24c-0.07,0.09-0.11,0.19-0.12,0.3s-0.01,0.22,0.02,0.35c0.03,0.13,0.06,0.26,0.11,0.37
					c0.05,0.12,0.11,0.25,0.18,0.39l1.57,3.04c0.09,0.17,0.18,0.31,0.27,0.44c0.09,0.13,0.2,0.24,0.32,0.34
					c0.12,0.1,0.25,0.16,0.39,0.18C81.97,162.58,82.11,162.55,82.26,162.47z"/>
				<path fill="#FFFFFF" d="M88.03,159.96l-3.66-5.09l-0.69,0.5l-0.5-0.69c0.35-0.5,0.49-0.95,0.43-1.36l0.69-0.5l4.66,6.48
					L88.03,159.96z"/>
				<path fill="#FFFFFF" d="M93.36,155.63c-0.46,0.45-0.94,0.66-1.44,0.64c-0.5-0.02-0.98-0.27-1.43-0.74l0.82-0.79
					c0.26,0.27,0.51,0.44,0.73,0.49c0.22,0.05,0.45-0.04,0.68-0.26c0.41-0.4,0.22-1-0.57-1.82l-0.79-0.82
					c0.1,0.43-0.04,0.83-0.42,1.2c-0.23,0.22-0.47,0.37-0.71,0.45c-0.24,0.08-0.48,0.08-0.72,0.02c-0.24-0.06-0.47-0.17-0.69-0.32
					c-0.22-0.15-0.46-0.35-0.7-0.6c-0.26-0.27-0.47-0.54-0.63-0.81c-0.16-0.27-0.27-0.55-0.33-0.84c-0.06-0.28-0.04-0.57,0.05-0.85
					c0.09-0.28,0.26-0.54,0.51-0.79c0.2-0.19,0.41-0.33,0.63-0.42c0.22-0.09,0.45-0.13,0.67-0.12c0.22,0.01,0.45,0.06,0.68,0.14
					c0.23,0.09,0.45,0.21,0.67,0.36c0.21,0.15,0.42,0.33,0.63,0.54l1.78,1.84c0.23,0.23,0.42,0.47,0.59,0.69
					c0.17,0.23,0.3,0.46,0.41,0.71c0.11,0.25,0.17,0.49,0.19,0.72c0.02,0.23-0.02,0.47-0.12,0.7
					C93.73,155.2,93.57,155.43,93.36,155.63z M90.53,152.71c0.26-0.25,0.33-0.59,0.22-1l-0.79-0.82c-0.13-0.14-0.26-0.25-0.39-0.35
					s-0.26-0.17-0.41-0.23c-0.14-0.06-0.28-0.08-0.42-0.06c-0.14,0.02-0.27,0.09-0.38,0.2c-0.12,0.11-0.19,0.24-0.22,0.38
					c-0.03,0.14-0.01,0.28,0.04,0.42c0.06,0.14,0.13,0.28,0.22,0.42c0.09,0.13,0.2,0.27,0.33,0.4c0.08,0.08,0.14,0.14,0.18,0.18
					c0.04,0.04,0.1,0.1,0.18,0.17s0.14,0.13,0.18,0.17c0.05,0.04,0.1,0.08,0.18,0.14c0.07,0.05,0.13,0.09,0.18,0.11
					c0.05,0.02,0.11,0.04,0.18,0.07c0.07,0.03,0.13,0.04,0.19,0.03c0.05,0,0.11-0.01,0.18-0.02c0.06-0.01,0.13-0.04,0.19-0.08
					C90.41,152.82,90.47,152.77,90.53,152.71z"/>
			</g>
		</g>
		<g>
			<path d="M2.57,43.88c-0.47,0-0.9-0.1-1.28-0.28c-0.38-0.19-0.69-0.45-0.91-0.78C0.15,42.49,0.02,42.12,0,41.7h0.97
				c0.04,0.37,0.21,0.68,0.51,0.93s0.67,0.37,1.09,0.37c0.34,0,0.64-0.08,0.91-0.24c0.27-0.16,0.47-0.38,0.63-0.66
				c0.15-0.28,0.23-0.59,0.23-0.95c0-0.36-0.08-0.68-0.24-0.97c-0.16-0.28-0.37-0.51-0.65-0.67s-0.59-0.25-0.94-0.25
				c-0.25,0-0.51,0.04-0.78,0.11c-0.27,0.08-0.49,0.18-0.66,0.31l-0.94-0.11l0.5-4.08h4.31v0.89H1.47l-0.29,2.44h0.05
				c0.17-0.14,0.38-0.25,0.64-0.34c0.26-0.09,0.52-0.13,0.8-0.13c0.51,0,0.96,0.12,1.36,0.36s0.71,0.57,0.94,0.99
				c0.23,0.42,0.34,0.9,0.34,1.43c0,0.53-0.12,1-0.35,1.41c-0.24,0.42-0.56,0.74-0.97,0.98C3.57,43.76,3.1,43.88,2.57,43.88z"/>
			<path d="M14.79,37.55c-0.05-0.41-0.25-0.73-0.59-0.95c-0.34-0.23-0.77-0.34-1.27-0.34c-0.37,0-0.69,0.06-0.96,0.18
				c-0.27,0.12-0.49,0.28-0.64,0.49c-0.15,0.21-0.23,0.44-0.23,0.71c0,0.22,0.05,0.41,0.16,0.57c0.11,0.16,0.24,0.29,0.41,0.39
				s0.34,0.19,0.53,0.26c0.18,0.07,0.35,0.12,0.51,0.16l0.84,0.23c0.22,0.06,0.46,0.14,0.72,0.24c0.27,0.1,0.52,0.23,0.76,0.41
				c0.24,0.17,0.45,0.39,0.6,0.66c0.16,0.27,0.24,0.6,0.24,0.98c0,0.45-0.12,0.85-0.35,1.21c-0.23,0.36-0.57,0.65-1.02,0.86
				c-0.45,0.21-0.99,0.32-1.62,0.32c-0.59,0-1.11-0.1-1.54-0.29c-0.43-0.19-0.77-0.46-1.02-0.8c-0.25-0.34-0.39-0.74-0.42-1.19h1.04
				c0.03,0.31,0.13,0.57,0.32,0.78c0.18,0.2,0.42,0.35,0.7,0.45s0.59,0.15,0.92,0.15c0.38,0,0.73-0.06,1.03-0.19
				c0.3-0.13,0.55-0.3,0.72-0.53c0.18-0.23,0.27-0.49,0.27-0.79c0-0.28-0.08-0.5-0.23-0.67c-0.15-0.17-0.36-0.31-0.61-0.42
				c-0.25-0.11-0.52-0.2-0.81-0.28l-1.02-0.29c-0.65-0.19-1.16-0.45-1.54-0.8s-0.57-0.8-0.57-1.35c0-0.47,0.13-0.87,0.38-1.22
				s0.59-0.62,1.02-0.81c0.43-0.19,0.91-0.29,1.43-0.29c0.53,0,1.01,0.1,1.42,0.29c0.42,0.19,0.75,0.45,0.99,0.78
				c0.24,0.33,0.37,0.7,0.39,1.12H14.79z"/>
			<path d="M20.1,37.55v0.81h-3.22v-0.81H20.1z M17.82,36.06h0.96v5.92c0,0.27,0.04,0.47,0.12,0.61c0.08,0.13,0.18,0.22,0.31,0.27
				c0.13,0.04,0.26,0.07,0.4,0.07c0.1,0,0.19-0.01,0.26-0.02c0.07-0.01,0.12-0.02,0.16-0.03l0.19,0.86
				c-0.06,0.02-0.16,0.05-0.27,0.08s-0.26,0.04-0.44,0.04c-0.27,0-0.53-0.06-0.79-0.17s-0.47-0.29-0.64-0.53
				c-0.17-0.24-0.25-0.54-0.25-0.9V36.06z"/>
			<path d="M23.37,43.91c-0.39,0-0.75-0.07-1.07-0.22c-0.32-0.15-0.58-0.37-0.76-0.65c-0.19-0.28-0.28-0.63-0.28-1.03
				c0-0.36,0.07-0.65,0.21-0.87c0.14-0.22,0.33-0.4,0.56-0.52c0.23-0.13,0.49-0.22,0.78-0.28s0.57-0.11,0.86-0.15
				c0.38-0.05,0.68-0.09,0.92-0.11s0.41-0.07,0.52-0.13c0.11-0.06,0.16-0.17,0.16-0.32v-0.03c0-0.4-0.11-0.71-0.33-0.93
				c-0.22-0.22-0.55-0.33-0.99-0.33c-0.46,0-0.81,0.1-1.07,0.3c-0.26,0.2-0.44,0.41-0.55,0.64l-0.91-0.32
				c0.16-0.38,0.38-0.67,0.65-0.88c0.27-0.21,0.57-0.36,0.89-0.44c0.32-0.09,0.64-0.13,0.95-0.13c0.2,0,0.43,0.02,0.69,0.07
				c0.26,0.05,0.51,0.14,0.76,0.29c0.24,0.15,0.45,0.37,0.61,0.66c0.16,0.29,0.24,0.69,0.24,1.18v4.1h-0.96v-0.84h-0.05
				c-0.06,0.13-0.17,0.28-0.32,0.43c-0.15,0.15-0.35,0.28-0.6,0.39C24.04,43.86,23.73,43.91,23.37,43.91z M23.52,43.06
				c0.38,0,0.7-0.07,0.96-0.22c0.26-0.15,0.46-0.34,0.59-0.57c0.13-0.24,0.2-0.48,0.2-0.74v-0.87c-0.04,0.05-0.13,0.09-0.26,0.13
				s-0.29,0.07-0.47,0.1c-0.18,0.03-0.35,0.05-0.51,0.07c-0.17,0.02-0.3,0.04-0.4,0.05c-0.25,0.03-0.48,0.08-0.69,0.16
				c-0.21,0.07-0.39,0.18-0.52,0.32c-0.13,0.14-0.2,0.33-0.2,0.58c0,0.33,0.12,0.58,0.37,0.75C22.82,42.97,23.14,43.06,23.52,43.06z
				"/>
			<path d="M27.97,43.77v-6.22h0.92v0.94h0.06c0.11-0.31,0.32-0.56,0.61-0.75s0.63-0.29,1-0.29c0.07,0,0.16,0,0.26,0
				c0.11,0,0.18,0.01,0.24,0.01v0.97c-0.03-0.01-0.11-0.02-0.22-0.04c-0.11-0.02-0.23-0.03-0.36-0.03c-0.3,0-0.57,0.06-0.81,0.19
				s-0.42,0.3-0.56,0.52c-0.14,0.22-0.2,0.47-0.2,0.75v3.93H27.97z"/>
			<path d="M42.21,38.07h-1c-0.06-0.29-0.16-0.54-0.31-0.76c-0.15-0.22-0.32-0.4-0.53-0.55c-0.21-0.15-0.44-0.26-0.69-0.34
				c-0.25-0.08-0.52-0.11-0.79-0.11c-0.5,0-0.96,0.13-1.36,0.38s-0.73,0.63-0.97,1.12c-0.24,0.49-0.36,1.1-0.36,1.82
				c0,0.72,0.12,1.32,0.36,1.82c0.24,0.49,0.56,0.87,0.97,1.12s0.86,0.38,1.36,0.38c0.28,0,0.54-0.04,0.79-0.11
				c0.25-0.08,0.49-0.19,0.69-0.34c0.21-0.15,0.39-0.33,0.53-0.55c0.15-0.22,0.25-0.47,0.31-0.76h1c-0.08,0.42-0.21,0.8-0.41,1.14
				c-0.2,0.33-0.45,0.62-0.74,0.85c-0.3,0.23-0.63,0.41-1,0.53c-0.37,0.12-0.76,0.18-1.18,0.18c-0.71,0-1.34-0.17-1.89-0.52
				c-0.55-0.35-0.98-0.84-1.3-1.47c-0.32-0.64-0.47-1.39-0.47-2.27s0.16-1.63,0.47-2.27c0.32-0.64,0.75-1.13,1.3-1.47
				c0.55-0.35,1.18-0.52,1.89-0.52c0.42,0,0.81,0.06,1.18,0.18c0.37,0.12,0.7,0.3,1,0.53c0.3,0.23,0.54,0.52,0.74,0.85
				C42,37.26,42.14,37.64,42.21,38.07z"/>
			<path d="M47.62,41.23v-3.67h0.96v6.22h-0.96v-1.05h-0.06c-0.15,0.32-0.37,0.58-0.68,0.8c-0.31,0.22-0.7,0.33-1.17,0.33
				c-0.39,0-0.73-0.09-1.04-0.26c-0.3-0.17-0.54-0.43-0.71-0.78s-0.26-0.78-0.26-1.31v-3.95h0.96v3.89c0,0.45,0.13,0.81,0.38,1.08
				s0.58,0.41,0.98,0.41c0.24,0,0.48-0.06,0.73-0.18c0.25-0.12,0.45-0.31,0.62-0.56C47.53,41.93,47.62,41.62,47.62,41.23z"/>
			<path d="M54.72,38.94l-0.86,0.24c-0.05-0.14-0.13-0.28-0.24-0.42c-0.1-0.14-0.24-0.25-0.42-0.34s-0.41-0.13-0.68-0.13
				c-0.38,0-0.7,0.09-0.95,0.26c-0.25,0.17-0.38,0.39-0.38,0.66c0,0.24,0.09,0.42,0.26,0.56s0.44,0.25,0.81,0.34l0.92,0.23
				c0.56,0.14,0.97,0.34,1.24,0.62c0.27,0.28,0.41,0.63,0.41,1.07c0,0.36-0.1,0.68-0.31,0.96c-0.2,0.28-0.49,0.5-0.85,0.66
				c-0.36,0.16-0.79,0.24-1.27,0.24c-0.63,0-1.16-0.14-1.57-0.41s-0.68-0.68-0.79-1.21l0.91-0.23c0.09,0.33,0.25,0.58,0.49,0.75
				c0.24,0.17,0.56,0.25,0.95,0.25c0.45,0,0.8-0.1,1.06-0.29s0.39-0.42,0.39-0.69c0-0.22-0.08-0.4-0.23-0.54
				c-0.15-0.15-0.38-0.26-0.7-0.33l-1.04-0.24c-0.57-0.13-0.99-0.34-1.25-0.63c-0.27-0.28-0.4-0.64-0.4-1.07
				c0-0.35,0.1-0.66,0.3-0.93s0.47-0.48,0.81-0.64c0.34-0.15,0.73-0.23,1.17-0.23c0.61,0,1.1,0.14,1.45,0.41S54.57,38.5,54.72,38.94
				z"/>
			<path d="M58.98,37.55v0.81h-3.22v-0.81H58.98z M56.7,36.06h0.96v5.92c0,0.27,0.04,0.47,0.12,0.61c0.08,0.13,0.18,0.22,0.31,0.27
				c0.13,0.04,0.26,0.07,0.4,0.07c0.1,0,0.19-0.01,0.26-0.02c0.07-0.01,0.12-0.02,0.16-0.03l0.19,0.86
				c-0.06,0.02-0.16,0.05-0.27,0.08s-0.26,0.04-0.44,0.04c-0.27,0-0.53-0.06-0.79-0.17s-0.47-0.29-0.64-0.53
				c-0.17-0.24-0.25-0.54-0.25-0.9V36.06z"/>
			<path d="M62.88,43.9c-0.56,0-1.05-0.13-1.48-0.4c-0.42-0.27-0.75-0.64-0.99-1.12c-0.24-0.48-0.35-1.04-0.35-1.68
				c0-0.65,0.12-1.21,0.35-1.7c0.24-0.48,0.57-0.86,0.99-1.13c0.42-0.27,0.91-0.4,1.48-0.4s1.05,0.13,1.47,0.4
				c0.42,0.27,0.75,0.64,0.99,1.13c0.24,0.48,0.35,1.05,0.35,1.7c0,0.64-0.12,1.2-0.35,1.68c-0.24,0.48-0.57,0.85-0.99,1.12
				C63.93,43.76,63.44,43.9,62.88,43.9z M62.88,43.04c0.43,0,0.78-0.11,1.05-0.33c0.27-0.22,0.48-0.51,0.61-0.86
				c0.13-0.36,0.2-0.74,0.2-1.16c0-0.42-0.07-0.8-0.2-1.16c-0.13-0.36-0.34-0.65-0.61-0.87c-0.28-0.22-0.63-0.33-1.05-0.33
				c-0.43,0-0.78,0.11-1.05,0.33s-0.48,0.51-0.61,0.87c-0.13,0.36-0.2,0.75-0.2,1.16c0,0.42,0.07,0.8,0.2,1.16
				c0.13,0.36,0.34,0.64,0.61,0.86S62.45,43.04,62.88,43.04z"/>
			<path d="M67.15,43.77v-6.22h0.92v0.97h0.08c0.13-0.33,0.34-0.59,0.63-0.78c0.29-0.18,0.64-0.28,1.04-0.28
				c0.41,0,0.75,0.09,1.03,0.28c0.27,0.19,0.49,0.44,0.64,0.78h0.06c0.16-0.32,0.4-0.58,0.72-0.77c0.32-0.19,0.7-0.29,1.15-0.29
				c0.56,0,1.01,0.17,1.36,0.52s0.53,0.89,0.53,1.62v4.16h-0.95v-4.16c0-0.46-0.13-0.79-0.38-0.98s-0.55-0.3-0.89-0.3
				c-0.44,0-0.78,0.13-1.02,0.39c-0.24,0.26-0.36,0.6-0.36,1v4.05h-0.97v-4.26c0-0.35-0.11-0.64-0.34-0.86
				c-0.23-0.22-0.52-0.33-0.89-0.33c-0.25,0-0.48,0.07-0.69,0.2c-0.21,0.13-0.39,0.31-0.52,0.55c-0.13,0.23-0.2,0.5-0.2,0.81v3.88
				H67.15z"/>
			<path d="M79.66,43.9c-0.6,0-1.11-0.13-1.55-0.4c-0.43-0.27-0.77-0.64-1-1.12c-0.23-0.48-0.35-1.04-0.35-1.67s0.12-1.2,0.35-1.69
				c0.23-0.49,0.56-0.87,0.98-1.14c0.42-0.27,0.91-0.41,1.47-0.41c0.32,0,0.64,0.05,0.96,0.16c0.32,0.11,0.6,0.28,0.86,0.52
				c0.26,0.24,0.47,0.56,0.62,0.96s0.23,0.89,0.23,1.46v0.4h-4.79v-0.83h3.82c0-0.35-0.07-0.66-0.21-0.94
				c-0.14-0.27-0.34-0.49-0.59-0.65c-0.25-0.16-0.55-0.24-0.9-0.24c-0.38,0-0.71,0.09-0.99,0.28c-0.28,0.19-0.49,0.43-0.64,0.73
				c-0.15,0.3-0.22,0.62-0.22,0.96v0.55c0,0.47,0.08,0.87,0.24,1.19c0.16,0.32,0.39,0.57,0.68,0.74c0.29,0.17,0.63,0.25,1.02,0.25
				c0.25,0,0.48-0.04,0.68-0.11c0.2-0.07,0.38-0.18,0.53-0.32c0.15-0.14,0.26-0.32,0.34-0.54l0.92,0.26
				c-0.1,0.31-0.26,0.59-0.49,0.82c-0.23,0.24-0.51,0.42-0.85,0.55C80.46,43.83,80.09,43.9,79.66,43.9z"/>
			<path d="M83.7,43.77v-6.22h0.92v0.94h0.06c0.11-0.31,0.32-0.56,0.61-0.75s0.63-0.29,1-0.29c0.07,0,0.16,0,0.26,0
				c0.11,0,0.18,0.01,0.24,0.01v0.97c-0.03-0.01-0.11-0.02-0.22-0.04c-0.11-0.02-0.23-0.03-0.36-0.03c-0.3,0-0.57,0.06-0.81,0.19
				s-0.42,0.3-0.56,0.52c-0.14,0.22-0.2,0.47-0.2,0.75v3.93H83.7z"/>
			<path d="M91.27,43.77v-8.29h2.8c0.65,0,1.18,0.11,1.59,0.33c0.42,0.22,0.72,0.52,0.92,0.9c0.2,0.38,0.3,0.82,0.3,1.31
				s-0.1,0.92-0.3,1.3c-0.2,0.38-0.51,0.67-0.92,0.89c-0.41,0.21-0.94,0.32-1.58,0.32h-2.27v-0.91h2.23c0.44,0,0.8-0.06,1.07-0.19
				c0.27-0.13,0.47-0.31,0.59-0.55s0.18-0.52,0.18-0.86s-0.06-0.62-0.19-0.87c-0.12-0.25-0.32-0.44-0.59-0.58
				c-0.27-0.14-0.63-0.2-1.08-0.2h-1.76v7.4H91.27z M95.17,40.04l2.04,3.72h-1.17l-2.01-3.72H95.17z"/>
			<path d="M100.25,43.91c-0.39,0-0.75-0.07-1.07-0.22c-0.32-0.15-0.58-0.37-0.76-0.65c-0.19-0.28-0.28-0.63-0.28-1.03
				c0-0.36,0.07-0.65,0.21-0.87c0.14-0.22,0.33-0.4,0.56-0.52c0.23-0.13,0.49-0.22,0.78-0.28s0.57-0.11,0.86-0.15
				c0.38-0.05,0.68-0.09,0.92-0.11s0.41-0.07,0.52-0.13c0.11-0.06,0.16-0.17,0.16-0.32v-0.03c0-0.4-0.11-0.71-0.33-0.93
				c-0.22-0.22-0.55-0.33-0.99-0.33c-0.46,0-0.81,0.1-1.07,0.3c-0.26,0.2-0.44,0.41-0.55,0.64l-0.91-0.32
				c0.16-0.38,0.38-0.67,0.65-0.88c0.27-0.21,0.57-0.36,0.89-0.44c0.32-0.09,0.64-0.13,0.95-0.13c0.2,0,0.43,0.02,0.69,0.07
				c0.26,0.05,0.51,0.14,0.76,0.29c0.24,0.15,0.45,0.37,0.61,0.66c0.16,0.29,0.24,0.69,0.24,1.18v4.1h-0.96v-0.84h-0.05
				c-0.06,0.13-0.17,0.28-0.32,0.43c-0.15,0.15-0.35,0.28-0.6,0.39C100.92,43.86,100.61,43.91,100.25,43.91z M100.4,43.06
				c0.38,0,0.7-0.07,0.96-0.22c0.26-0.15,0.46-0.34,0.59-0.57c0.13-0.24,0.2-0.48,0.2-0.74v-0.87c-0.04,0.05-0.13,0.09-0.26,0.13
				s-0.29,0.07-0.47,0.1c-0.18,0.03-0.35,0.05-0.51,0.07c-0.17,0.02-0.3,0.04-0.4,0.05c-0.25,0.03-0.48,0.08-0.69,0.16
				c-0.21,0.07-0.39,0.18-0.52,0.32c-0.13,0.14-0.2,0.33-0.2,0.58c0,0.33,0.12,0.58,0.37,0.75C99.7,42.97,100.02,43.06,100.4,43.06z
				"/>
			<path d="M107.55,37.55v0.81h-3.22v-0.81H107.55z M105.27,36.06h0.96v5.92c0,0.27,0.04,0.47,0.12,0.61
				c0.08,0.13,0.18,0.22,0.31,0.27c0.13,0.04,0.26,0.07,0.4,0.07c0.1,0,0.19-0.01,0.26-0.02c0.07-0.01,0.12-0.02,0.16-0.03
				l0.19,0.86c-0.06,0.02-0.16,0.05-0.27,0.08s-0.26,0.04-0.44,0.04c-0.27,0-0.53-0.06-0.79-0.17s-0.47-0.29-0.64-0.53
				c-0.17-0.24-0.25-0.54-0.25-0.9V36.06z"/>
			<path d="M109.48,36.52c-0.19,0-0.35-0.06-0.48-0.19s-0.2-0.28-0.2-0.46c0-0.18,0.07-0.33,0.2-0.46s0.29-0.19,0.48-0.19
				s0.35,0.06,0.48,0.19s0.2,0.28,0.2,0.46c0,0.18-0.07,0.33-0.2,0.46S109.66,36.52,109.48,36.52z M108.99,43.77v-6.22h0.96v6.22
				H108.99z"/>
			<path d="M112.65,40.03v3.74h-0.96v-6.22h0.92v0.97h0.08c0.15-0.32,0.37-0.57,0.66-0.76c0.3-0.19,0.68-0.29,1.15-0.29
				c0.42,0,0.79,0.09,1.1,0.26c0.32,0.17,0.56,0.43,0.74,0.78c0.18,0.35,0.26,0.78,0.26,1.31v3.95h-0.96v-3.88
				c0-0.49-0.13-0.87-0.38-1.14c-0.25-0.27-0.6-0.41-1.04-0.41c-0.3,0-0.58,0.07-0.81,0.2c-0.24,0.13-0.43,0.33-0.56,0.58
				C112.72,39.36,112.65,39.67,112.65,40.03z"/>
			<path d="M120.87,46.23c-0.46,0-0.86-0.06-1.19-0.18c-0.33-0.12-0.61-0.27-0.83-0.46c-0.22-0.19-0.39-0.39-0.52-0.61l0.76-0.53
				c0.09,0.11,0.2,0.24,0.33,0.39c0.13,0.15,0.31,0.27,0.54,0.38c0.23,0.11,0.53,0.16,0.91,0.16c0.5,0,0.92-0.12,1.24-0.36
				c0.33-0.24,0.49-0.62,0.49-1.14v-1.26h-0.08c-0.07,0.11-0.17,0.25-0.3,0.42s-0.31,0.31-0.55,0.44s-0.56,0.19-0.96,0.19
				c-0.5,0-0.95-0.12-1.35-0.36c-0.4-0.24-0.71-0.58-0.94-1.04c-0.23-0.45-0.35-1-0.35-1.65c0-0.64,0.11-1.19,0.34-1.67
				c0.22-0.47,0.54-0.84,0.93-1.1s0.86-0.39,1.38-0.39c0.4,0,0.73,0.07,0.96,0.2c0.24,0.13,0.42,0.28,0.55,0.45
				c0.13,0.17,0.23,0.31,0.3,0.42h0.1v-0.99h0.92v6.39c0,0.53-0.12,0.97-0.36,1.3s-0.57,0.58-0.97,0.74
				C121.82,46.15,121.37,46.23,120.87,46.23z M120.84,42.81c0.38,0,0.71-0.09,0.97-0.26c0.26-0.17,0.47-0.43,0.6-0.76
				c0.14-0.33,0.21-0.72,0.21-1.18c0-0.45-0.07-0.84-0.2-1.19c-0.13-0.34-0.33-0.61-0.6-0.8c-0.26-0.2-0.59-0.29-0.98-0.29
				c-0.4,0-0.74,0.1-1.01,0.31s-0.47,0.48-0.6,0.83c-0.13,0.35-0.2,0.73-0.2,1.15c0,0.43,0.07,0.81,0.2,1.14s0.34,0.59,0.61,0.78
				C120.11,42.72,120.44,42.81,120.84,42.81z"/>
		</g>
	</g>
</g>
</svg>
