<?xml version="1.0" encoding="utf-8"?>
<!-- Generator: Adobe Illustrator 27.0.0, SVG Export Plug-In . SVG Version: 6.00 Build 0)  -->
<svg version="1.1" id="Layer_1" xmlns="http://www.w3.org/2000/svg" xmlns:xlink="http://www.w3.org/1999/xlink" x="0px" y="0px"
	 width="122px" height="112px" viewBox="0 0 122 112" enable-background="new 0 0 122 112" xml:space="preserve">
<path fill="none" stroke="#91C332" stroke-miterlimit="10" d="M15.41,85.07c0.37-0.55,0.69-1.14,1.11-1.65
	c2.34-2.86,4.74-5.66,7.03-8.55c1.44-1.83,2.7-3.79,4.04-5.7c-0.05-0.11-0.09-0.22-0.14-0.33c-0.7,0.08-1.4,0.1-2.09,0.25
	c-6.26,1.35-12.52,2.71-18.78,4.07c-0.09,0.02-0.19,0.09-0.27,0.08c-0.34-0.06-0.67-0.15-1-0.23c0.23-0.22,0.43-0.53,0.7-0.66
	c5.58-2.69,11.21-5.28,16.75-8.06c4.88-2.45,9.64-5.15,13.96-8.56c0.15-0.12,0.3-0.24,0.45-0.37c3.39-2.89,3.52-3.52,2.69-7.89
	c-0.81-4.25-1.38-8.54-2.1-12.81c-0.44-2.61-1.45-4.85-3.63-6.53C23.43,19.88,12.77,11.58,2.11,3.28c-0.55-0.43-1.43-0.84-1-1.76
	c0.41-0.88,1.25-0.41,1.9-0.29c9.6,1.85,19.13,4.03,28.43,7.05c8.25,2.68,16.45,5.62,24.29,9.44c1.68,0.82,3.25,1.95,4.71,3.15
	c1.72,1.42,2.41,3.38,2.18,5.67c-0.1,1.03-0.1,2.09,0.01,3.11c0.15,1.35,0.92,2.24,2.24,2.62c2.73,0.79,5.13,0.11,7.27-1.67
	c3.62-3.02,6.81-3.29,10.83-0.86c1.02,0.62,2.01,1.17,3.28,1.2c1.17,0.03,2.32,0.4,3.2,1.31c-0.08,0.1-0.11,0.17-0.16,0.2
	c-2.52,1.29-3.92,3.58-5.32,5.94c-1.39,2.33-3.11,4.46-4.68,6.68c-0.18,0.26-0.38,0.5-0.66,0.86c2.17,0.59,4.23,1.14,6.29,1.72
	c1.94,0.56,3.87,1.16,5.8,1.74c2.09,0.63,3.62,1.94,4.83,3.79c9.27,14.18,16.65,29.32,22.04,45.45c1.23,3.67,2.27,7.4,3.36,11.11
	c0.1,0.35,0.08,1.01-0.11,1.11c-0.32,0.18-0.89,0.17-1.23-0.01c-0.67-0.36-1.31-0.82-1.87-1.34c-4.72-4.41-9.48-8.78-14.1-13.28
	c-6.81-6.63-13.58-13.3-20.23-20.08c-3.38-3.45-7.3-5.64-11.96-6.59c-3.88-0.78-7.67-1.89-11.2-3.71
	c-3.57-1.84-7.15-2.01-10.87-0.62c-3.48,1.3-6.99,2.55-10.48,3.83c-2.67,0.98-4.8,2.79-7.02,4.52c-4.95,3.87-10.02,7.59-15.05,11.34
	c-0.32,0.24-0.77,0.32-1.16,0.47C15.58,85.3,15.49,85.19,15.41,85.07z"/>
</svg>
