<?xml version="1.0" encoding="utf-8"?>
<!-- Generator: Adobe Illustrator 27.0.0, SVG Export Plug-In . SVG Version: 6.00 Build 0)  -->
<svg version="1.1" id="Layer_1" xmlns="http://www.w3.org/2000/svg" xmlns:xlink="http://www.w3.org/1999/xlink" x="0px" y="0px"
	 width="175px" height="36.47px" viewBox="0 0 175 36.47" enable-background="new 0 0 175 36.47" xml:space="preserve">
<g>
	<g>
		<g>
			<path fill="#2D78FA" d="M13.51,22.13c-0.16,1.12-0.57,2.01-1.2,2.67c-0.63,0.65-1.54,0.98-2.71,0.98c-0.76,0-1.41-0.17-1.93-0.51
				c-0.53-0.34-0.95-0.79-1.26-1.33c-0.31-0.55-0.55-1.17-0.69-1.85c-0.14-0.69-0.21-1.37-0.21-2.03c0-0.68,0.07-1.39,0.21-2.08
				c0.14-0.69,0.38-1.33,0.72-1.9c0.33-0.56,0.77-1.03,1.3-1.39c0.52-0.35,1.18-0.53,1.96-0.53c2.11,0,3.3,1,3.62,3.07l0.02,0.15
				h5.39l-0.01-0.19c-0.07-1.23-0.37-2.31-0.89-3.21c-0.52-0.9-1.2-1.66-2.02-2.27c-0.82-0.6-1.77-1.06-2.81-1.35
				c-1.04-0.29-2.13-0.44-3.26-0.44c-1.54,0-2.93,0.26-4.13,0.78c-1.2,0.52-2.24,1.24-3.07,2.16c-0.83,0.92-1.47,2.03-1.9,3.29
				C0.22,17.39,0,18.77,0,20.23c0,1.42,0.24,2.74,0.7,3.92c0.46,1.19,1.12,2.23,1.96,3.09c0.83,0.86,1.86,1.54,3.05,2.02
				c1.19,0.48,2.51,0.72,3.93,0.72c2.52,0,4.62-0.67,6.24-2c1.62-1.33,2.62-3.28,2.96-5.8l0.03-0.21h-5.33L13.51,22.13z
				 M32.02,10.08c-0.66,0-1.3,0.1-1.91,0.29c-0.61,0.19-1.18,0.47-1.72,0.82c-0.53,0.35-1.02,0.78-1.43,1.28
				c-0.28,0.33-0.51,0.69-0.72,1.06v-2.96h-5.17v18.77h5.42v-8.48c0-0.81,0.08-1.58,0.24-2.27c0.16-0.68,0.43-1.29,0.81-1.8
				c0.37-0.51,0.87-0.91,1.48-1.21c0.82-0.39,1.93-0.53,3.21-0.39c0.32,0.03,0.61,0.08,0.84,0.12l0.21,0.04V10.3l-0.13-0.04
				C32.76,10.14,32.37,10.08,32.02,10.08z M50.44,13.5c-0.76-1.04-1.75-1.88-2.93-2.49c-1.18-0.62-2.59-0.93-4.18-0.93
				c-1.42,0-2.73,0.26-3.9,0.76c-1.17,0.51-2.19,1.21-3.03,2.09c-0.84,0.88-1.5,1.94-1.96,3.14c-0.46,1.2-0.69,2.52-0.69,3.91
				c0,1.44,0.23,2.78,0.67,3.98c0.45,1.2,1.09,2.25,1.91,3.12c0.82,0.87,1.84,1.55,3.02,2.02c1.18,0.47,2.52,0.71,3.98,0.71
				c2.11,0,3.94-0.49,5.44-1.45c1.5-0.97,2.63-2.59,3.35-4.83l0.08-0.23h-4.83l-0.04,0.13c-0.15,0.53-0.59,1.04-1.28,1.52
				c-0.7,0.49-1.55,0.73-2.53,0.73c-1.37,0-2.43-0.35-3.15-1.05l0,0c-0.69-0.67-1.09-1.76-1.18-3.25h13.26l0.01-0.17
				c0.1-1.44-0.03-2.83-0.36-4.15C51.75,15.73,51.19,14.53,50.44,13.5z M39.18,17.81c0.03-0.29,0.1-0.62,0.21-0.98
				c0.12-0.43,0.34-0.84,0.64-1.22c0.3-0.38,0.71-0.71,1.22-0.97c0.51-0.26,1.16-0.39,1.93-0.39c1.18,0,2.06,0.32,2.63,0.94
				c0.55,0.6,0.94,1.48,1.18,2.62H39.18z M71.96,25.07v-9.58c0-1.15-0.26-2.09-0.78-2.79c-0.51-0.7-1.18-1.25-1.99-1.64
				c-0.8-0.39-1.69-0.65-2.65-0.78c-0.96-0.13-1.91-0.2-2.84-0.2c-1.03,0-2.06,0.1-3.08,0.31c-1.02,0.21-1.96,0.55-2.78,1.04
				c-0.83,0.49-1.52,1.14-2.05,1.94c-0.46,0.69-0.75,1.54-0.87,2.54c-0.03,0.5-0.07,0.67-0.06,0.98h5.26
				c0.09-0.17,0.12-0.38,0.19-0.71c0.12-0.8,0.42-1.39,0.89-1.74c0.54-0.4,1.29-0.61,2.24-0.61c0.44,0,0.85,0.03,1.24,0.09
				c0.37,0.06,0.69,0.17,0.97,0.33c0.27,0.16,0.49,0.39,0.65,0.68c0.16,0.29,0.24,0.7,0.24,1.22c0.02,0.47-0.11,0.81-0.4,1.05
				c-0.31,0.25-0.74,0.45-1.28,0.59c-0.56,0.14-1.21,0.25-1.93,0.32c-0.73,0.07-1.49,0.17-2.25,0.29c-0.76,0.12-1.53,0.28-2.28,0.48
				c-0.76,0.21-1.45,0.52-2.05,0.93c-0.6,0.42-1.1,0.98-1.48,1.68c-0.38,0.7-0.57,1.6-0.57,2.67c0,0.97,0.17,1.82,0.5,2.53
				c0.33,0.71,0.8,1.31,1.39,1.77c0.59,0.46,1.28,0.81,2.06,1.03c0.77,0.22,1.61,0.33,2.51,0.33c1.15,0,2.29-0.17,3.4-0.51
				c1.16-0.31,1.96-0.59,2.72-1.19c0.15,0.64,0.19,1.13,0.73,1.23h5.34C72.02,28.82,71.96,26.22,71.96,25.07z M66.54,22.04
				c0,0.27-0.03,0.65-0.09,1.12c-0.06,0.45-0.21,0.9-0.46,1.34c-0.25,0.43-0.63,0.81-1.15,1.13c-0.51,0.31-1.26,0.47-2.22,0.47
				c-0.39,0-0.77-0.03-1.14-0.1c-0.36-0.07-0.67-0.18-0.94-0.35c-0.26-0.16-0.46-0.38-0.61-0.66c-0.15-0.28-0.23-0.63-0.23-1.05
				c0-0.44,0.08-0.81,0.23-1.09c0.15-0.28,0.36-0.52,0.61-0.71c0.26-0.19,0.56-0.34,0.91-0.45c0.36-0.12,0.73-0.21,1.1-0.28
				c0.39-0.07,0.8-0.13,1.2-0.18c0.4-0.05,0.8-0.11,1.17-0.18c0.37-0.07,0.73-0.16,1.06-0.27c0.21-0.07,0.4-0.16,0.56-0.26V22.04z
				 M132.41,25.07v-9.58c0-1.15-0.26-2.09-0.78-2.79c-0.51-0.7-1.18-1.25-1.99-1.64c-0.8-0.39-1.69-0.65-2.65-0.78
				c-0.96-0.13-1.91-0.2-2.84-0.2c-1.03,0-2.06,0.1-3.08,0.31c-1.02,0.21-1.96,0.55-2.78,1.04c-0.83,0.49-1.52,1.14-2.05,1.94
				c-0.46,0.69-0.75,1.54-0.87,2.54c-0.03,0.5-0.07,0.67-0.06,0.98h5.26c0.09-0.17,0.12-0.38,0.19-0.71
				c0.12-0.8,0.42-1.39,0.89-1.74c0.54-0.4,1.29-0.61,2.24-0.61c0.44,0,0.85,0.03,1.24,0.09c0.37,0.06,0.69,0.17,0.97,0.33
				c0.27,0.16,0.49,0.39,0.65,0.68c0.16,0.29,0.24,0.7,0.24,1.22c0.02,0.47-0.11,0.81-0.4,1.05c-0.31,0.25-0.74,0.45-1.28,0.59
				c-0.56,0.14-1.21,0.25-1.93,0.32c-0.73,0.07-1.49,0.17-2.25,0.29c-0.76,0.12-1.53,0.28-2.28,0.48c-0.76,0.21-1.45,0.52-2.05,0.93
				c-0.6,0.42-1.1,0.98-1.48,1.68c-0.38,0.7-0.57,1.6-0.57,2.67c0,0.97,0.17,1.82,0.5,2.53c0.33,0.71,0.8,1.31,1.39,1.77
				c0.59,0.46,1.28,0.81,2.06,1.03c0.77,0.22,1.61,0.33,2.51,0.33c1.15,0,2.29-0.17,3.4-0.51c1.16-0.31,1.96-0.59,2.72-1.19
				c0.15,0.64,0.19,1.13,0.73,1.23h5.34C132.47,28.82,132.41,26.22,132.41,25.07z M126.99,22.04c0,0.27-0.03,0.65-0.09,1.12
				c-0.06,0.45-0.21,0.9-0.46,1.34c-0.25,0.43-0.63,0.81-1.15,1.13c-0.51,0.31-1.26,0.47-2.22,0.47c-0.39,0-0.77-0.03-1.14-0.1
				c-0.36-0.07-0.67-0.18-0.94-0.35c-0.26-0.16-0.46-0.38-0.61-0.66c-0.15-0.28-0.23-0.63-0.23-1.05c0-0.44,0.08-0.81,0.23-1.09
				c0.15-0.28,0.36-0.52,0.61-0.71c0.26-0.19,0.56-0.34,0.91-0.45c0.36-0.12,0.73-0.21,1.1-0.28c0.39-0.07,0.8-0.13,1.2-0.18
				c0.4-0.05,0.8-0.11,1.17-0.18c0.37-0.07,0.73-0.16,1.06-0.27c0.21-0.07,0.4-0.16,0.56-0.26V22.04z M82.04,5.78h-5.42v4.8h-3.06
				v3.74h3.06V25c0,0.95,0.16,1.74,0.48,2.33c0.32,0.6,0.77,1.06,1.33,1.39c0.55,0.32,1.19,0.54,1.91,0.65
				c0.71,0.11,1.46,0.16,2.25,0.16c0.49,0,1.01-0.01,1.54-0.04c0.28,0,0.61-0.06,1.09-0.17v-3.99c-0.3,0.06-0.9,0.18-1.24,0.18
				c-0.8,0-1.33-0.13-1.58-0.37c-0.25-0.25-0.37-0.78-0.37-1.58v-9.23h3.7v-3.74h-3.7V5.78z M88.33,29.35h5.42V10.58h-5.42V29.35z
				 M88.33,8.69h5.42V4.04h-5.42V8.69z M109.4,10.58l-3.92,10.5l-4.08-10.5h-5.77l4.37,12.75h4.63l-1.92,5.13
				c-0.52,1.4-1.17,1.71-1.78,1.77c-0.5,0-2,0.1-3.68-0.86v4.53c1.43,0.82,3.06,0.86,3.83,0.86c1.76,0,3.16-0.33,4.16-0.99
				c1-0.66,1.79-1.77,2.35-3.29l7.42-19.89H109.4z"/>
		</g>
	</g>
	<g>
		<path fill="#F55C46" d="M175,13.02l-0.29-0.82c-1.99-5.68-6.65-10.01-12.45-11.57l-0.89-0.21c0,0-0.72,2.31-0.77,5.08
			c0,4.82,3.92,8.74,8.74,8.74C171.82,14.23,175,13.02,175,13.02z"/>
		<path fill="#FEB926" d="M143,7.21l0.55-0.72C147.03,2.36,152.12,0,157.5,0c0.59,0,1.2,0.03,1.81,0.09l0.91,0.1
			c0,0-0.32,3.37-1.33,5.63c-1.43,3.07-4.54,5.05-7.92,5.05c0,0,0,0,0,0c-1.28,0-2.52-0.28-3.69-0.82C145.09,8.99,143,7.21,143,7.21
			z"/>
		<path fill="#44B949" d="M141.36,26.71l-0.4-0.8c-1.12-2.42-1.69-5-1.69-7.67c0-3.28,0.88-6.5,2.55-9.31l0.52-0.79
			c0,0,2.6,1.36,4.49,3.6c1.5,1.79,2.21,4.05,2.01,6.38c-0.2,2.33-1.3,4.43-3.09,5.93C144.36,25.28,141.36,26.71,141.36,26.71z"/>
		<path fill="#2DA0FF" d="M158.46,36.43l-0.99,0.04c-6.01-0.01-11.63-2.99-15.02-7.95l-0.53-0.78c0,0,2.15-1.7,5.2-2.58
			c0.74-0.2,1.5-0.3,2.27-0.3c3.94,0,7.41,2.66,8.43,6.48C158.46,33.98,158.46,36.43,158.46,36.43z"/>
		<path fill="#B464FF" d="M174.39,25.13l-0.38,0.85c-2.56,5.45-7.63,9.29-13.56,10.25l-0.84,0.11c0,0-0.67-3.69-0.23-5.76
			c0.74-4.18,4.35-7.22,8.6-7.22c0.51,0,1.02,0.05,1.53,0.13C172.15,24.04,174.39,25.13,174.39,25.13z"/>
	</g>
</g>
</svg>
