<?xml version="1.0" encoding="utf-8"?>
<!-- Generator: Adobe Illustrator 27.0.0, SVG Export Plug-In . SVG Version: 6.00 Build 0)  -->
<svg version="1.1" id="Layer_1" xmlns="http://www.w3.org/2000/svg" xmlns:xlink="http://www.w3.org/1999/xlink" x="0px" y="0px"
	 width="133px" height="20px" viewBox="0 0 133 20" enable-background="new 0 0 133 20" xml:space="preserve">
<g>
	<g>
		<path fill="#231F20" d="M126.95,12.98c0,0.31,0.06,0.61,0.18,0.88c0.12,0.27,0.28,0.5,0.48,0.69c0.2,0.2,0.43,0.34,0.7,0.45
			c0.27,0.1,0.56,0.16,0.86,0.16h2.81c0.15,0,0.27,0.05,0.37,0.17c0.1,0.11,0.15,0.24,0.15,0.38c0,0.16-0.05,0.29-0.15,0.39
			c-0.1,0.11-0.23,0.16-0.37,0.16h-2.81c-0.45,0-0.87-0.08-1.27-0.25c-0.39-0.16-0.74-0.39-1.03-0.68c-0.29-0.29-0.53-0.64-0.7-1.04
			c-0.17-0.4-0.26-0.83-0.26-1.3v-2.53c0-0.47,0.09-0.91,0.26-1.31c0.18-0.41,0.41-0.75,0.7-1.04c0.3-0.3,0.64-0.53,1.03-0.69
			c0.39-0.16,0.82-0.24,1.27-0.24h2.81c0.15,0,0.27,0.05,0.37,0.16c0.1,0.11,0.15,0.24,0.15,0.38c0,0.15-0.05,0.28-0.15,0.39
			c-0.1,0.1-0.23,0.16-0.37,0.16h-2.81c-0.3,0-0.59,0.05-0.86,0.16c-0.27,0.11-0.51,0.26-0.7,0.45c-0.2,0.19-0.36,0.42-0.48,0.69
			c-0.12,0.27-0.18,0.57-0.18,0.89V12.98z"/>
		<path fill="#231F20" d="M119.67,15.31c-0.1-0.11-0.22-0.16-0.37-0.16h-2.51V7.68c0-0.15-0.05-0.27-0.17-0.37
			c-0.11-0.1-0.24-0.15-0.38-0.15c-0.16,0-0.29,0.05-0.39,0.15c-0.11,0.1-0.16,0.22-0.16,0.37v8.04c0,0.06,0.02,0.11,0.03,0.17
			c0,0.01,0,0.01,0,0.02c0.01,0.03,0.03,0.05,0.05,0.08c0.02,0.03,0.03,0.07,0.06,0.09c0.1,0.11,0.23,0.16,0.37,0.16h3.08
			c0.15,0,0.27-0.05,0.37-0.17c0.1-0.11,0.15-0.24,0.15-0.38C119.82,15.54,119.77,15.41,119.67,15.31z"/>
		<path fill="#231F20" d="M125.48,15.31c-0.1-0.11-0.22-0.16-0.37-0.16h-2.51V7.68c0-0.15-0.05-0.27-0.17-0.37
			c-0.11-0.1-0.24-0.15-0.38-0.15c-0.16,0-0.29,0.05-0.39,0.15c-0.11,0.1-0.16,0.22-0.16,0.37v8.04c0,0.06,0.02,0.11,0.03,0.17
			c0,0.01,0,0.01,0,0.02c0.01,0.03,0.03,0.05,0.05,0.08c0.02,0.03,0.03,0.07,0.06,0.09c0.1,0.11,0.23,0.16,0.37,0.16h3.08
			c0.15,0,0.27-0.05,0.37-0.17c0.1-0.11,0.15-0.24,0.15-0.38C125.63,15.54,125.58,15.41,125.48,15.31z"/>
	</g>
	<path fill="#91C332" d="M3.6,15.44c-1,0.18-1.94,0.73-2.56,1.28c-0.38,0.34-0.65,0.76-0.5,1.07c0,0,0.34,0.89,0.6,1.31
		c0.26,0.42,0.36,0.55,0.55,0.41c1.2-1.11,2.18-3.54,2.2-3.79C3.93,15.46,3.82,15.41,3.6,15.44z M18.58,0.45
		c-0.65-0.08-2.65,0.28-4.36,0.59C10.37,1.72,5.7,3.08,3.42,6.15c-2.65,3.57-0.88,7.35,0.77,8.77c1.99,2.15,6.16,2.27,9.2-0.28
		c2.23-1.87,3.42-5.4,4.18-8.82c0.28-1.26,0.59-2.56,0.79-3.71C18.47,1.51,18.75,0.5,18.58,0.45z"/>
	<path fill="#231F20" d="M34.86,7c-2.32,0-3.75,1.27-4.29,2.27c-0.54,1-0.6,1.83-0.6,2.46c0,0.63,0.19,2.23,1.14,3.25
		c0.95,1.02,2.09,1.46,3.52,1.46c1.43,0,2.97-0.39,3.71-1.58c0.5-0.73-0.38-1.67-1.23-0.99c-0.48,0.33-0.94,1.03-2.37,1.03
		c-0.96,0-2.58-0.73-2.86-2.54h6.24c0.44,0,0.96-0.33,0.88-1.19C38.91,10.3,37.95,7,34.86,7 M31.9,10.89
		c0.1-1.36,1.35-2.43,2.74-2.43c1.39,0,2.36,1.07,2.47,2.43H31.9z M56.81,7c-2.32,0-3.75,1.27-4.29,2.27c-0.54,1-0.6,1.83-0.6,2.46
		c0,0.63,0.19,2.23,1.14,3.25c0.95,1.02,2.09,1.46,3.52,1.46c1.43,0,2.97-0.39,3.71-1.58c0.5-0.73-0.38-1.67-1.23-0.99
		c-0.48,0.33-0.94,1.03-2.37,1.03c-0.96,0-2.58-0.73-2.86-2.54h6.24c0.44,0,0.96-0.33,0.88-1.19C60.86,10.3,59.9,7,56.81,7
		 M53.85,10.89c0.1-1.36,1.35-2.43,2.74-2.43c1.39,0,2.36,1.07,2.47,2.43H53.85z M45.82,7.14c0,0-0.48-0.15-0.99-0.15
		c-1.99,0-2.81,1.46-2.81,1.46V8.19c0-1.02-0.64-1.19-0.95-1.19c-0.6,0-0.92,0.34-0.92,0.9v7.36c0,0.97,0.44,1.19,0.84,1.19
		c0.4,0,1.02-0.24,1.02-1.17v-4.03c0-0.97,0.53-1.92,1.33-2.36c0.79-0.44,1.57-0.18,2.12-0.03C46.64,9.14,46.99,7.49,45.82,7.14
		 M28.87,7.09c-0.37-0.18-1.14-0.16-1.47,0.69l-2.46,6.3c-0.02,0.07-0.07,0.09-0.1,0l-2.46-6.3c-0.33-0.85-1.1-0.87-1.47-0.69
		c-0.44,0.26-0.59,0.64-0.35,1.37l2.86,6.86c0.25,0.65,0.66,1.12,1.46,1.12c0.75,0,1.11-0.27,1.46-1.12l2.86-6.86
		C29.46,7.73,29.31,7.34,28.87,7.09 M51.44,14.85c-0.38-0.27-0.67-0.06-1.21,0c-0.78,0.06-1.01-0.8-1.01-1.33V8.46h1.38
		c1.25,0,1.26-1.46,0.15-1.46h-1.53V5.57c0-0.82-0.41-1.14-0.89-1.14c-0.54,0-0.98,0.32-0.98,1.14v7.56c0,1.5,0.33,2.2,0.94,2.75
		c0.6,0.55,1.84,0.76,2.8,0.36C51.92,15.89,51.83,15.12,51.44,14.85 M66.64,11.64l2.56-2.98C69.76,8,69.7,7.57,69.4,7.2
		c-0.26-0.27-0.87-0.48-1.58,0.34l-2.28,2.7l-2.14-2.7c-0.52-0.81-1.33-0.67-1.67-0.4c-0.4,0.36-0.47,0.79-0.07,1.5l2.55,3.17
		l-2.45,2.89c-0.68,0.67-0.62,1.3-0.26,1.59c0.35,0.28,0.99,0.18,1.5-0.42l2.31-2.69l2.16,2.69c0.48,0.6,1.12,0.73,1.57,0.46
		c0.41-0.24,0.66-0.91,0.02-1.62L66.64,11.64z"/>
	<path fill="#231F20" d="M82.01,8.08c-0.29-0.3-0.64-0.53-1.05-0.71c-0.4-0.17-0.84-0.26-1.31-0.26c-0.57,0-1.06,0.11-1.47,0.33
		c-0.41,0.22-0.77,0.5-1.07,0.86c-0.28-0.36-0.64-0.65-1.06-0.87c-0.42-0.21-0.92-0.32-1.5-0.32c-0.47,0-0.91,0.09-1.31,0.26
		c-0.4,0.18-0.75,0.41-1.04,0.71c-0.29,0.3-0.52,0.64-0.68,1.04c-0.17,0.39-0.25,0.82-0.25,1.27v5.38c0,0.15,0.05,0.27,0.16,0.37
		c0.1,0.1,0.23,0.15,0.39,0.15c0.14,0,0.27-0.05,0.38-0.15c0.11-0.1,0.17-0.23,0.17-0.37v-5.38c0-0.3,0.05-0.59,0.16-0.86
		c0.11-0.27,0.25-0.51,0.45-0.71c0.19-0.2,0.42-0.36,0.7-0.48c0.27-0.12,0.56-0.18,0.88-0.18c0.32,0,0.6,0.06,0.85,0.18
		c0.26,0.12,0.46,0.28,0.63,0.48c0.17,0.2,0.3,0.43,0.39,0.7c0.09,0.27,0.14,0.56,0.14,0.86v5.39c0,0.15,0.05,0.27,0.16,0.37
		c0.1,0.1,0.23,0.15,0.39,0.15c0.15,0,0.28-0.05,0.39-0.15c0.1-0.1,0.16-0.23,0.16-0.37v-5.38c0-0.3,0.04-0.59,0.13-0.86
		c0.09-0.27,0.22-0.51,0.39-0.71c0.17-0.2,0.37-0.36,0.63-0.48c0.25-0.12,0.53-0.18,0.85-0.18c0.33,0,0.62,0.06,0.9,0.18
		c0.27,0.12,0.5,0.28,0.69,0.48c0.19,0.2,0.34,0.43,0.45,0.71c0.1,0.27,0.16,0.56,0.16,0.86v5.38c0,0.15,0.05,0.27,0.16,0.37
		c0.11,0.1,0.24,0.15,0.39,0.15c0.15,0,0.27-0.05,0.39-0.15c0.11-0.1,0.16-0.23,0.16-0.37v-5.38c0-0.45-0.08-0.88-0.24-1.27
		C82.54,8.72,82.31,8.38,82.01,8.08z M90.72,8.22c0.15,0,0.28-0.05,0.39-0.16c0.11-0.1,0.16-0.23,0.16-0.36
		c0-0.15-0.05-0.28-0.16-0.37c-0.11-0.1-0.24-0.15-0.39-0.15h-5.8c-0.16,0-0.29,0.05-0.39,0.15c-0.11,0.1-0.16,0.22-0.16,0.37v8.08
		c0,0.15,0.05,0.27,0.17,0.37c0.11,0.1,0.24,0.15,0.38,0.15h5.8c0.15,0,0.28-0.05,0.39-0.16c0.11-0.1,0.16-0.23,0.16-0.36
		c0-0.15-0.05-0.27-0.16-0.37c-0.11-0.1-0.24-0.16-0.39-0.16h-5.25V12.4h3.08c0.16,0,0.29-0.06,0.39-0.16
		c0.11-0.1,0.16-0.23,0.16-0.37c0-0.15-0.05-0.27-0.16-0.37c-0.1-0.1-0.23-0.15-0.39-0.15h-3.08V8.22H90.72z M98.37,8.12
		c-0.31-0.3-0.68-0.53-1.1-0.7c-0.42-0.17-0.87-0.26-1.35-0.26h-2.89c-0.16,0-0.29,0.05-0.39,0.15c-0.11,0.1-0.16,0.22-0.16,0.37
		v8.08c0,0.14,0.05,0.27,0.17,0.37c0.11,0.1,0.24,0.15,0.38,0.15h2.9c0.47,0,0.92-0.08,1.34-0.25c0.42-0.17,0.78-0.41,1.09-0.7
		c0.31-0.3,0.55-0.64,0.74-1.03c0.18-0.39,0.27-0.81,0.27-1.27v-2.63c0-0.46-0.09-0.88-0.27-1.27C98.93,8.76,98.68,8.42,98.37,8.12z
		 M98.29,13.05c0,0.3-0.06,0.59-0.18,0.86c-0.12,0.27-0.28,0.5-0.49,0.7c-0.22,0.2-0.46,0.35-0.75,0.47
		c-0.28,0.11-0.59,0.17-0.92,0.17h-2.36V8.22h2.34c0.33,0,0.64,0.06,0.93,0.17c0.29,0.11,0.54,0.27,0.75,0.47
		c0.21,0.2,0.38,0.43,0.49,0.7c0.13,0.27,0.18,0.56,0.18,0.86V13.05z M101.75,7.17c-0.16,0-0.29,0.05-0.39,0.15
		c-0.11,0.1-0.16,0.22-0.16,0.37v8.08c0,0.15,0.05,0.27,0.17,0.37c0.11,0.1,0.24,0.15,0.38,0.15c0.15,0,0.28-0.05,0.39-0.15
		c0.11-0.1,0.16-0.23,0.16-0.37V7.7c0-0.15-0.05-0.28-0.17-0.37C102.02,7.22,101.89,7.17,101.75,7.17z M111.95,15.57l-3.64-8.14
		c-0.06-0.13-0.15-0.22-0.29-0.28c-0.08-0.03-0.15-0.04-0.22-0.04c-0.24,0-0.41,0.1-0.51,0.32l-3.64,8.14
		c-0.03,0.08-0.04,0.15-0.04,0.22c0,0.12,0.05,0.23,0.15,0.35c0.09,0.11,0.22,0.17,0.39,0.17c0.1,0,0.2-0.03,0.29-0.08
		c0.09-0.06,0.16-0.14,0.21-0.24l3.15-7.04l3.15,7.04c0.09,0.21,0.26,0.32,0.51,0.32c0.16,0,0.29-0.06,0.39-0.17
		c0.1-0.11,0.14-0.23,0.14-0.35C111.99,15.72,111.98,15.65,111.95,15.57z"/>
</g>
</svg>
