<?xml version="1.0" encoding="utf-8"?>
<!-- Generator: Adobe Illustrator 27.0.0, SVG Export Plug-In . SVG Version: 6.00 Build 0)  -->
<svg version="1.1" id="Layer_1" xmlns="http://www.w3.org/2000/svg" xmlns:xlink="http://www.w3.org/1999/xlink" x="0px" y="0px"
	 width="160px" height="30.06px" viewBox="0 0 160 30.06" enable-background="new 0 0 160 30.06" xml:space="preserve">
<g>
	<g>
		<path d="M78.94,6c-4.7,0-8.48,3.35-9.14,7.84h0l-0.01,0.1c-0.71,5.86-6.64,7.83-9.24,7.83c-3.54,0-6.46-2.38-6.87-5.55h13.88
			l0.03-0.04c0.02-0.03,0.04-0.06,0.06-0.08l0.04-0.06c0.37-0.87,0.62-1.8,0.75-2.77l0.01-0.09c0.04-0.33,0.11-0.66,0.19-1
			l0.01-0.03l-0.01-0.03C67.33,8.29,64.1,6,59.98,6c-5.18,0-9.24,4.06-9.24,9.24c0,5.27,3.91,9.4,9.86,9.4
			c4.35,0,9.57-2.65,11.42-8.42h16.18v-0.11C88.21,10.07,84.48,6,78.94,6z M59.96,8.63c3.04,0,5.38,1.91,6.14,4.99H53.96
			C54.59,10.63,56.98,8.63,59.96,8.63z M72.91,13.63c0.63-2.99,3.02-4.99,5.99-4.99c3.04,0,5.38,1.91,6.14,4.99H72.91z M51.32,6.12
			c-2.54,0.13-4.05,1-4.98,2.92V6.53H38.3c-0.03-2.92,1.12-4.02,4.37-4.02V0c-4.53,0-7.2,2.45-7.13,6.53h-2.35v2.29h2.35v15.29h2.76
			V8.82h5.27v15.29h2.77v-9.26c0-3.28,1.67-5.68,4.98-6V6.12z M71.1,20.22c1.56,2.76,4.72,4.51,8.09,4.51c4.03,0,7.87-2.8,8.75-6.38
			l0.03-0.14h-3.02l-0.03,0.07c-0.95,2.31-3.15,3.68-5.89,3.68c-2.93,0-5.46-2.26-6.51-4.48C72.26,18.42,71.53,19.62,71.1,20.22z
			 M99.93,5.89c-2.41,0-4.47,0.9-5.85,2.51V6.31h-3.92v23.75h4.27v-7.62c1.61,1.45,3.28,2.09,5.46,2.09c5.14,0,8.9-3.98,8.9-9.38
			C108.8,9.78,105.07,5.89,99.93,5.89z M99.45,20.61c-3.02,0-5.27-2.31-5.27-5.43c0-3.05,2.25-5.37,5.21-5.37
			c2.89,0,5.11,2.35,5.11,5.43C104.49,18.26,102.28,20.61,99.45,20.61z M140.55,5.89c-5.24,0-9.38,4.15-9.38,9.38
			c0,5.21,4.21,9.25,9.64,9.25c3.6,0,7.29-2.02,8.48-5.69h-4.66c-1.09,1.29-2.15,1.77-3.92,1.77c-2.54,0-4.4-1.35-4.92-3.5h13.78
			c0.13-0.61,0.16-1,0.16-1.64C149.74,9.94,145.85,5.89,140.55,5.89z M135.67,13.35c0.67-2.28,2.41-3.53,4.95-3.53
			c2.63,0,4.37,1.25,4.92,3.53H135.67z M110.7,24.11h4.27V6.31h-4.27V24.11z M159.34,6.22c-1.83,0-2.73,0.51-3.86,2.15V6.31h-3.92
			v17.8h4.27v-9.57c0-2.76,1.25-4.15,4.17-4.21V6.22H159.34z M110.73,4.64h4.27V0.37h-4.27V4.64z M132.53,6.31h-5.11l-5.69,8.39
			V0.37h-4.27v23.75h4.27v-8.32l6.07,8.32h5.75l-7.39-9.09L132.53,6.31z"/>
	</g>
	<g>
		<path d="M29.92,7.78c0-2.07-1.68-3.75-3.75-3.75c-0.15,0-0.3,0.01-0.45,0.03C21.66,1.2,15.29,0.99,10.12,4.6
			C4.3,8.67,1.3,15.24,2.67,20.17c-1.35,1.56-3.24,3.76-2.5,4.29c0.56,0.4,3.36-0.15,4.91-0.49c3.65,3.09,10.53,3.42,16.66,0.36
			c6.2-3.09,9.11-9.6,7.77-14.83C29.77,8.98,29.92,8.4,29.92,7.78z"/>
		<path fill="#FAC800" d="M25.84,8.63c-1.33-2.26-3.83-3.68-6.66-4c0.92,3.5,3.58,8.33,7.04,11.42
			C27.19,13.52,27.11,10.8,25.84,8.63z M16.19,4.71c-1.17,0.19-2.35,0.57-3.49,1.16c1.44,6.77,5.05,12.07,9.42,15.38
			c1.1-0.78,2.02-1.71,2.75-2.72C20.54,15.46,17.28,9.74,16.19,4.71z M10.51,7.32c-1.45,1.16-2.64,2.52-3.52,3.96
			c0.8,3.38,4.16,10.24,7.49,12.6c1.46-0.09,2.98-0.41,4.48-0.98C14.07,18.39,11.1,12.86,10.51,7.32z M5.56,14.55
			c-0.55,2.06-0.45,4.09,0.45,5.74c1.01,1.85,3.03,3.03,5.5,3.45C9.1,21.57,6.65,17.41,5.56,14.55z"/>
		<g>
			<path fill="#FFFFFF" d="M19.18,4.63c0.26,1,0.67,2.12,1.2,3.26c0.63-0.91,1.15-1.77,1.54-2.57C21.07,4.98,20.14,4.74,19.18,4.63z
				"/>
			<path fill="#FFFFFF" d="M12.7,5.88c0.6,2.84,1.59,5.41,2.85,7.7c0.99-1,1.92-2.02,2.76-3.01c-0.98-1.93-1.71-3.94-2.13-5.85
				C15.01,4.9,13.83,5.29,12.7,5.88z"/>
			<path fill="#FFFFFF" d="M6.99,11.28c0.43,1.81,1.59,4.61,3.09,7.19c1.09-0.86,2.16-1.77,3.2-2.71c-1.51-2.72-2.46-5.58-2.76-8.44
				C9.06,8.48,7.87,9.85,6.99,11.28z"/>
			<path fill="#FFFFFF" d="M6.02,20.29c0.15,0.27,0.31,0.52,0.5,0.76c0.6-0.39,1.2-0.8,1.79-1.24c-1.17-1.79-2.16-3.72-2.75-5.27
				C5.01,16.61,5.12,18.64,6.02,20.29z"/>
		</g>
	</g>
</g>
</svg>
