<?xml version="1.0" encoding="utf-8"?>
<!-- Generator: Adobe Illustrator 27.0.0, SVG Export Plug-In . SVG Version: 6.00 Build 0)  -->
<svg version="1.1" id="Layer_1" xmlns="http://www.w3.org/2000/svg" xmlns:xlink="http://www.w3.org/1999/xlink" x="0px" y="0px"
	 width="727px" height="766px" viewBox="0 0 727 766" enable-background="new 0 0 727 766" xml:space="preserve">
<path fill="none" stroke="#91C332" stroke-miterlimit="10" d="M124.84,600.36c-40.06,7.36-77.41,29.06-102.19,51.3
	c-15.02,13.49-26.14,30.28-19.87,42.8c0,0,13.6,35.5,24.06,52.19c10.46,16.7,14.34,21.9,22.13,16.32
	C96.96,718.42,136,621.52,137.11,611.5C138.22,601.47,133.77,599.25,124.84,600.36z M723.84,1.31
	C697.9-1.8,617.86,12.64,549.33,24.73c-153.65,27.1-340.31,81.73-431.41,204.52c-105.89,142.7-35.12,293.7,30.74,350.69
	c79.4,86.13,246.35,90.84,367.78-11.3c89.05-74.9,136.86-215.88,167.13-352.51c11.14-50.26,23.53-102.41,31.6-148.17
	C719.46,43.6,730.68,3.37,723.84,1.31z"/>
<g>
</g>
<g>
</g>
<g>
</g>
<g>
</g>
<g>
</g>
<g>
</g>
<g>
</g>
<g>
</g>
<g>
</g>
<g>
</g>
<g>
</g>
<g>
</g>
<g>
</g>
<g>
</g>
<g>
</g>
</svg>
