<?xml version="1.0" encoding="utf-8"?>
<!-- Generator: Adobe Illustrator 27.0.0, SVG Export Plug-In . SVG Version: 6.00 Build 0)  -->
<svg version="1.1" id="Layer_1" xmlns="http://www.w3.org/2000/svg" xmlns:xlink="http://www.w3.org/1999/xlink" x="0px" y="0px"
	 width="71.93px" height="66px" viewBox="0 0 71.93 66" enable-background="new 0 0 71.93 66" xml:space="preserve">
<g>
	<path fill="#B9DC78" d="M61.64,46.59H29.79c-2.21,0-4-1.79-4-4V4c0-2.21,1.79-4,4-4h31.85c2.21,0,4,1.79,4,4v38.59
		C65.64,44.8,63.85,46.59,61.64,46.59z"/>
	<path d="M47.98,43.24c-0.13-0.11-0.28-0.21-0.43-0.32c-0.29-0.22-0.6-0.44-0.84-0.68c-2.33-2.32-4.65-4.65-6.98-6.97
		c-4.52-4.52-9.2-9.2-13.83-13.77c-0.55-0.55-0.59-0.72-0.29-1.44c2.19-5.26,0.69-11.3-3.72-15.04c-4.4-3.73-10.66-4.2-15.58-1.17
		c-4.87,3-7.26,8.76-5.95,14.33c0.9,3.81,3.39,7.02,6.85,8.79c3.51,1.8,7.65,1.95,11.35,0.42c0.17-0.07,0.39-0.11,0.52-0.12
		c2.01,1.92,3.98,3.87,6.06,5.93l1.08,1.07l-3.59,3.35c-0.18,0.16-0.28,0.39-0.28,0.63c0,0.24,0.09,0.47,0.26,0.64l5.24,5.21
		c0.17,0.17,0.41,0.26,0.65,0.26c0.24-0.01,0.47-0.11,0.63-0.29l3.2-3.48l3.78,3.81l-3.5,3.31c-0.17,0.16-0.27,0.39-0.28,0.63
		c-0.01,0.24,0.09,0.47,0.25,0.64l4.84,4.97c0.17,0.17,0.39,0.27,0.63,0.27h0.01c0.24,0,0.46-0.09,0.63-0.26l9.38-9.39
		c0.18-0.18,0.27-0.43,0.26-0.68C48.3,43.63,48.18,43.39,47.98,43.24z M38.06,52.06l-3.58-3.68l3.5-3.31
		c0.17-0.16,0.27-0.39,0.28-0.63c0-0.24-0.09-0.47-0.26-0.64l-5.07-5.12c-0.17-0.17-0.42-0.27-0.65-0.26
		c-0.24,0-0.47,0.11-0.64,0.29l-3.2,3.48l-3.93-3.91l3.59-3.35c0.18-0.16,0.28-0.39,0.28-0.64c0-0.24-0.09-0.47-0.26-0.64
		l-1.74-1.72c-2.13-2.11-4.14-4.11-6.21-6.08c-0.77-0.73-2.23-0.14-2.29-0.11c-3.22,1.33-6.82,1.2-9.86-0.36
		c-2.99-1.54-5.16-4.31-5.94-7.62C0.95,12.93,3.02,7.94,7.24,5.35c4.26-2.62,9.69-2.21,13.5,1.02c3.82,3.24,5.12,8.47,3.23,13.01
		c-0.58,1.38-0.39,2.33,0.68,3.39c4.62,4.57,9.3,9.24,13.82,13.76c2.33,2.32,4.65,4.65,6.98,6.97c0.2,0.2,0.42,0.38,0.63,0.54
		L38.06,52.06z"/>
	<path d="M13.27,20.87c-0.01,0-0.02,0-0.04,0c-3.11-0.03-5.64-2.58-5.64-5.7c0-1.55,0.6-3,1.69-4.09c1.08-1.07,2.5-1.66,4.01-1.66
		h0.02c1.53,0.01,2.97,0.61,4.05,1.69c1.08,1.09,1.67,2.54,1.66,4.08c-0.01,1.53-0.61,2.97-1.7,4.04
		C16.23,20.29,14.79,20.87,13.27,20.87z M13.29,9.85v0.44c-1.28,0-2.49,0.5-3.4,1.41c-0.93,0.92-1.43,2.16-1.43,3.47
		c0.01,2.64,2.15,4.81,4.78,4.83c0.01,0,0.02,0,0.03,0c1.3,0,2.52-0.49,3.43-1.39c0.92-0.91,1.43-2.13,1.44-3.43
		c0.01-1.31-0.49-2.54-1.41-3.46c-0.91-0.92-2.13-1.43-3.43-1.43L13.29,9.85z"/>
	<path d="M67.24,66H14.91c-2.59,0-4.69-2.1-4.69-4.69V37.15c0-0.59,0.48-1.07,1.07-1.07c0.59,0,1.07,0.48,1.07,1.07v24.16
		c0,1.41,1.15,2.56,2.56,2.56h52.33c1.41,0,2.56-1.15,2.56-2.56V16.35c0-1.41-1.15-2.56-2.56-2.56h-33.2
		c-0.59,0-1.07-0.48-1.07-1.07c0-0.59,0.48-1.07,1.07-1.07h33.2c2.59,0,4.69,2.1,4.69,4.69v44.96C71.93,63.9,69.82,66,67.24,66z"/>
	<path fill="#FFFFFF" d="M56.28,24.16H42.21c-0.48,0-0.86-0.48-0.86-1.07s0.39-1.07,0.86-1.07h14.07c0.48,0,0.86,0.48,0.86,1.07
		S56.75,24.16,56.28,24.16z"/>
	<path fill="#FFFFFF" d="M56.28,32.19H45.73c-0.48,0-0.86-0.48-0.86-1.07s0.39-1.07,0.86-1.07h10.55c0.48,0,0.86,0.48,0.86,1.07
		S56.75,32.19,56.28,32.19z"/>
</g>
</svg>
