<?xml version="1.0" encoding="utf-8"?>
<!-- Generator: Adobe Illustrator 27.0.0, SVG Export Plug-In . SVG Version: 6.00 Build 0)  -->
<svg version="1.1" id="Layer_1" xmlns="http://www.w3.org/2000/svg" xmlns:xlink="http://www.w3.org/1999/xlink" x="0px" y="0px"
	 width="171px" height="30px" viewBox="0 0 171 30" enable-background="new 0 0 171 30" xml:space="preserve">
<g>
	<path fill="#FFFFFF" d="M5.22,23.29c-1.53,0.28-2.95,1.11-3.9,1.96c-0.57,0.51-1,1.15-0.76,1.63c0,0,0.52,1.35,0.92,1.99
		c0.4,0.64,0.55,0.84,0.84,0.62c1.83-1.7,3.32-5.39,3.36-5.78C5.73,23.33,5.56,23.25,5.22,23.29z M28.07,0.44
		c-0.99-0.12-4.04,0.43-6.66,0.89C15.55,2.37,8.43,4.45,4.96,9.14c-4.04,5.44-1.34,11.2,1.17,13.37c3.03,3.28,9.4,3.46,14.03-0.43
		c3.4-2.86,5.22-8.23,6.37-13.44c0.42-1.92,0.9-3.91,1.21-5.65C27.9,2.06,28.33,0.52,28.07,0.44z"/>
	<path fill="#FFFFFF" d="M52.89,10.42c-3.54,0-5.72,1.94-6.54,3.47c-0.82,1.53-0.92,2.78-0.92,3.75c0,0.96,0.29,3.4,1.73,4.95
		c1.45,1.56,3.19,2.23,5.37,2.23c2.18,0,4.52-0.6,5.66-2.42c0.76-1.11-0.58-2.55-1.87-1.51c-0.73,0.5-1.44,1.58-3.61,1.58
		c-1.47,0-3.94-1.11-4.36-3.87h9.52c0.67,0,1.47-0.5,1.34-1.82C59.07,15.46,57.6,10.42,52.89,10.42 M48.38,16.36
		c0.16-2.08,2.05-3.71,4.17-3.71c2.12,0,3.6,1.63,3.76,3.71H48.38z M86.36,10.42c-3.54,0-5.72,1.94-6.54,3.47
		c-0.82,1.53-0.92,2.78-0.92,3.75c0,0.96,0.29,3.4,1.73,4.95c1.45,1.56,3.19,2.23,5.37,2.23c2.18,0,4.52-0.6,5.66-2.42
		c0.76-1.11-0.58-2.55-1.87-1.51c-0.73,0.5-1.44,1.58-3.61,1.58c-1.47,0-3.94-1.11-4.36-3.87h9.52c0.67,0,1.47-0.5,1.34-1.82
		C92.54,15.46,91.07,10.42,86.36,10.42 M81.85,16.36c0.16-2.08,2.05-3.71,4.17-3.71c2.12,0,3.6,1.63,3.76,3.71H81.85z M69.6,10.64
		c0,0-0.73-0.22-1.51-0.22c-3.04,0-4.28,2.23-4.28,2.23v-0.42c0-1.56-0.98-1.81-1.45-1.81c-0.91,0-1.4,0.52-1.4,1.37V23
		c0,1.49,0.67,1.81,1.29,1.81c0.62,0,1.56-0.37,1.56-1.79v-6.14c0-1.47,0.81-2.93,2.02-3.6c1.21-0.67,2.4-0.28,3.23-0.05
		C70.86,13.69,71.39,11.17,69.6,10.64 M43.76,10.56c-0.56-0.28-1.73-0.25-2.24,1.05l-3.75,9.61c-0.03,0.11-0.1,0.14-0.16,0
		l-3.75-9.61c-0.5-1.3-1.68-1.33-2.24-1.05c-0.67,0.39-0.89,0.98-0.53,2.09l4.36,10.46c0.38,0.99,1.01,1.7,2.23,1.7
		c1.15,0,1.69-0.41,2.23-1.7l4.36-10.46C44.65,11.54,44.43,10.95,43.76,10.56 M78.18,22.39c-0.59-0.41-1.03-0.09-1.84,0
		c-1.19,0.08-1.54-1.21-1.54-2.03v-7.7h2.11c1.91,0,1.93-2.23,0.23-2.23h-2.34V8.25c0-1.26-0.62-1.74-1.35-1.74
		c-0.82,0-1.49,0.48-1.49,1.74v11.52c0,2.28,0.51,3.35,1.43,4.19c0.92,0.84,2.81,1.16,4.28,0.54C78.91,23.98,78.76,22.8,78.18,22.39
		 M101.35,17.49l3.91-4.55c0.86-1,0.76-1.66,0.3-2.21c-0.4-0.41-1.33-0.73-2.41,0.52l-3.48,4.11l-3.26-4.11
		c-0.8-1.24-2.02-1.02-2.54-0.61c-0.61,0.55-0.72,1.2-0.11,2.29l3.89,4.83l-3.73,4.41c-1.04,1.01-0.95,1.98-0.39,2.43
		c0.53,0.43,1.51,0.27,2.29-0.64l3.52-4.1l3.3,4.1c0.73,0.92,1.71,1.11,2.4,0.71c0.63-0.37,1-1.39,0.03-2.48L101.35,17.49z"/>
	<path fill="#FFFFFF" d="M124.79,12.07c-0.45-0.45-0.98-0.81-1.6-1.08c-0.61-0.26-1.28-0.4-2-0.4c-0.87,0-1.61,0.17-2.24,0.51
		c-0.62,0.33-1.17,0.77-1.64,1.31c-0.43-0.55-0.97-0.99-1.61-1.32c-0.65-0.32-1.41-0.49-2.29-0.49c-0.72,0-1.38,0.13-1.99,0.4
		c-0.61,0.27-1.14,0.62-1.59,1.08c-0.45,0.45-0.8,0.98-1.04,1.58c-0.26,0.6-0.38,1.25-0.38,1.94v8.21c0,0.22,0.08,0.41,0.25,0.57
		c0.16,0.15,0.36,0.23,0.6,0.23c0.22,0,0.41-0.08,0.58-0.23c0.17-0.16,0.26-0.35,0.26-0.57v-8.21c0-0.46,0.08-0.9,0.24-1.31
		c0.16-0.42,0.39-0.78,0.69-1.08c0.29-0.3,0.65-0.55,1.06-0.73c0.4-0.18,0.86-0.28,1.34-0.28c0.49,0,0.92,0.09,1.3,0.28
		c0.39,0.18,0.7,0.43,0.96,0.73c0.26,0.3,0.46,0.66,0.6,1.06c0.14,0.41,0.22,0.85,0.22,1.32v8.22c0,0.22,0.07,0.41,0.24,0.57
		c0.16,0.15,0.36,0.23,0.6,0.23c0.23,0,0.43-0.08,0.59-0.23c0.16-0.16,0.24-0.35,0.24-0.57v-8.21c0-0.46,0.07-0.9,0.2-1.31
		c0.13-0.42,0.33-0.78,0.59-1.08c0.26-0.3,0.57-0.55,0.96-0.73c0.38-0.18,0.81-0.28,1.3-0.28c0.5,0,0.95,0.09,1.37,0.28
		c0.41,0.18,0.76,0.43,1.06,0.73c0.29,0.3,0.52,0.66,0.69,1.08c0.16,0.41,0.24,0.85,0.24,1.31v8.21c0,0.22,0.08,0.41,0.24,0.57
		c0.17,0.15,0.37,0.23,0.6,0.23c0.22,0,0.41-0.08,0.59-0.23c0.16-0.16,0.25-0.35,0.25-0.57v-8.21c0-0.69-0.13-1.34-0.37-1.94
		C125.59,13.05,125.24,12.52,124.79,12.07z M138.07,12.28c0.23,0,0.43-0.08,0.6-0.25c0.17-0.16,0.24-0.35,0.24-0.55
		c0-0.23-0.07-0.42-0.24-0.57c-0.16-0.16-0.36-0.24-0.6-0.24h-8.84c-0.24,0-0.44,0.08-0.6,0.24c-0.16,0.15-0.25,0.34-0.25,0.57V23.8
		c0,0.22,0.08,0.41,0.26,0.57c0.16,0.15,0.36,0.23,0.59,0.23h8.84c0.23,0,0.43-0.08,0.6-0.24c0.17-0.16,0.24-0.35,0.24-0.56
		c0-0.23-0.07-0.42-0.24-0.57c-0.16-0.16-0.36-0.24-0.6-0.24h-8v-4.34h4.69c0.24,0,0.44-0.09,0.6-0.25
		c0.16-0.16,0.25-0.35,0.25-0.56c0-0.22-0.08-0.41-0.25-0.57c-0.16-0.15-0.36-0.23-0.6-0.23h-4.69v-4.77H138.07z M149.74,12.13
		c-0.47-0.45-1.04-0.81-1.68-1.06c-0.65-0.26-1.33-0.39-2.05-0.39h-4.4c-0.24,0-0.44,0.08-0.6,0.24c-0.17,0.15-0.25,0.34-0.25,0.57
		V23.8c0,0.22,0.08,0.41,0.26,0.57c0.16,0.15,0.36,0.23,0.59,0.23h4.43c0.72,0,1.4-0.13,2.05-0.39c0.64-0.26,1.19-0.62,1.66-1.07
		c0.47-0.45,0.84-0.97,1.13-1.57c0.27-0.6,0.41-1.24,0.41-1.93v-4c0-0.7-0.14-1.34-0.41-1.93
		C150.58,13.11,150.21,12.59,149.74,12.13z M149.61,19.64c0,0.46-0.09,0.9-0.28,1.31c-0.18,0.41-0.43,0.76-0.75,1.07
		c-0.33,0.3-0.7,0.54-1.14,0.71c-0.43,0.17-0.9,0.26-1.4,0.26h-3.59V12.29H146c0.51,0,0.98,0.09,1.42,0.26
		c0.44,0.17,0.82,0.42,1.15,0.72c0.32,0.3,0.57,0.66,0.75,1.06c0.19,0.41,0.28,0.85,0.28,1.31V19.64z M154.88,10.68
		c-0.24,0-0.44,0.08-0.6,0.24c-0.17,0.15-0.25,0.34-0.25,0.57V23.8c0,0.22,0.08,0.41,0.26,0.57c0.16,0.15,0.36,0.23,0.59,0.23
		c0.23,0,0.43-0.08,0.59-0.23c0.16-0.16,0.25-0.35,0.25-0.57V11.49c0-0.23-0.08-0.42-0.26-0.57
		C155.3,10.76,155.1,10.68,154.88,10.68z M170.43,23.5l-5.55-12.42c-0.09-0.2-0.23-0.34-0.44-0.42c-0.12-0.05-0.23-0.06-0.33-0.06
		c-0.37,0-0.63,0.16-0.78,0.48l-5.55,12.42c-0.04,0.12-0.07,0.23-0.07,0.34c0,0.18,0.08,0.36,0.22,0.53
		c0.14,0.17,0.34,0.25,0.6,0.25c0.16,0,0.31-0.05,0.45-0.13c0.14-0.09,0.25-0.21,0.32-0.36l4.81-10.73l4.81,10.73
		c0.14,0.32,0.4,0.49,0.77,0.49c0.25,0,0.45-0.09,0.6-0.25c0.15-0.17,0.22-0.35,0.22-0.53C170.5,23.73,170.48,23.62,170.43,23.5z"/>
</g>
</svg>
