<?xml version="1.0" encoding="utf-8"?>
<!-- Generator: Adobe Illustrator 27.0.0, SVG Export Plug-In . SVG Version: 6.00 Build 0)  -->
<svg version="1.1" id="Layer_1" xmlns="http://www.w3.org/2000/svg" xmlns:xlink="http://www.w3.org/1999/xlink" x="0px" y="0px"
	 width="61.3px" height="66px" viewBox="0 0 61.3 66" enable-background="new 0 0 61.3 66" xml:space="preserve">
<g>
	<path fill="#B9DC7D" d="M57.3,66H17.5c-2.21,0-4-1.79-4-4V22.19c0-2.21,1.79-4,4-4H57.3c2.21,0,4,1.79,4,4V62
		C61.3,64.21,59.51,66,57.3,66z"/>
	<path d="M45.39,24.47c0.77-1.02,0.77-1.96-0.01-2.98c-0.7-0.92-1.39-1.86-2.19-2.7c-0.66-0.68-0.79-1.4-0.63-2.27
		c0.21-1.06,0.35-2.14,0.54-3.21c0.24-1.37-0.26-2.34-1.54-2.86c-1.2-0.49-2.44-0.89-3.63-1.42c-0.41-0.19-0.82-0.59-1.01-1
		C36.4,6.85,36.01,5.6,35.52,4.4C35,3.12,34.03,2.62,32.66,2.85c-1.21,0.21-2.42,0.45-3.64,0.55c-0.51,0.04-1.13-0.16-1.56-0.45
		c-1.01-0.7-1.92-1.54-2.89-2.29c-1.12-0.87-2.04-0.87-3.16-0.02c-0.63,0.48-1.29,0.95-1.84,1.51c-1.1,1.13-2.3,1.61-3.89,1.09
		c-0.81-0.27-1.71-0.29-2.56-0.43c-1.04-0.17-1.87,0.21-2.42,1.08c-0.31,0.48-0.53,1.04-0.65,1.6C9.51,7.98,8.1,9.55,5.54,10.01
		c-0.35,0.06-0.68,0.25-1.01,0.38c-1.42,0.57-1.92,1.49-1.66,2.98c0.19,1.1,0.34,2.21,0.54,3.32c0.14,0.76,0,1.38-0.55,1.98
		c-0.81,0.88-1.53,1.83-2.26,2.78c-0.81,1.07-0.81,2,0.01,3.07c0.68,0.89,1.34,1.81,2.12,2.61c0.73,0.74,0.81,1.54,0.63,2.48
		c-0.24,1.2-0.41,2.42-0.61,3.62c0.05,1.1,0.57,1.86,1.58,2.26c1.21,0.48,2.45,0.89,3.62,1.43c0.44,0.2,0.87,0.63,1.07,1.07
		c0.54,1.18,0.94,2.42,1.43,3.62c0.5,1.23,1.48,1.74,2.77,1.51c1.1-0.19,2.21-0.35,3.31-0.56c0.83-0.15,1.52-0.04,2.17,0.59
		c0.78,0.75,1.67,1.39,2.52,2.06c1.26,0.99,2.18,0.99,3.42,0.02c0.85-0.67,1.74-1.31,2.52-2.06c0.65-0.61,1.32-0.79,2.17-0.62
		c1.1,0.22,2.21,0.36,3.31,0.56c1.36,0.24,2.32-0.27,2.84-1.57c0.46-1.14,0.82-2.32,1.36-3.42c0.26-0.51,0.77-1.01,1.29-1.26
		c1.13-0.55,2.35-0.92,3.51-1.41c1.17-0.5,1.66-1.46,1.45-2.71c-0.2-1.18-0.47-2.35-0.54-3.53c-0.03-0.61,0.18-1.33,0.52-1.85
		C43.79,26.34,44.65,25.45,45.39,24.47z M9.46,35.91c-1.45-0.53-2.87-1.16-4.33-1.7c-0.71-0.26-0.93-0.71-0.8-1.42
		c0.19-1.03,0.29-2.08,0.52-3.1C5.15,28.4,4.94,27.3,4,26.3c-0.77-0.81-1.4-1.75-2.13-2.6c-0.43-0.5-0.45-0.92-0.01-1.43
		c0.77-0.91,1.48-1.87,2.26-2.77c0.2-0.23,0.6-0.39,0.91-0.4c1.84-0.04,3.69-0.03,5.53-0.01c1.5,0.02,2.42,0.95,2.43,2.44
		c0.01,1.99,0,3.98,0,5.97c0,1.99,0.01,3.98,0,5.97C12.98,35.38,11.27,36.58,9.46,35.91z M41.77,26.56c-0.73,0.8-0.9,1.7-0.73,2.71
		c0.18,1.11,0.34,2.22,0.57,3.31c0.2,0.91-0.08,1.43-0.99,1.71c-1,0.31-1.95,0.77-2.94,1.09c-1.16,0.37-1.91,1.07-2.28,2.25
		c-0.35,1.1-0.82,2.16-1.21,3.25c-0.24,0.67-0.67,0.88-1.34,0.76c-1.1-0.2-2.21-0.36-3.31-0.56c-1.12-0.21-2.12-0.11-3.02,0.73
		c-0.9,0.83-1.87,1.61-2.89,2.3c-0.31,0.21-0.99,0.2-1.29-0.01c-1.02-0.69-1.98-1.47-2.89-2.3c-0.83-0.76-1.75-0.94-2.81-0.76
		c-1.1,0.19-2.21,0.35-3.31,0.57c-0.79,0.16-1.32-0.02-1.6-0.84c-0.36-1.05-0.77-2.08-1.1-2.96c0.99-0.53,1.88-1.04,2.8-1.47
		c0.26-0.12,0.61-0.06,0.91-0.06c1.04,0.02,2.09,0.14,3.13,0.08c3.69-0.21,7.37-0.45,11.05-0.71c2.66-0.19,3.54-1.71,2.4-4.15
		c1.18-1.2,1.28-2.57,0.56-4.06c1.73-2.02,1.83-2.98,0.56-4.75c0.27-0.6,0.62-1.13,0.75-1.7c0.41-1.87-0.74-3.29-2.69-3.31
		c-2.61-0.04-5.21-0.01-7.82-0.01c-0.39,0-0.77,0-1.28,0c0.44-1.78,0.86-3.41,1.25-5.05c0.53-2.23-0.81-4.35-2.91-4.64
		c-0.81-0.11-1.33,0.08-1.69,0.92c-1.23,2.85-2.55,5.66-3.84,8.49c-0.16,0.36-0.35,0.7-0.53,1.07c-2.63-1.49-5.51-0.39-8.24-0.9
		c-0.25-1.5-0.48-3-0.74-4.49c-0.12-0.7,0.19-1.08,0.82-1.31c1.02-0.37,2.01-0.83,3.04-1.14c1.31-0.39,2.07-1.2,2.45-2.49
		c0.3-1,0.76-1.95,1.1-2.94c0.26-0.76,0.74-0.99,1.5-0.85c1.1,0.21,2.21,0.37,3.31,0.57c1.09,0.2,2.05,0.05,2.91-0.75
		c0.9-0.83,1.87-1.61,2.89-2.29c0.31-0.21,0.99-0.2,1.29,0c1.02,0.69,1.98,1.46,2.89,2.29c0.87,0.8,1.82,0.94,2.91,0.74
		c1.07-0.19,2.14-0.34,3.2-0.55C33.5,4.17,34,4.43,34.28,5.3c0.31,0.96,0.78,1.87,1.06,2.84c0.38,1.3,1.15,2.1,2.46,2.49
		c1.04,0.31,2.02,0.77,3.04,1.13c0.7,0.25,0.94,0.7,0.8,1.42c-0.19,0.99-0.27,2.01-0.51,2.99c-0.34,1.38-0.1,2.54,0.91,3.59
		c0.75,0.78,1.36,1.69,2.07,2.52c0.44,0.51,0.42,0.93-0.01,1.43C43.31,24.64,42.6,25.65,41.77,26.56z M18.93,19.06
		c3.55,0.05,7.1,0.04,10.65,0.02c0.92-0.01,1.7,0.12,1.84,1.21c0.1,0.83-0.55,1.37-1.7,1.61c-0.41,0.09-1,0.31-1.11,0.61
		c-0.24,0.68,0.26,0.96,0.91,0.93c0.99-0.06,1.82,0.24,1.87,1.32c0.05,1.03-0.78,1.31-1.67,1.49c-0.42,0.09-0.79,0.46-1.18,0.71
		c0.33,0.29,0.71,0.54,0.98,0.88c0.34,0.41,0.84,0.88,0.84,1.33c0,0.44-0.5,0.92-0.85,1.31c-0.13,0.15-0.53,0.04-0.72,0.17
		c-0.29,0.2-0.52,0.51-0.77,0.78c0.27,0.24,0.51,0.6,0.82,0.68c0.64,0.16,1.21,0.43,1.04,1.1c-0.1,0.39-0.69,0.9-1.09,0.92
		c-4.48,0.31-8.96,0.54-13.44,0.78c-0.28,0.01-0.56-0.07-0.85-0.1c0-4.65,0.08-9.18-0.06-13.69c-0.03-1,0.14-1.81,0.52-2.65
		c1.24-2.73,2.47-5.46,3.72-8.19c0.42-0.91,0.85-1.06,1.46-0.29c0.41,0.51,0.76,1.32,0.66,1.92c-0.28,1.74-0.77,3.45-1.24,5.16
		c-0.06,0.22-0.51,0.32-0.76,0.51c-0.32,0.25-0.62,0.54-0.92,0.82C18.24,18.63,18.58,19.06,18.93,19.06z M26.99,7.56
		c-1.23,0.11-0.83,1.29-1.13,2.01c-0.07,0.16,0.44,0.56,0.68,0.84c0.44-0.61,0.88-1.22,1.45-2C27.53,8.01,27.24,7.54,26.99,7.56z
		 M36.78,14.94c-0.09-0.17-0.47-0.35-0.62-0.29c-0.62,0.27-1.22,0.59-1.77,0.97c-0.16,0.11-0.2,0.54-0.12,0.77
		c0.08,0.22,0.37,0.37,0.63,0.6c0.69-0.45,1.35-0.82,1.92-1.27C36.95,15.62,36.9,15.16,36.78,14.94z M38.09,19.65
		c0.18-0.07,0.29-0.36,0.77-1.01c-0.32-0.11-0.65-0.33-0.93-0.29c-0.72,0.11-1.44,0.31-2.13,0.56c-0.14,0.05-0.25,0.53-0.17,0.74
		c0.07,0.21,0.42,0.49,0.61,0.47C36.87,20.05,37.49,19.87,38.09,19.65z M30.67,9.04c-0.68,0.04-1.73,1.76-1.48,2.29
		c0.08,0.17,0.35,0.43,0.43,0.39c0.38-0.16,0.89-0.32,1.05-0.64c0.28-0.55,0.34-1.21,0.44-1.83C31.13,9.2,30.77,9.09,30.67,9.04z
		 M33.81,11.49c-1.27,0.01-2.35,0.77-1.68,1.85c-0.39-0.19,0.11,0.33,0.62,1.03c0.68-0.88,1.23-1.56,1.72-2.28
		C34.5,12.05,33.81,11.44,33.81,11.49z M36.68,22.32c-0.26,0.07-0.61,0.45-0.61,0.68c0,0.23,0.37,0.52,0.64,0.66
		c0.2,0.11,0.49,0.02,0.75,0.02v0.01c0.22,0,0.48,0.08,0.64-0.02c0.33-0.19,0.6-0.47,0.9-0.71c-0.31-0.23-0.58-0.58-0.93-0.67
		C37.63,22.19,37.11,22.2,36.68,22.32z"/>
	<path fill="#FFFFFF" d="M47.34,44.58l1.77,3.59c0.1,0.21,0.3,0.36,0.54,0.39l3.96,0.58c0.58,0.08,0.82,0.8,0.39,1.21l-2.87,2.79
		c-0.17,0.16-0.24,0.4-0.2,0.63l0.68,3.94c0.1,0.58-0.51,1.02-1.03,0.75l-3.54-1.86c-0.21-0.11-0.45-0.11-0.66,0l-3.54,1.86
		c-0.52,0.27-1.13-0.17-1.03-0.75l0.68-3.94c0.04-0.23-0.04-0.47-0.2-0.63l-2.87-2.79c-0.42-0.41-0.19-1.13,0.39-1.21l3.96-0.58
		c0.23-0.03,0.43-0.18,0.54-0.39l1.77-3.59C46.33,44.05,47.08,44.05,47.34,44.58z"/>
</g>
</svg>
