<?xml version="1.0" encoding="utf-8"?>
<!-- Generator: Adobe Illustrator 27.0.0, SVG Export Plug-In . SVG Version: 6.00 Build 0)  -->
<svg version="1.1" id="Layer_1" xmlns="http://www.w3.org/2000/svg" xmlns:xlink="http://www.w3.org/1999/xlink" x="0px" y="0px"
	 width="176px" height="34px" viewBox="0 0 176 34" enable-background="new 0 0 176 34" xml:space="preserve">
<g>
	<g>
		<path fill="#FA419B" d="M6.81,22.31c-0.37-0.4-0.55-1.11-0.55-2.14V9.2h3.31V6.51H6.25V1.62H2.59v4.89H0.5V9.2h2.09v12.28
			c0,1.8,0.43,3.02,1.28,3.66c0.85,0.64,2.12,0.96,3.8,0.96h2.11v-3.23H8.54C7.75,22.89,7.17,22.71,6.81,22.31z M73.5,22.17
			c-0.38-0.41-0.57-1.15-0.57-2.22V0.3h-3.8v21.01c0,1.86,0.44,3.13,1.33,3.79c0.89,0.67,2.2,1,3.95,1h1.68v-3.36H75.3
			C74.49,22.77,73.89,22.58,73.5,22.17z M18.14,6.2c-2.02,0-3.88,0.56-5.08,1.69c-1.2,1.13-1.79,2.6-1.79,4.43v8.01
			c0,1.85,0.6,3.32,1.79,4.43c1.2,1.1,3.05,1.66,5.08,1.66c1.92,0,3.68-0.47,4.8-1.41c1.1-0.93,1.71-2.17,2.05-3.91l-3.67-0.55
			c-0.17,0.69-0.62,1.61-1.09,2.02c-0.5,0.44-1.37,0.65-2.1,0.65c-0.84,0-1.77-0.29-2.3-0.89c-0.53-0.59-0.79-1.35-0.79-2.27v-2.08
			c0-0.1,0.05-0.15,0.16-0.15h9.8v-5.5c0-1.82-0.59-3.3-1.77-4.43C22.05,6.77,20.19,6.2,18.14,6.2z M21.27,14.75h-6.21v-2.19
			c0-0.92,0.26-1.68,0.79-2.27c0.53-0.59,1.46-0.89,2.3-0.89c0.87,0,1.81,0.3,2.34,0.89c0.53,0.59,0.79,1.35,0.79,2.27V14.75z
			 M86.39,6.51l-3.06,13.11c0,0-0.86-0.25-1.11-1.77L79.59,6.51h-4.06l3.5,13.23c0.42,1.86,2.04,3.41,2.93,4.18
			c-0.32,1.74-0.64,4-1.24,5.11c-0.34,0.62-0.7,1.08-1.18,1.31c-0.44,0.21-1.03,0.34-1.77,0.38c-0.03,0-0.3,0-0.62,0v3.05h0.43
			c1.63,0,2.88-0.18,3.76-0.54c0.88-0.36,1.57-0.97,2.07-1.83c0.5-0.86,1-2.17,1.5-3.95l5.51-20.91L86.39,6.51z M42.96,6.1
			L42.96,6.1c-1.93,0-3.47,0.75-4.57,1.89C37.31,6.87,35.8,6.1,33.95,6.1h-0.01c-4.05,0.02-6.46,1.76-6.46,1.76V26.1h3.93V10.23
			c1.03-0.34,1.74-0.45,2.3-0.45c1.88,0,2.63,1.59,2.79,3.2v2.88L36.43,26.1h4V16.4l0.02-1.93c0,0,0.01-0.69-0.01-1.39
			c0.11-1.72,1-3.3,2.6-3.3h0.12c1.66,0,2.27,0.63,2.37,2.33L45.45,26.1h3.92l0.1-12.78c0,0,0.02-1.33-0.04-2.15
			C49.11,8.2,46.79,6.1,42.96,6.1z M59.21,6.31L59.21,6.31c-4.16,0.02-6.86,1.8-6.86,1.8v24.61h4.02v-8.05h3.45
			c5.46,0,6.76-3.41,6.76-7.17c0,0,0.02-4.4-0.04-5.24C66.54,8.62,63.12,6.31,59.21,6.31z M62.52,17.32c0,2.89-1.3,3.67-2.85,3.67
			h-3.3V10.34c1.04-0.46,2.38-0.69,2.95-0.69c2.03,0,3.15,0.88,3.25,2.62L62.52,17.32z"/>
	</g>
	<path fill="#414655" d="M175.5,6.09h-5.09l-6.13,7.43V0.24h-4.08v25.88l4.08,0.02v-6.87l1.21-1.38l5.26,8.23l4.67,0l-7.49-10.99
		L175.5,6.09z M111.89,22.31c-0.37-0.4-0.55-1.11-0.55-2.14V9.2h3.31V6.51h-3.31V1.62h-3.66v4.89h-2.09V9.2h2.09v12.28
		c0,1.8,0.43,3.02,1.28,3.66c0.85,0.64,2.12,0.96,3.8,0.96h2.11v-3.23h-1.25C112.83,22.89,112.26,22.71,111.89,22.31z M154.96,6.95
		c-1.01-0.5-2.44-0.75-3.78-0.75c-2.02,0-3.88,0.56-5.08,1.69c-1.2,1.13-1.79,2.6-1.79,4.43v7.97c0,1.87,0.6,3.36,1.79,4.47
		c1.2,1.1,3.05,1.66,5.08,1.66c2.02,0,3.89-0.53,5.1-1.6c1.21-1.06,1.81-2.43,1.81-4.1v-1.06l-3.78-0.51v1.34
		c0,0.74-0.28,1.39-0.83,1.92c-0.55,0.54-1.48,0.81-2.3,0.81c-0.84,0-1.77-0.29-2.3-0.89c-0.53-0.59-0.79-1.35-0.79-2.27v-7.51
		c0-0.92,0.26-1.68,0.79-2.27c0.53-0.59,1.46-0.89,2.3-0.89c0.81,0,1.75,0.27,2.3,0.81c0.55,0.54,0.83,1.18,0.83,1.92v1.14
		l3.78-0.64V11.9c0-1.08-0.27-2.05-0.81-2.91C156.74,8.13,155.97,7.45,154.96,6.95z M102.12,16.23c-0.71-0.42-1.6-0.87-2.68-1.33
		c-0.97-0.41-2.18-0.72-2.62-0.94c-0.45-0.22-0.83-0.51-1.14-0.87c-0.32-0.36-0.47-0.81-0.47-1.35c0-0.69,0.24-1.28,0.71-1.77
		c0.47-0.49,1.36-0.73,2.18-0.73c0.79,0,1.55,0.25,2.05,0.74c0.81,0.64,1.11,1.71,1.23,2.75l3.25-1.26
		c-0.43-1.97-1.16-2.96-1.92-3.65c-1.12-1-2.73-1.5-4.68-1.5c-1.89,0-3.64,0.49-4.76,1.46c-1.12,0.98-1.67,2.34-1.67,4.08
		c0,1.18,0.26,2.16,0.79,2.93c0.53,0.77,1.12,1.36,1.79,1.77c0.67,0.41,1.52,0.83,2.54,1.27c0.95,0.38,2.15,0.69,2.61,0.9
		c0.46,0.22,0.86,0.52,1.2,0.9c0.34,0.38,0.51,0.86,0.51,1.42c0,0.72-0.24,1.31-0.73,1.77c-0.49,0.46-1.37,0.69-2.16,0.69
		c-0.81,0-1.75-0.24-2.3-0.71c-0.93-0.7-1.32-1.96-1.47-2.93l-3.22,0.78c0.41,2.33,1.19,3.43,2.21,4.27
		c1.14,0.94,3.13,1.41,5.1,1.41c2,0,3.43-0.49,4.6-1.46c1.17-0.98,1.75-2.3,1.75-3.96c0-1.15-0.27-2.12-0.81-2.89
		C103.45,17.25,102.83,16.65,102.12,16.23z"/>
	<g>
		<path fill="#414655" d="M141.86,14.84l-11.17,6.46c-0.86,0.49-1.91,0.49-2.77,0l-11.17-6.46v3.25c0,1.48,0.79,2.85,2.07,3.59
			l9.1,5.26c0.86,0.49,1.91,0.49,2.77,0l9.1-5.26c1.28-0.74,2.07-2.11,2.07-3.59V14.84z"/>
		<path fill="#2D3243" d="M116.66,14.69l0.13,0.08l11.17,6.46c0.83,0.48,1.85,0.48,2.68,0l11.3-6.53v3.4c0,1.51-0.81,2.91-2.12,3.67
			l-9.1,5.26c-0.88,0.51-1.97,0.51-2.85,0l-9.1-5.26c-1.3-0.75-2.12-2.16-2.12-3.67V14.69z M129.3,21.76
			c-0.49,0-0.99-0.13-1.43-0.38l-11.04-6.38v3.1c0,1.44,0.78,2.79,2.03,3.51l9.1,5.26c0.83,0.48,1.85,0.48,2.68,0l9.1-5.26
			c1.25-0.72,2.03-2.07,2.03-3.51v-3.1l-11.04,6.38C130.29,21.63,129.79,21.76,129.3,21.76z"/>
		<path fill="#2D3243" d="M141.86,17.23l-11.17,6.46c-0.86,0.49-1.91,0.49-2.77,0l-11.17-6.46v-2.39l11.17,6.46
			c0.86,0.49,1.91,0.49,2.77,0l11.17-6.46V17.23z"/>
		<linearGradient id="SVGID_1_" gradientUnits="userSpaceOnUse" x1="116.7453" y1="11.6265" x2="141.8561" y2="11.6265">
			<stop  offset="0.05" style="stop-color:#F5419B"/>
			<stop  offset="0.2009" style="stop-color:#F6449C"/>
			<stop  offset="0.31" style="stop-color:#F74DA1"/>
			<stop  offset="0.4057" style="stop-color:#FA5DA8"/>
			<stop  offset="0.4937" style="stop-color:#FF73B3"/>
			<stop  offset="0.5" style="stop-color:#FF75B4"/>
			<stop  offset="0.5302" style="stop-color:#FE6FB1"/>
			<stop  offset="0.6841" style="stop-color:#F956A5"/>
			<stop  offset="0.8237" style="stop-color:#F6469E"/>
			<stop  offset="0.9354" style="stop-color:#F5419B"/>
		</linearGradient>
		<path fill="url(#SVGID_1_)" d="M116.75,17.86l11.17-6.46c0.86-0.49,1.91-0.49,2.77,0l11.17,6.46v-3.25c0-1.48-0.79-2.85-2.07-3.59
			l-9.1-5.26c-0.86-0.49-1.91-0.49-2.77,0l-9.1,5.26c-1.28,0.74-2.07,2.11-2.07,3.59V17.86z"/>
		
			<linearGradient id="SVGID_00000124149075224065008290000010231621958681220249_" gradientUnits="userSpaceOnUse" x1="116.6568" y1="11.6594" x2="141.9444" y2="11.6594">
			<stop  offset="0.0879" style="stop-color:#EF278B"/>
			<stop  offset="0.2064" style="stop-color:#F02A8D"/>
			<stop  offset="0.2922" style="stop-color:#F23391"/>
			<stop  offset="0.3675" style="stop-color:#F5439A"/>
			<stop  offset="0.4366" style="stop-color:#F959A5"/>
			<stop  offset="0.5" style="stop-color:#FF75B4"/>
			<stop  offset="0.6177" style="stop-color:#F855A3"/>
			<stop  offset="0.7383" style="stop-color:#F33C96"/>
			<stop  offset="0.8478" style="stop-color:#F02C8E"/>
			<stop  offset="0.9354" style="stop-color:#EF278B"/>
		</linearGradient>
		<path fill="url(#SVGID_00000124149075224065008290000010231621958681220249_)" d="M141.94,18.02l-0.13-0.08l-11.17-6.46
			c-0.83-0.48-1.85-0.48-2.68,0l-11.3,6.53v-3.4c0-1.51,0.81-2.91,2.12-3.67l9.1-5.26c0.88-0.51,1.97-0.51,2.85,0l9.1,5.26
			c1.3,0.75,2.12,2.16,2.12,3.67V18.02z M129.3,10.95c0.49,0,0.99,0.13,1.43,0.38l11.04,6.38v-3.1c0-1.44-0.78-2.79-2.03-3.51
			l-9.1-5.26c-0.83-0.48-1.85-0.48-2.68,0l-9.1,5.26c-1.25,0.72-2.03,2.07-2.03,3.51v3.1l11.04-6.38
			C128.31,11.07,128.81,10.95,129.3,10.95z"/>
		
			<linearGradient id="SVGID_00000039813299153530973930000012569912903517036207_" gradientUnits="userSpaceOnUse" x1="116.7453" y1="13.2515" x2="141.8561" y2="13.2515">
			<stop  offset="0.0879" style="stop-color:#EF278B"/>
			<stop  offset="0.2064" style="stop-color:#F02A8D"/>
			<stop  offset="0.2922" style="stop-color:#F23391"/>
			<stop  offset="0.3675" style="stop-color:#F5439A"/>
			<stop  offset="0.4366" style="stop-color:#F959A5"/>
			<stop  offset="0.5" style="stop-color:#FF75B4"/>
			<stop  offset="0.6177" style="stop-color:#F855A3"/>
			<stop  offset="0.7383" style="stop-color:#F33C96"/>
			<stop  offset="0.8478" style="stop-color:#F02C8E"/>
			<stop  offset="0.9354" style="stop-color:#EF278B"/>
		</linearGradient>
		<path fill="url(#SVGID_00000039813299153530973930000012569912903517036207_)" d="M116.75,15.47l11.17-6.46
			c0.86-0.49,1.91-0.49,2.77,0l11.17,6.46v2.39l-11.17-6.46c-0.86-0.49-1.91-0.49-2.77,0l-11.17,6.46V15.47z"/>
	</g>
</g>
</svg>
